<?xml version="1.0" encoding="UTF-8" standalone="no"?>
<!DOCTYPE svg PUBLIC "-//W3C//DTD SVG 1.1//EN"
 "http://www.w3.org/Graphics/SVG/1.1/DTD/svg11.dtd">
<!-- Generated by graphviz version 9.0.0 (20230911.1827)
 -->
<!-- Pages: 1 -->
<svg width="593pt" height="178pt"
 viewBox="0.00 0.00 592.88 178.47" xmlns="http://www.w3.org/2000/svg" xmlns:xlink="http://www.w3.org/1999/xlink">
<g id="graph0" class="graph" transform="scale(1 1) rotate(0) translate(4 174.47)">
<polygon fill="white" stroke="none" points="-4,4 -4,-174.47 588.88,-174.47 588.88,4 -4,4"/>
<!-- Кооордината мяча X -->
<g id="node1" class="node">
<title>Кооордината мяча X</title>
<polygon fill="lightgray" stroke="black" points="476.12,-170.47 381.38,-170.47 381.38,-151.97 476.12,-151.97 476.12,-170.47"/>
<text text-anchor="middle" x="428.75" y="-157.92" font-family="Times,serif" font-size="9.00">Кооордината мяча X</text>
</g>
<!-- Движение влево -->
<g id="node5" class="node">
<title>Движение влево</title>
<ellipse fill="lightblue" stroke="black" cx="210.75" cy="-57.98" rx="54.8" ry="54.8"/>
<text text-anchor="middle" x="210.75" y="-54.68" font-family="Times,serif" font-size="9.00">Движение влево</text>
</g>
<!-- Кооордината мяча X&#45;&gt;Движение влево -->
<g id="edge1" class="edge">
<title>Кооордината мяча X&#45;&gt;Движение влево</title>
<path fill="none" stroke="red" stroke-width="0.1" d="M381.15,-152.27C349.58,-145.65 308.01,-134.29 274.75,-115.97 268.57,-112.56 262.48,-108.46 256.66,-104.04"/>
<polygon fill="red" stroke="red" stroke-width="0.1" points="259.04,-101.46 249.04,-97.95 254.67,-106.92 259.04,-101.46"/>
</g>
<!-- Стоять на месте -->
<g id="node6" class="node">
<title>Стоять на месте</title>
<ellipse fill="lightblue" stroke="black" cx="336.75" cy="-57.98" rx="53.21" ry="53.21"/>
<text text-anchor="middle" x="336.75" y="-54.68" font-family="Times,serif" font-size="9.00">Стоять на месте</text>
</g>
<!-- Кооордината мяча X&#45;&gt;Стоять на месте -->
<g id="edge2" class="edge">
<title>Кооордината мяча X&#45;&gt;Стоять на месте</title>
<path fill="none" stroke="red" stroke-width="0.15" d="M420.91,-151.58C411.48,-141.21 394.92,-122.99 378.98,-105.45"/>
<polygon fill="red" stroke="red" stroke-width="0.15" points="381.68,-103.21 372.36,-98.17 376.5,-107.92 381.68,-103.21"/>
</g>
<!-- Движение вправо -->
<g id="node7" class="node">
<title>Движение вправо</title>
<ellipse fill="lightblue" stroke="black" cx="483.75" cy="-57.98" rx="57.98" ry="57.98"/>
<text text-anchor="middle" x="483.75" y="-54.68" font-family="Times,serif" font-size="9.00">Движение вправо</text>
</g>
<!-- Кооордината мяча X&#45;&gt;Движение вправо -->
<g id="edge3" class="edge">
<title>Кооордината мяча X&#45;&gt;Движение вправо</title>
<path fill="none" stroke="green" stroke-width="0.17" d="M433.44,-151.58C437.7,-143.74 444.4,-131.41 451.53,-118.29"/>
<polygon fill="green" stroke="green" stroke-width="0.17" points="454.44,-120.26 456.14,-109.8 448.29,-116.92 454.44,-120.26"/>
</g>
<!-- Коррдината мяча Y -->
<g id="node2" class="node">
<title>Коррдината мяча Y</title>
<polygon fill="lightgray" stroke="black" points="584.88,-170.47 494.62,-170.47 494.62,-151.97 584.88,-151.97 584.88,-170.47"/>
<text text-anchor="middle" x="539.75" y="-157.92" font-family="Times,serif" font-size="9.00">Коррдината мяча Y</text>
</g>
<!-- Коррдината мяча Y&#45;&gt;Движение влево -->
<g id="edge4" class="edge">
<title>Коррдината мяча Y&#45;&gt;Движение влево</title>
<path fill="none" stroke="green" stroke-width="0.37" d="M494.22,-153.29C421.09,-142.06 284.57,-120.67 274.75,-115.97 268.44,-112.94 262.29,-109.11 256.45,-104.86"/>
<polygon fill="green" stroke="green" stroke-width="0.37" points="258.62,-102.12 248.57,-98.73 254.32,-107.64 258.62,-102.12"/>
</g>
<!-- Коррдината мяча Y&#45;&gt;Стоять на месте -->
<g id="edge5" class="edge">
<title>Коррдината мяча Y&#45;&gt;Стоять на месте</title>
<path fill="none" stroke="green" stroke-width="0.14" d="M508.18,-151.47C482.72,-143.81 446.41,-131.49 416.75,-115.97 406.48,-110.59 396.03,-104.05 386.21,-97.35"/>
<polygon fill="green" stroke="green" stroke-width="0.14" points="388.5,-94.68 378.3,-91.82 384.49,-100.42 388.5,-94.68"/>
</g>
<!-- Коррдината мяча Y&#45;&gt;Движение вправо -->
<g id="edge6" class="edge">
<title>Коррдината мяча Y&#45;&gt;Движение вправо</title>
<path fill="none" stroke="green" stroke-width="0.19" d="M534.98,-151.58C530.59,-143.66 523.68,-131.17 516.34,-117.89"/>
<polygon fill="green" stroke="green" stroke-width="0.19" points="519.51,-116.4 511.61,-109.34 513.38,-119.79 519.51,-116.4"/>
</g>
<!-- Разница между X шарика и X платформы -->
<g id="node3" class="node">
<title>Разница между X шарика и X платформы</title>
<polygon fill="lightgray" stroke="black" points="173.5,-170.47 0,-170.47 0,-151.97 173.5,-151.97 173.5,-170.47"/>
<text text-anchor="middle" x="86.75" y="-157.92" font-family="Times,serif" font-size="9.00">Разница между X шарика и X платформы</text>
</g>
<!-- Разница между X шарика и X платформы&#45;&gt;Движение влево -->
<g id="edge7" class="edge">
<title>Разница между X шарика и X платформы&#45;&gt;Движение влево</title>
<path fill="none" stroke="red" stroke-width="0.32" d="M97.32,-151.58C111.37,-140.11 137.15,-119.07 160.59,-99.93"/>
<polygon fill="red" stroke="red" stroke-width="0.32" points="162.52,-102.88 168.05,-93.84 158.09,-97.45 162.52,-102.88"/>
</g>
<!-- Разница между X шарика и X платформы&#45;&gt;Стоять на месте -->
<g id="edge8" class="edge">
<title>Разница между X шарика и X платформы&#45;&gt;Стоять на месте</title>
<path fill="none" stroke="green" stroke-width="0.12" d="M162.18,-151.49C197.84,-145.15 240.08,-134.33 274.75,-115.97 281.06,-112.62 287.21,-108.49 293.04,-103.98"/>
<polygon fill="green" stroke="green" stroke-width="0.12" points="295.13,-106.79 300.65,-97.74 290.69,-101.38 295.13,-106.79"/>
</g>
<!-- Разница между X шарика и X платформы&#45;&gt;Движение вправо -->
<g id="edge9" class="edge">
<title>Разница между X шарика и X платформы&#45;&gt;Движение вправо</title>
<path fill="none" stroke="green" stroke-width="0.44" d="M170.27,-151.49C260.59,-141.67 394.67,-125.8 416.75,-115.97 422.94,-113.21 428.99,-109.7 434.77,-105.78"/>
<polygon fill="green" stroke="green" stroke-width="0.44" points="436.46,-108.88 442.49,-100.17 432.34,-103.22 436.46,-108.88"/>
</g>
<!-- Разница между Y шарика и Y платформы -->
<g id="node4" class="node">
<title>Разница между Y шарика и Y платформы</title>
<polygon fill="lightgray" stroke="black" points="363.75,-170.47 191.75,-170.47 191.75,-151.97 363.75,-151.97 363.75,-170.47"/>
<text text-anchor="middle" x="277.75" y="-157.92" font-family="Times,serif" font-size="9.00">Разница между Y шарика и Y платформы</text>
</g>
<!-- Разница между Y шарика и Y платформы&#45;&gt;Движение влево -->
<g id="edge10" class="edge">
<title>Разница между Y шарика и Y платформы&#45;&gt;Движение влево</title>
<path fill="none" stroke="red" stroke-width="0.69" d="M272.04,-151.58C266.16,-142.71 256.5,-128.1 246.56,-113.09"/>
<polygon fill="red" stroke="red" stroke-width="0.69" points="249.71,-111.51 241.28,-105.11 243.88,-115.38 249.71,-111.51"/>
</g>
<!-- Разница между Y шарика и Y платформы&#45;&gt;Стоять на месте -->
<g id="edge11" class="edge">
<title>Разница между Y шарика и Y платформы&#45;&gt;Стоять на месте</title>
<path fill="none" stroke="red" stroke-width="0.33" d="M282.78,-151.58C287.95,-142.71 296.46,-128.1 305.22,-113.09"/>
<polygon fill="red" stroke="red" stroke-width="0.33" points="308.11,-115.07 310.13,-104.66 302.07,-111.54 308.11,-115.07"/>
</g>
<!-- Разница между Y шарика и Y платформы&#45;&gt;Движение вправо -->
<g id="edge12" class="edge">
<title>Разница между Y шарика и Y платформы&#45;&gt;Движение вправо</title>
<path fill="none" stroke="green" stroke-width="0.27" d="M319.64,-151.48C348.18,-144.45 386.19,-132.92 416.75,-115.97 422.58,-112.73 428.37,-108.94 433.97,-104.88"/>
<polygon fill="green" stroke="green" stroke-width="0.27" points="435.84,-107.85 441.69,-99.01 431.61,-102.28 435.84,-107.85"/>
</g>
<!-- Стоять на месте&#45;&gt;Стоять на месте -->
<g id="edge13" class="edge">
<title>Стоять на месте&#45;&gt;Стоять на месте</title>
<path fill="none" stroke="red" stroke-width="0.37" d="M386.66,-77.04C398.87,-75.63 407.96,-69.27 407.96,-57.98 407.96,-50.04 403.47,-44.55 396.56,-41.49"/>
<polygon fill="red" stroke="red" stroke-width="0.37" points="397.77,-38.19 387.21,-39.07 396.01,-44.97 397.77,-38.19"/>
</g>
<!-- Движение вправо&#45;&gt;Движение вправо -->
<g id="edge14" class="edge">
<title>Движение вправо&#45;&gt;Движение вправо</title>
<path fill="none" stroke="red" stroke-width="0.23" d="M539.07,-76.77C551.05,-74.93 559.73,-68.67 559.73,-57.98 559.73,-50.47 555.44,-45.14 548.73,-42"/>
<polygon fill="red" stroke="red" stroke-width="0.23" points="549.99,-38.73 539.41,-39.3 548.04,-45.45 549.99,-38.73"/>
</g>
</g>
</svg>
