<?xml version="1.0" encoding="UTF-8" standalone="no"?>
<!DOCTYPE svg PUBLIC "-//W3C//DTD SVG 1.1//EN"
 "http://www.w3.org/Graphics/SVG/1.1/DTD/svg11.dtd">
<!-- Generated by graphviz version 9.0.0 (20230911.1827)
 -->
<!-- Pages: 1 -->
<svg width="601pt" height="178pt"
 viewBox="0.00 0.00 600.55 178.47" xmlns="http://www.w3.org/2000/svg" xmlns:xlink="http://www.w3.org/1999/xlink">
<g id="graph0" class="graph" transform="scale(1 1) rotate(0) translate(4 174.47)">
<polygon fill="white" stroke="none" points="-4,4 -4,-174.47 596.55,-174.47 596.55,4 -4,4"/>
<!-- Кооордината мяча X -->
<g id="node1" class="node">
<title>Кооордината мяча X</title>
<polygon fill="lightgray" stroke="black" points="102.18,-170.47 7.43,-170.47 7.43,-151.97 102.18,-151.97 102.18,-170.47"/>
<text text-anchor="middle" x="54.8" y="-157.92" font-family="Times,serif" font-size="9.00">Кооордината мяча X</text>
</g>
<!-- Движение влево -->
<g id="node5" class="node">
<title>Движение влево</title>
<ellipse fill="lightblue" stroke="black" cx="54.8" cy="-57.98" rx="54.8" ry="54.8"/>
<text text-anchor="middle" x="54.8" y="-54.68" font-family="Times,serif" font-size="9.00">Движение влево</text>
</g>
<!-- Кооордината мяча X&#45;&gt;Движение влево -->
<g id="edge1" class="edge">
<title>Кооордината мяча X&#45;&gt;Движение влево</title>
<path fill="none" stroke="green" stroke-width="0.28" d="M54.8,-151.58C54.8,-144.71 54.8,-134.38 54.8,-123.09"/>
<polygon fill="green" stroke="green" stroke-width="0.28" points="58.3,-123.41 54.8,-113.41 51.3,-123.41 58.3,-123.41"/>
</g>
<!-- Стоять на месте -->
<g id="node6" class="node">
<title>Стоять на месте</title>
<ellipse fill="lightblue" stroke="black" cx="332.8" cy="-57.98" rx="53.21" ry="53.21"/>
<text text-anchor="middle" x="332.8" y="-54.68" font-family="Times,serif" font-size="9.00">Стоять на месте</text>
</g>
<!-- Кооордината мяча X&#45;&gt;Стоять на месте -->
<g id="edge2" class="edge">
<title>Кооордината мяча X&#45;&gt;Стоять на месте</title>
<path fill="none" stroke="red" stroke-width="0.34" d="M102.53,-151.84C161.52,-141.26 255.98,-123.55 270.8,-115.97 277.01,-112.79 283.06,-108.82 288.79,-104.46"/>
<polygon fill="red" stroke="red" stroke-width="0.34" points="290.98,-107.19 296.54,-98.17 286.57,-101.76 290.98,-107.19"/>
</g>
<!-- Движение вправо -->
<g id="node7" class="node">
<title>Движение вправо</title>
<ellipse fill="lightblue" stroke="black" cx="185.8" cy="-57.98" rx="57.98" ry="57.98"/>
<text text-anchor="middle" x="185.8" y="-54.68" font-family="Times,serif" font-size="9.00">Движение вправо</text>
</g>
<!-- Кооордината мяча X&#45;&gt;Движение вправо -->
<g id="edge3" class="edge">
<title>Кооордината мяча X&#45;&gt;Движение вправо</title>
<path fill="none" stroke="green" stroke-width="0.3" d="M68.07,-151.61C81.2,-142.95 101.77,-129.05 118.8,-115.97 124.01,-111.97 129.36,-107.7 134.65,-103.38"/>
<polygon fill="green" stroke="green" stroke-width="0.3" points="136.52,-106.38 142,-97.31 132.06,-100.98 136.52,-106.38"/>
</g>
<!-- Коррдината мяча Y -->
<g id="node2" class="node">
<title>Коррдината мяча Y</title>
<polygon fill="lightgray" stroke="black" points="210.93,-170.47 120.68,-170.47 120.68,-151.97 210.93,-151.97 210.93,-170.47"/>
<text text-anchor="middle" x="165.8" y="-157.92" font-family="Times,serif" font-size="9.00">Коррдината мяча Y</text>
</g>
<!-- Коррдината мяча Y&#45;&gt;Движение влево -->
<g id="edge4" class="edge">
<title>Коррдината мяча Y&#45;&gt;Движение влево</title>
<path fill="none" stroke="red" stroke-width="0.41" d="M156.34,-151.58C144.34,-140.65 122.8,-120.99 102.63,-102.6"/>
<polygon fill="red" stroke="red" stroke-width="0.41" points="105.19,-100.2 95.45,-96.05 100.48,-105.38 105.19,-100.2"/>
</g>
<!-- Коррдината мяча Y&#45;&gt;Стоять на месте -->
<g id="edge5" class="edge">
<title>Коррдината мяча Y&#45;&gt;Стоять на месте</title>
<path fill="none" stroke="red" stroke-width="0.21" d="M193.39,-151.53C215.35,-143.94 246.34,-131.68 270.8,-115.97 276.72,-112.16 282.6,-107.78 288.26,-103.16"/>
<polygon fill="red" stroke="red" stroke-width="0.21" points="290.21,-106.1 295.57,-96.96 285.68,-100.76 290.21,-106.1"/>
</g>
<!-- Коррдината мяча Y&#45;&gt;Движение вправо -->
<g id="edge13" class="edge">
<title>Коррдината мяча Y&#45;&gt;Движение вправо</title>
<path fill="none" stroke="green" stroke-width="0.22" d="M167.51,-151.58C168.79,-145.07 170.69,-135.46 172.78,-124.87"/>
<polygon fill="green" stroke="green" stroke-width="0.22" points="176.18,-125.74 174.68,-115.25 169.31,-124.39 176.18,-125.74"/>
</g>
<!-- Разница между X шарика и X платформы -->
<g id="node3" class="node">
<title>Разница между X шарика и X платформы</title>
<polygon fill="lightgray" stroke="black" points="592.55,-170.47 419.05,-170.47 419.05,-151.97 592.55,-151.97 592.55,-170.47"/>
<text text-anchor="middle" x="505.8" y="-157.92" font-family="Times,serif" font-size="9.00">Разница между X шарика и X платформы</text>
</g>
<!-- Разница между X шарика и X платформы&#45;&gt;Стоять на месте -->
<g id="edge6" class="edge">
<title>Разница между X шарика и X платформы&#45;&gt;Стоять на месте</title>
<path fill="none" stroke="green" stroke-width="0.21" d="M491.05,-151.58C468.21,-138.22 423.12,-111.84 386.9,-90.64"/>
<polygon fill="green" stroke="green" stroke-width="0.21" points="389.05,-87.84 378.65,-85.81 385.52,-93.88 389.05,-87.84"/>
</g>
<!-- Разница между X шарика и X платформы&#45;&gt;Движение вправо -->
<g id="edge7" class="edge">
<title>Разница между X шарика и X платформы&#45;&gt;Движение вправо</title>
<path fill="none" stroke="green" stroke-width="0.17" d="M418.58,-152.3C373.25,-146.09 317.68,-135.14 270.8,-115.97 260.25,-111.65 249.64,-105.91 239.67,-99.74"/>
<polygon fill="green" stroke="green" stroke-width="0.17" points="241.61,-96.83 231.3,-94.37 237.82,-102.71 241.61,-96.83"/>
</g>
<!-- Разница между Y шарика и Y платформы -->
<g id="node4" class="node">
<title>Разница между Y шарика и Y платформы</title>
<polygon fill="lightgray" stroke="black" points="400.8,-170.47 228.8,-170.47 228.8,-151.97 400.8,-151.97 400.8,-170.47"/>
<text text-anchor="middle" x="314.8" y="-157.92" font-family="Times,serif" font-size="9.00">Разница между Y шарика и Y платформы</text>
</g>
<!-- Разница между Y шарика и Y платформы&#45;&gt;Движение влево -->
<g id="edge8" class="edge">
<title>Разница между Y шарика и Y платформы&#45;&gt;Движение влево</title>
<path fill="none" stroke="red" stroke-width="0.96" d="M234.87,-151.5C198.03,-145.19 154.64,-134.38 118.8,-115.97 112.72,-112.84 106.76,-109 101.08,-104.81"/>
<polygon fill="red" stroke="red" stroke-width="0.96" points="103.55,-102.3 93.53,-98.87 99.23,-107.8 103.55,-102.3"/>
</g>
<!-- Разница между Y шарика и Y платформы&#45;&gt;Стоять на месте -->
<g id="edge9" class="edge">
<title>Разница между Y шарика и Y платформы&#45;&gt;Стоять на месте</title>
<path fill="none" stroke="red" stroke-width="0.42" d="M316.34,-151.58C317.64,-144.26 319.63,-133.04 321.79,-120.9"/>
<polygon fill="red" stroke="red" stroke-width="0.42" points="325.21,-121.64 323.52,-111.18 318.32,-120.42 325.21,-121.64"/>
</g>
<!-- Разница между Y шарика и Y платформы&#45;&gt;Движение вправо -->
<g id="edge10" class="edge">
<title>Разница между Y шарика и Y платформы&#45;&gt;Движение вправо</title>
<path fill="none" stroke="red" stroke-width="0.76" d="M303.8,-151.58C289.58,-140.43 263.82,-120.21 239.98,-101.5"/>
<polygon fill="red" stroke="red" stroke-width="0.76" points="242.24,-98.83 232.21,-95.41 237.92,-104.33 242.24,-98.83"/>
</g>
<!-- Стоять на месте&#45;&gt;Стоять на месте -->
<g id="edge11" class="edge">
<title>Стоять на месте&#45;&gt;Стоять на месте</title>
<path fill="none" stroke="green" stroke-width="0.13" d="M382.71,-77.04C394.92,-75.63 404.01,-69.27 404.01,-57.98 404.01,-49.87 399.32,-44.3 392.14,-41.29"/>
<polygon fill="green" stroke="green" stroke-width="0.13" points="393.45,-38.01 382.9,-38.98 391.75,-44.8 393.45,-38.01"/>
</g>
<!-- Движение вправо&#45;&gt;Движение вправо -->
<g id="edge12" class="edge">
<title>Движение вправо&#45;&gt;Движение вправо</title>
<path fill="none" stroke="red" stroke-width="0.24" d="M241.12,-76.77C253.1,-74.93 261.78,-68.67 261.78,-57.98 261.78,-50.47 257.49,-45.14 250.78,-42"/>
<polygon fill="red" stroke="red" stroke-width="0.24" points="252.05,-38.73 241.47,-39.3 250.09,-45.45 252.05,-38.73"/>
</g>
</g>
</svg>
