<?xml version="1.0" encoding="UTF-8" standalone="no"?>
<!DOCTYPE svg PUBLIC "-//W3C//DTD SVG 1.1//EN"
 "http://www.w3.org/Graphics/SVG/1.1/DTD/svg11.dtd">
<!-- Generated by graphviz version 9.0.0 (20230911.1827)
 -->
<!-- Pages: 1 -->
<svg width="593pt" height="178pt"
 viewBox="0.00 0.00 592.75 178.47" xmlns="http://www.w3.org/2000/svg" xmlns:xlink="http://www.w3.org/1999/xlink">
<g id="graph0" class="graph" transform="scale(1 1) rotate(0) translate(4 174.47)">
<polygon fill="white" stroke="none" points="-4,4 -4,-174.47 588.75,-174.47 588.75,4 -4,4"/>
<!-- Кооордината мяча X -->
<g id="node1" class="node">
<title>Кооордината мяча X</title>
<polygon fill="lightgray" stroke="black" points="284.38,-170.47 189.62,-170.47 189.62,-151.97 284.38,-151.97 284.38,-170.47"/>
<text text-anchor="middle" x="237" y="-157.92" font-family="Times,serif" font-size="9.00">Кооордината мяча X</text>
</g>
<!-- Движение влево -->
<g id="node5" class="node">
<title>Движение влево</title>
<ellipse fill="lightblue" stroke="black" cx="166" cy="-57.98" rx="54.8" ry="54.8"/>
<text text-anchor="middle" x="166" y="-54.68" font-family="Times,serif" font-size="9.00">Движение влево</text>
</g>
<!-- Кооордината мяча X&#45;&gt;Движение влево -->
<g id="edge1" class="edge">
<title>Кооордината мяча X&#45;&gt;Движение влево</title>
<path fill="none" stroke="green" stroke-width="0.42" d="M230.95,-151.58C224.55,-142.47 213.91,-127.3 203.08,-111.85"/>
<polygon fill="green" stroke="green" stroke-width="0.42" points="206.03,-109.96 197.42,-103.78 200.3,-113.98 206.03,-109.96"/>
</g>
<!-- Стоять на месте -->
<g id="node6" class="node">
<title>Стоять на месте</title>
<ellipse fill="lightblue" stroke="black" cx="292" cy="-57.98" rx="53.21" ry="53.21"/>
<text text-anchor="middle" x="292" y="-54.68" font-family="Times,serif" font-size="9.00">Стоять на месте</text>
</g>
<!-- Кооордината мяча X&#45;&gt;Стоять на месте -->
<g id="edge2" class="edge">
<title>Кооордината мяча X&#45;&gt;Стоять на месте</title>
<path fill="none" stroke="red" stroke-width="0.33" d="M241.69,-151.58C246.38,-142.95 254.02,-128.89 261.94,-114.31"/>
<polygon fill="red" stroke="red" stroke-width="0.33" points="264.95,-116.1 266.65,-105.64 258.8,-112.75 264.95,-116.1"/>
</g>
<!-- Движение вправо -->
<g id="node7" class="node">
<title>Движение вправо</title>
<ellipse fill="lightblue" stroke="black" cx="439" cy="-57.98" rx="57.98" ry="57.98"/>
<text text-anchor="middle" x="439" y="-54.68" font-family="Times,serif" font-size="9.00">Движение вправо</text>
</g>
<!-- Кооордината мяча X&#45;&gt;Движение вправо -->
<g id="edge3" class="edge">
<title>Кооордината мяча X&#45;&gt;Движение вправо</title>
<path fill="none" stroke="red" stroke-width="0.22" d="M276.78,-151.51C304.59,-144.41 341.98,-132.78 372,-115.97 377.82,-112.71 383.6,-108.9 389.19,-104.83"/>
<polygon fill="red" stroke="red" stroke-width="0.22" points="391.13,-107.75 396.96,-98.91 386.89,-102.18 391.13,-107.75"/>
</g>
<!-- Коррдината мяча Y -->
<g id="node2" class="node">
<title>Коррдината мяча Y</title>
<polygon fill="lightgray" stroke="black" points="393.12,-170.47 302.88,-170.47 302.88,-151.97 393.12,-151.97 393.12,-170.47"/>
<text text-anchor="middle" x="348" y="-157.92" font-family="Times,serif" font-size="9.00">Коррдината мяча Y</text>
</g>
<!-- Коррдината мяча Y&#45;&gt;Движение влево -->
<g id="edge4" class="edge">
<title>Коррдината мяча Y&#45;&gt;Движение влево</title>
<path fill="none" stroke="red" stroke-width="0.44" d="M315.24,-151.49C290.7,-144.13 256.88,-132.19 230,-115.97 224.1,-112.4 218.23,-108.26 212.58,-103.87"/>
<polygon fill="red" stroke="red" stroke-width="0.44" points="214.98,-101.3 205.01,-97.71 210.56,-106.73 214.98,-101.3"/>
</g>
<!-- Коррдината мяча Y&#45;&gt;Стоять на месте -->
<g id="edge5" class="edge">
<title>Коррдината мяча Y&#45;&gt;Стоять на месте</title>
<path fill="none" stroke="red" stroke-width="0.15" d="M343.23,-151.58C338.41,-142.87 330.53,-128.63 322.38,-113.9"/>
<polygon fill="red" stroke="red" stroke-width="0.15" points="325.58,-112.46 317.68,-105.4 319.46,-115.85 325.58,-112.46"/>
</g>
<!-- Коррдината мяча Y&#45;&gt;Движение вправо -->
<g id="edge12" class="edge">
<title>Коррдината мяча Y&#45;&gt;Движение вправо</title>
<path fill="none" stroke="green" stroke-width="0.17" d="M355.76,-151.58C364.41,-141.96 379.11,-125.61 393.78,-109.29"/>
<polygon fill="green" stroke="green" stroke-width="0.17" points="396.23,-111.79 400.32,-102.02 391.03,-107.11 396.23,-111.79"/>
</g>
<!-- Разница между X шарика и X платформы -->
<g id="node3" class="node">
<title>Разница между X шарика и X платформы</title>
<polygon fill="lightgray" stroke="black" points="584.75,-170.47 411.25,-170.47 411.25,-151.97 584.75,-151.97 584.75,-170.47"/>
<text text-anchor="middle" x="498" y="-157.92" font-family="Times,serif" font-size="9.00">Разница между X шарика и X платформы</text>
</g>
<!-- Разница между X шарика и X платформы&#45;&gt;Стоять на месте -->
<g id="edge6" class="edge">
<title>Разница между X шарика и X платформы&#45;&gt;Стоять на месте</title>
<path fill="none" stroke="red" stroke-width="0.18" d="M465.38,-151.51C439.31,-143.91 402.26,-131.65 372,-115.97 361.81,-110.68 351.46,-104.24 341.72,-97.61"/>
<polygon fill="red" stroke="red" stroke-width="0.18" points="343.77,-94.78 333.57,-91.92 339.76,-100.52 343.77,-94.78"/>
</g>
<!-- Разница между X шарика и X платформы&#45;&gt;Движение вправо -->
<g id="edge7" class="edge">
<title>Разница между X шарика и X платформы&#45;&gt;Движение вправо</title>
<path fill="none" stroke="green" stroke-width="0.41" d="M492.97,-151.58C488.31,-143.58 480.93,-130.92 473.1,-117.5"/>
<polygon fill="green" stroke="green" stroke-width="0.41" points="476.29,-116.02 468.24,-109.14 470.25,-119.55 476.29,-116.02"/>
</g>
<!-- Разница между Y шарика и Y платформы -->
<g id="node4" class="node">
<title>Разница между Y шарика и Y платформы</title>
<polygon fill="lightgray" stroke="black" points="172,-170.47 0,-170.47 0,-151.97 172,-151.97 172,-170.47"/>
<text text-anchor="middle" x="86" y="-157.92" font-family="Times,serif" font-size="9.00">Разница между Y шарика и Y платформы</text>
</g>
<!-- Разница между Y шарика и Y платформы&#45;&gt;Движение влево -->
<g id="edge8" class="edge">
<title>Разница между Y шарика и Y платформы&#45;&gt;Движение влево</title>
<path fill="none" stroke="red" stroke-width="0.88" d="M92.82,-151.58C100.28,-142.14 112.87,-126.21 125.52,-110.2"/>
<polygon fill="red" stroke="red" stroke-width="0.88" points="128.24,-112.41 131.7,-102.39 122.75,-108.07 128.24,-112.41"/>
</g>
<!-- Разница между Y шарика и Y платформы&#45;&gt;Стоять на месте -->
<g id="edge9" class="edge">
<title>Разница между Y шарика и Y платформы&#45;&gt;Стоять на месте</title>
<path fill="none" stroke="red" stroke-width="0.26" d="M132.23,-151.52C161.57,-144.71 199.6,-133.4 230,-115.97 236.19,-112.42 242.27,-108.15 248.07,-103.56"/>
<polygon fill="red" stroke="red" stroke-width="0.26" points="250.02,-106.49 255.47,-97.4 245.55,-101.11 250.02,-106.49"/>
</g>
<!-- Стоять на месте&#45;&gt;Стоять на месте -->
<g id="edge10" class="edge">
<title>Стоять на месте&#45;&gt;Стоять на месте</title>
<path fill="none" stroke="green" stroke-width="0.15" stroke-dasharray="1,5" d="M341.91,-77.04C354.12,-75.63 363.21,-69.27 363.21,-57.98 363.21,-50.04 358.72,-44.55 351.81,-41.49"/>
<polygon fill="green" stroke="green" stroke-width="0.15" points="352.7,-38.11 342.14,-38.99 350.94,-44.88 352.7,-38.11"/>
</g>
<!-- Движение вправо&#45;&gt;Движение вправо -->
<g id="edge11" class="edge">
<title>Движение вправо&#45;&gt;Движение вправо</title>
<path fill="none" stroke="red" stroke-width="0.39" d="M494.32,-76.77C506.3,-74.93 514.98,-68.67 514.98,-57.98 514.98,-50.64 510.88,-45.38 504.42,-42.22"/>
<polygon fill="red" stroke="red" stroke-width="0.39" points="505.47,-38.88 494.89,-39.37 503.47,-45.58 505.47,-38.88"/>
</g>
</g>
</svg>
