<?xml version="1.0" encoding="UTF-8" standalone="no"?>
<!DOCTYPE svg PUBLIC "-//W3C//DTD SVG 1.1//EN"
 "http://www.w3.org/Graphics/SVG/1.1/DTD/svg11.dtd">
<!-- Generated by graphviz version 9.0.0 (20230911.1827)
 -->
<!-- Pages: 1 -->
<svg width="593pt" height="392pt"
 viewBox="0.00 0.00 593.12 392.24" xmlns="http://www.w3.org/2000/svg" xmlns:xlink="http://www.w3.org/1999/xlink">
<g id="graph0" class="graph" transform="scale(1 1) rotate(0) translate(4 388.24)">
<polygon fill="white" stroke="none" points="-4,4 -4,-388.24 589.12,-388.24 589.12,4 -4,4"/>
<!-- Кооордината мяча X -->
<g id="node1" class="node">
<title>Кооордината мяча X</title>
<polygon fill="lightgray" stroke="black" points="94.75,-384.24 0,-384.24 0,-365.74 94.75,-365.74 94.75,-384.24"/>
<text text-anchor="middle" x="47.38" y="-371.69" font-family="Times,serif" font-size="9.00">Кооордината мяча X</text>
</g>
<!-- Движение влево -->
<g id="node5" class="node">
<title>Движение влево</title>
<ellipse fill="lightblue" stroke="black" cx="130.38" cy="-271.76" rx="54.8" ry="54.8"/>
<text text-anchor="middle" x="130.38" y="-268.46" font-family="Times,serif" font-size="9.00">Движение влево</text>
</g>
<!-- Кооордината мяча X&#45;&gt;Движение влево -->
<g id="edge1" class="edge">
<title>Кооордината мяча X&#45;&gt;Движение влево</title>
<path fill="none" stroke="green" stroke-width="0.46" d="M54.45,-365.36C62.4,-355.66 75.97,-339.12 89.45,-322.67"/>
<polygon fill="green" stroke="green" stroke-width="0.46" points="91.96,-325.13 95.59,-315.18 86.55,-320.69 91.96,-325.13"/>
</g>
<!-- Стоять на месте -->
<g id="node6" class="node">
<title>Стоять на месте</title>
<ellipse fill="lightblue" stroke="black" cx="299.38" cy="-53.21" rx="53.21" ry="53.21"/>
<text text-anchor="middle" x="299.38" y="-49.91" font-family="Times,serif" font-size="9.00">Стоять на месте</text>
</g>
<!-- Кооордината мяча X&#45;&gt;Стоять на месте -->
<g id="edge2" class="edge">
<title>Кооордината мяча X&#45;&gt;Стоять на месте</title>
<path fill="none" stroke="red" stroke-width="0.25" d="M46.09,-365.57C42.71,-340.39 35.78,-264.34 66.38,-213.77 106.45,-147.56 185.7,-102.33 240.58,-77.38"/>
<polygon fill="red" stroke="red" stroke-width="0.25" points="241.78,-80.68 249.49,-73.41 238.93,-74.28 241.78,-80.68"/>
</g>
<!-- Движение вправо -->
<g id="node7" class="node">
<title>Движение вправо</title>
<ellipse fill="lightblue" stroke="black" cx="299.38" cy="-271.76" rx="57.98" ry="57.98"/>
<text text-anchor="middle" x="299.38" y="-268.46" font-family="Times,serif" font-size="9.00">Движение вправо</text>
</g>
<!-- Кооордината мяча X&#45;&gt;Движение вправо -->
<g id="edge3" class="edge">
<title>Кооордината мяча X&#45;&gt;Движение вправо</title>
<path fill="none" stroke="red" stroke-width="0.27" stroke-dasharray="1,5" d="M83.74,-365.27C113.93,-357.5 157.72,-345.01 194.38,-329.74 209.75,-323.33 225.82,-315.34 240.63,-307.38"/>
<polygon fill="red" stroke="red" stroke-width="0.27" points="242.21,-310.5 249.31,-302.64 238.86,-304.36 242.21,-310.5"/>
</g>
<!-- Коррдината мяча Y -->
<g id="node2" class="node">
<title>Коррдината мяча Y</title>
<polygon fill="lightgray" stroke="black" points="203.5,-384.24 113.25,-384.24 113.25,-365.74 203.5,-365.74 203.5,-384.24"/>
<text text-anchor="middle" x="158.38" y="-371.69" font-family="Times,serif" font-size="9.00">Коррдината мяча Y</text>
</g>
<!-- Коррдината мяча Y&#45;&gt;Движение влево -->
<g id="edge4" class="edge">
<title>Коррдината мяча Y&#45;&gt;Движение влево</title>
<path fill="none" stroke="red" stroke-width="0.22" d="M155.99,-365.36C153.96,-358.04 150.86,-346.82 147.5,-334.69"/>
<polygon fill="red" stroke="red" stroke-width="0.22" points="150.9,-333.85 144.86,-325.14 144.16,-335.71 150.9,-333.85"/>
</g>
<!-- Коррдината мяча Y&#45;&gt;Стоять на месте -->
<g id="edge5" class="edge">
<title>Коррдината мяча Y&#45;&gt;Стоять на месте</title>
<path fill="none" stroke="red" stroke-width="0.56" d="M166.87,-365.54C174.92,-357.11 186.88,-343.47 194.38,-329.74 220.37,-282.14 213.42,-264.59 232.38,-213.77 245.07,-179.76 260.7,-142.3 273.68,-112.23"/>
<polygon fill="red" stroke="red" stroke-width="0.56" points="276.87,-113.68 277.63,-103.11 270.45,-110.89 276.87,-113.68"/>
</g>
<!-- Коррдината мяча Y&#45;&gt;Движение вправо -->
<g id="edge13" class="edge">
<title>Коррдината мяча Y&#45;&gt;Движение вправо</title>
<path fill="none" stroke="red" stroke-width="0.37" d="M172.92,-365.24C187.08,-356.6 209.07,-342.8 227.38,-329.74 233.67,-325.25 240.17,-320.41 246.56,-315.52"/>
<polygon fill="red" stroke="red" stroke-width="0.37" points="248.36,-318.55 254.13,-309.67 244.08,-313.01 248.36,-318.55"/>
</g>
<!-- Разница между X шарика и X платформы -->
<g id="node3" class="node">
<title>Разница между X шарика и X платформы</title>
<polygon fill="lightgray" stroke="black" points="585.12,-384.24 411.62,-384.24 411.62,-365.74 585.12,-365.74 585.12,-384.24"/>
<text text-anchor="middle" x="498.38" y="-371.69" font-family="Times,serif" font-size="9.00">Разница между X шарика и X платформы</text>
</g>
<!-- Разница между X шарика и X платформы&#45;&gt;Стоять на месте -->
<g id="edge6" class="edge">
<title>Разница между X шарика и X платформы&#45;&gt;Стоять на месте</title>
<path fill="none" stroke="green" stroke-width="0.49" d="M495,-365.55C482.32,-334.4 435.47,-223.43 379.38,-142.42 368.95,-127.36 356.15,-112.16 343.88,-98.71"/>
<polygon fill="green" stroke="green" stroke-width="0.49" points="346.61,-96.51 337.24,-91.56 341.48,-101.27 346.61,-96.51"/>
</g>
<!-- Разница между X шарика и X платформы&#45;&gt;Движение вправо -->
<g id="edge7" class="edge">
<title>Разница между X шарика и X платформы&#45;&gt;Движение вправо</title>
<path fill="none" stroke="green" stroke-width="0.27" d="M481.41,-365.36C454.79,-351.82 401.92,-324.92 359.99,-303.59"/>
<polygon fill="green" stroke="green" stroke-width="0.27" points="361.81,-300.59 351.31,-299.18 358.63,-306.83 361.81,-300.59"/>
</g>
<!-- Разница между Y шарика и Y платформы -->
<g id="node4" class="node">
<title>Разница между Y шарика и Y платформы</title>
<polygon fill="lightgray" stroke="black" points="393.38,-384.24 221.38,-384.24 221.38,-365.74 393.38,-365.74 393.38,-384.24"/>
<text text-anchor="middle" x="307.38" y="-371.69" font-family="Times,serif" font-size="9.00">Разница между Y шарика и Y платформы</text>
</g>
<!-- Разница между Y шарика и Y платформы&#45;&gt;Движение влево -->
<g id="edge8" class="edge">
<title>Разница между Y шарика и Y платформы&#45;&gt;Движение влево</title>
<path fill="none" stroke="red" stroke-width="0.97" d="M292.28,-365.36C269.26,-352.19 224.16,-326.4 187.4,-305.37"/>
<polygon fill="red" stroke="red" stroke-width="0.97" points="189.45,-302.52 179.04,-300.59 185.98,-308.59 189.45,-302.52"/>
</g>
<!-- Разница между Y шарика и Y платформы&#45;&gt;Стоять на месте -->
<g id="edge9" class="edge">
<title>Разница между Y шарика и Y платформы&#45;&gt;Стоять на месте</title>
<path fill="none" stroke="green" stroke-width="0.15" d="M336.9,-365.3C354.03,-358.57 374.18,-347.36 384.38,-329.74 410.19,-285.13 396.86,-263.78 384.38,-213.77 374.75,-175.25 353.88,-135.83 335.23,-105.81"/>
<polygon fill="green" stroke="green" stroke-width="0.15" points="338.21,-103.98 329.91,-97.4 332.3,-107.72 338.21,-103.98"/>
</g>
<!-- Разница между Y шарика и Y платформы&#45;&gt;Движение вправо -->
<g id="edge10" class="edge">
<title>Разница между Y шарика и Y платформы&#45;&gt;Движение вправо</title>
<path fill="none" stroke="red" stroke-width="0.11" d="M306.69,-365.36C306.19,-359.05 305.47,-349.86 304.66,-339.67"/>
<polygon fill="red" stroke="red" stroke-width="0.11" points="308.16,-339.53 303.89,-329.84 301.18,-340.08 308.16,-339.53"/>
</g>
<!-- Стоять на месте&#45;&gt;Стоять на месте -->
<g id="edge11" class="edge">
<title>Стоять на месте&#45;&gt;Стоять на месте</title>
<path fill="none" stroke="green" stroke-width="0.42" d="M349.29,-72.94C361.5,-71.48 370.58,-64.9 370.58,-53.21 370.58,-44.99 366.09,-39.3 359.18,-36.14"/>
<polygon fill="green" stroke="green" stroke-width="0.42" points="360.46,-32.86 349.9,-33.65 358.65,-39.62 360.46,-32.86"/>
</g>
<!-- Движение вправо&#45;&gt;Движение вправо -->
<g id="edge12" class="edge">
<title>Движение вправо&#45;&gt;Движение вправо</title>
<path fill="none" stroke="red" stroke-width="0.38" stroke-dasharray="1,5" d="M354.7,-290.54C366.67,-288.71 375.36,-282.44 375.36,-271.76 375.36,-264.41 371.25,-259.16 364.8,-255.99"/>
<polygon fill="red" stroke="red" stroke-width="0.38" points="365.84,-252.65 355.25,-253.14 363.83,-259.36 365.84,-252.65"/>
</g>
<!-- 85 -->
<g id="node8" class="node">
<title>85</title>
<ellipse fill="white" stroke="black" cx="299.38" cy="-160.1" rx="17.68" ry="17.68"/>
<text text-anchor="middle" x="299.38" y="-156.8" font-family="Times,serif" font-size="9.00">85</text>
</g>
<!-- Движение вправо&#45;&gt;85 -->
<g id="edge14" class="edge">
<title>Движение вправо&#45;&gt;85</title>
<path fill="none" stroke="green" stroke-width="0.45" d="M292.63,-213.68C292.67,-204.73 292.95,-195.86 293.47,-188.02"/>
<polygon fill="green" stroke="green" stroke-width="0.45" points="296.96,-188.34 294.35,-178.08 289.98,-187.73 296.96,-188.34"/>
</g>
<!-- 85&#45;&gt;Стоять на месте -->
<g id="edge16" class="edge">
<title>85&#45;&gt;Стоять на месте</title>
<path fill="none" stroke="red" stroke-width="0.34" d="M299.38,-142.25C299.38,-135.18 299.38,-126.47 299.38,-117.32"/>
<polygon fill="red" stroke="red" stroke-width="0.34" points="302.88,-117.37 299.38,-107.37 295.88,-117.37 302.88,-117.37"/>
</g>
<!-- 85&#45;&gt;Движение вправо -->
<g id="edge15" class="edge">
<title>85&#45;&gt;Движение вправо</title>
<path fill="none" stroke="red" stroke-width="0.25" d="M304.34,-177.4C305.18,-184.68 305.72,-193.8 305.97,-203.46"/>
<polygon fill="red" stroke="red" stroke-width="0.25" points="302.47,-203.35 306.11,-213.3 309.46,-203.24 302.47,-203.35"/>
</g>
</g>
</svg>
