<?xml version="1.0" encoding="UTF-8" standalone="no"?>
<!DOCTYPE svg PUBLIC "-//W3C//DTD SVG 1.1//EN"
 "http://www.w3.org/Graphics/SVG/1.1/DTD/svg11.dtd">
<!-- Generated by graphviz version 9.0.0 (20230911.1827)
 -->
<!-- Pages: 1 -->
<svg width="601pt" height="250pt"
 viewBox="0.00 0.00 600.55 249.82" xmlns="http://www.w3.org/2000/svg" xmlns:xlink="http://www.w3.org/1999/xlink">
<g id="graph0" class="graph" transform="scale(1 1) rotate(0) translate(4 245.82)">
<polygon fill="white" stroke="none" points="-4,4 -4,-245.82 596.55,-245.82 596.55,4 -4,4"/>
<!-- Кооордината мяча X -->
<g id="node1" class="node">
<title>Кооордината мяча X</title>
<polygon fill="lightgray" stroke="black" points="102.18,-241.82 7.43,-241.82 7.43,-223.32 102.18,-223.32 102.18,-241.82"/>
<text text-anchor="middle" x="54.8" y="-229.27" font-family="Times,serif" font-size="9.00">Кооордината мяча X</text>
</g>
<!-- Движение влево -->
<g id="node5" class="node">
<title>Движение влево</title>
<ellipse fill="lightblue" stroke="black" cx="54.8" cy="-129.34" rx="54.8" ry="54.8"/>
<text text-anchor="middle" x="54.8" y="-126.04" font-family="Times,serif" font-size="9.00">Движение влево</text>
</g>
<!-- Кооордината мяча X&#45;&gt;Движение влево -->
<g id="edge1" class="edge">
<title>Кооордината мяча X&#45;&gt;Движение влево</title>
<path fill="none" stroke="green" stroke-width="0.29" d="M54.8,-222.94C54.8,-216.06 54.8,-205.74 54.8,-194.45"/>
<polygon fill="green" stroke="green" stroke-width="0.29" points="58.3,-194.78 54.8,-184.78 51.3,-194.78 58.3,-194.78"/>
</g>
<!-- Стоять на месте -->
<g id="node6" class="node">
<title>Стоять на месте</title>
<ellipse fill="lightblue" stroke="black" cx="332.8" cy="-129.34" rx="53.21" ry="53.21"/>
<text text-anchor="middle" x="332.8" y="-126.04" font-family="Times,serif" font-size="9.00">Стоять на месте</text>
</g>
<!-- Кооордината мяча X&#45;&gt;Стоять на месте -->
<g id="edge2" class="edge">
<title>Кооордината мяча X&#45;&gt;Стоять на месте</title>
<path fill="none" stroke="red" stroke-width="0.37" d="M102.53,-223.19C161.52,-212.62 255.98,-194.9 270.8,-187.32 277.01,-184.15 283.06,-180.18 288.79,-175.82"/>
<polygon fill="red" stroke="red" stroke-width="0.37" points="290.95,-178.57 296.51,-169.55 286.54,-173.14 290.95,-178.57"/>
</g>
<!-- Движение вправо -->
<g id="node7" class="node">
<title>Движение вправо</title>
<ellipse fill="lightblue" stroke="black" cx="185.8" cy="-129.34" rx="57.98" ry="57.98"/>
<text text-anchor="middle" x="185.8" y="-126.04" font-family="Times,serif" font-size="9.00">Движение вправо</text>
</g>
<!-- Кооордината мяча X&#45;&gt;Движение вправо -->
<g id="edge3" class="edge">
<title>Кооордината мяча X&#45;&gt;Движение вправо</title>
<path fill="none" stroke="red" stroke-width="0.41" stroke-dasharray="1,5" d="M68.07,-222.96C81.2,-214.3 101.77,-200.4 118.8,-187.32 123.89,-183.41 129.11,-179.26 134.28,-175.03"/>
<polygon fill="red" stroke="red" stroke-width="0.41" points="136.39,-177.83 141.87,-168.77 131.94,-172.43 136.39,-177.83"/>
</g>
<!-- Коррдината мяча Y -->
<g id="node2" class="node">
<title>Коррдината мяча Y</title>
<polygon fill="lightgray" stroke="black" points="210.93,-241.82 120.68,-241.82 120.68,-223.32 210.93,-223.32 210.93,-241.82"/>
<text text-anchor="middle" x="165.8" y="-229.27" font-family="Times,serif" font-size="9.00">Коррдината мяча Y</text>
</g>
<!-- Коррдината мяча Y&#45;&gt;Движение влево -->
<g id="edge4" class="edge">
<title>Коррдината мяча Y&#45;&gt;Движение влево</title>
<path fill="none" stroke="red" stroke-width="0.45" d="M156.34,-222.94C144.34,-212 122.8,-192.35 102.63,-173.96"/>
<polygon fill="red" stroke="red" stroke-width="0.45" points="105.23,-171.59 95.48,-167.44 100.52,-176.77 105.23,-171.59"/>
</g>
<!-- Коррдината мяча Y&#45;&gt;Стоять на месте -->
<g id="edge5" class="edge">
<title>Коррдината мяча Y&#45;&gt;Стоять на месте</title>
<path fill="none" stroke="red" stroke-width="0.31" d="M193.39,-222.88C215.35,-215.3 246.34,-203.04 270.8,-187.32 276.59,-183.6 282.34,-179.33 287.87,-174.83"/>
<polygon fill="red" stroke="red" stroke-width="0.31" points="290.08,-177.55 295.45,-168.42 285.55,-172.21 290.08,-177.55"/>
</g>
<!-- Коррдината мяча Y&#45;&gt;Движение вправо -->
<g id="edge13" class="edge">
<title>Коррдината мяча Y&#45;&gt;Движение вправо</title>
<path fill="none" stroke="red" stroke-width="0.19" d="M167.51,-222.94C168.79,-216.42 170.69,-206.82 172.78,-196.22"/>
<polygon fill="red" stroke="red" stroke-width="0.19" points="176.19,-197.05 174.69,-186.56 169.32,-195.7 176.19,-197.05"/>
</g>
<!-- Разница между X шарика и X платформы -->
<g id="node3" class="node">
<title>Разница между X шарика и X платформы</title>
<polygon fill="lightgray" stroke="black" points="592.55,-241.82 419.05,-241.82 419.05,-223.32 592.55,-223.32 592.55,-241.82"/>
<text text-anchor="middle" x="505.8" y="-229.27" font-family="Times,serif" font-size="9.00">Разница между X шарика и X платформы</text>
</g>
<!-- Разница между X шарика и X платформы&#45;&gt;Стоять на месте -->
<g id="edge6" class="edge">
<title>Разница между X шарика и X платформы&#45;&gt;Стоять на месте</title>
<path fill="none" stroke="green" stroke-width="0.4" d="M491.05,-222.94C468.3,-209.63 423.5,-183.41 387.36,-162.26"/>
<polygon fill="green" stroke="green" stroke-width="0.4" points="389.29,-159.34 378.89,-157.31 385.75,-165.38 389.29,-159.34"/>
</g>
<!-- Разница между X шарика и X платформы&#45;&gt;Движение вправо -->
<g id="edge7" class="edge">
<title>Разница между X шарика и X платформы&#45;&gt;Движение вправо</title>
<path fill="none" stroke="red" stroke-width="0.22" d="M418.58,-223.66C373.25,-217.45 317.68,-206.5 270.8,-187.32 260.25,-183 249.64,-177.27 239.67,-171.1"/>
<polygon fill="red" stroke="red" stroke-width="0.22" points="241.68,-168.22 231.37,-165.77 237.89,-174.11 241.68,-168.22"/>
</g>
<!-- Разница между Y шарика и Y платформы -->
<g id="node4" class="node">
<title>Разница между Y шарика и Y платформы</title>
<polygon fill="lightgray" stroke="black" points="400.8,-241.82 228.8,-241.82 228.8,-223.32 400.8,-223.32 400.8,-241.82"/>
<text text-anchor="middle" x="314.8" y="-229.27" font-family="Times,serif" font-size="9.00">Разница между Y шарика и Y платформы</text>
</g>
<!-- Разница между Y шарика и Y платформы&#45;&gt;Движение влево -->
<g id="edge8" class="edge">
<title>Разница между Y шарика и Y платформы&#45;&gt;Движение влево</title>
<path fill="none" stroke="red" stroke-width="0.89" d="M234.87,-222.86C198.03,-216.54 154.64,-205.74 118.8,-187.32 112.72,-184.2 106.76,-180.36 101.08,-176.16"/>
<polygon fill="red" stroke="red" stroke-width="0.89" points="103.48,-173.6 93.45,-170.17 99.15,-179.1 103.48,-173.6"/>
</g>
<!-- Разница между Y шарика и Y платформы&#45;&gt;Стоять на месте -->
<g id="edge9" class="edge">
<title>Разница между Y шарика и Y платформы&#45;&gt;Стоять на месте</title>
<path fill="none" stroke="red" stroke-width="0.23" d="M316.34,-222.94C317.65,-215.55 319.67,-204.17 321.86,-191.89"/>
<polygon fill="red" stroke="red" stroke-width="0.23" points="325.26,-192.72 323.57,-182.26 318.37,-191.49 325.26,-192.72"/>
</g>
<!-- Разница между Y шарика и Y платформы&#45;&gt;Движение вправо -->
<g id="edge10" class="edge">
<title>Разница между Y шарика и Y платформы&#45;&gt;Движение вправо</title>
<path fill="none" stroke="red" stroke-width="0.33" d="M303.8,-222.94C289.46,-211.68 263.36,-191.21 239.35,-172.36"/>
<polygon fill="red" stroke="red" stroke-width="0.33" points="241.73,-169.78 231.7,-166.36 237.41,-175.29 241.73,-169.78"/>
</g>
<!-- Стоять на месте&#45;&gt;Стоять на месте -->
<g id="edge11" class="edge">
<title>Стоять на месте&#45;&gt;Стоять на месте</title>
<path fill="none" stroke="green" stroke-width="0.25" d="M382.71,-148.39C394.92,-146.98 404.01,-140.63 404.01,-129.34 404.01,-121.4 399.52,-115.9 392.61,-112.85"/>
<polygon fill="green" stroke="green" stroke-width="0.25" points="393.63,-109.5 383.07,-110.38 391.88,-116.27 393.63,-109.5"/>
</g>
<!-- Движение вправо&#45;&gt;Движение вправо -->
<g id="edge12" class="edge">
<title>Движение вправо&#45;&gt;Движение вправо</title>
<path fill="none" stroke="red" stroke-width="0.34" stroke-dasharray="1,5" d="M241.12,-148.12C253.1,-146.29 261.78,-140.02 261.78,-129.34 261.78,-121.82 257.49,-116.5 250.78,-113.36"/>
<polygon fill="red" stroke="red" stroke-width="0.34" points="252.2,-110.13 241.62,-110.7 250.25,-116.85 252.2,-110.13"/>
</g>
<!-- 96 -->
<g id="node8" class="node">
<title>96</title>
<ellipse fill="white" stroke="black" cx="185.8" cy="-17.68" rx="17.68" ry="17.68"/>
<text text-anchor="middle" x="185.8" y="-14.38" font-family="Times,serif" font-size="9.00">96</text>
</g>
<!-- Движение вправо&#45;&gt;96 -->
<g id="edge14" class="edge">
<title>Движение вправо&#45;&gt;96</title>
<path fill="none" stroke="green" stroke-width="0.44" d="M179.06,-71.26C179.1,-62.2 179.38,-53.23 179.92,-45.33"/>
<polygon fill="green" stroke="green" stroke-width="0.44" points="183.38,-45.91 180.77,-35.64 176.4,-45.29 183.38,-45.91"/>
</g>
<!-- 96&#45;&gt;Движение вправо -->
<g id="edge15" class="edge">
<title>96&#45;&gt;Движение вправо</title>
<path fill="none" stroke="red" stroke-width="0.58" d="M190.77,-34.98C191.59,-42.11 192.12,-51 192.38,-60.43"/>
<polygon fill="red" stroke="red" stroke-width="0.58" points="188.88,-60.43 192.53,-70.38 195.88,-60.32 188.88,-60.43"/>
</g>
</g>
</svg>
