<?xml version="1.0" encoding="UTF-8" standalone="no"?>
<!DOCTYPE svg PUBLIC "-//W3C//DTD SVG 1.1//EN"
 "http://www.w3.org/Graphics/SVG/1.1/DTD/svg11.dtd">
<!-- Generated by graphviz version 9.0.0 (20230911.1827)
 -->
<!-- Pages: 1 -->
<svg width="593pt" height="178pt"
 viewBox="0.00 0.00 592.88 178.47" xmlns="http://www.w3.org/2000/svg" xmlns:xlink="http://www.w3.org/1999/xlink">
<g id="graph0" class="graph" transform="scale(1 1) rotate(0) translate(4 174.47)">
<polygon fill="white" stroke="none" points="-4,4 -4,-174.47 588.88,-174.47 588.88,4 -4,4"/>
<!-- Кооордината мяча X -->
<g id="node1" class="node">
<title>Кооордината мяча X</title>
<polygon fill="lightgray" stroke="black" points="476.12,-170.47 381.38,-170.47 381.38,-151.97 476.12,-151.97 476.12,-170.47"/>
<text text-anchor="middle" x="428.75" y="-157.92" font-family="Times,serif" font-size="9.00">Кооордината мяча X</text>
</g>
<!-- Движение влево -->
<g id="node5" class="node">
<title>Движение влево</title>
<ellipse fill="lightblue" stroke="black" cx="192.75" cy="-57.98" rx="54.8" ry="54.8"/>
<text text-anchor="middle" x="192.75" y="-54.68" font-family="Times,serif" font-size="9.00">Движение влево</text>
</g>
<!-- Кооордината мяча X&#45;&gt;Движение влево -->
<g id="edge1" class="edge">
<title>Кооордината мяча X&#45;&gt;Движение влево</title>
<path fill="none" stroke="green" stroke-width="0.52" d="M384.21,-151.49C352.69,-144.35 309.93,-132.68 274.75,-115.97 264.44,-111.07 254.01,-104.92 244.2,-98.49"/>
<polygon fill="green" stroke="green" stroke-width="0.52" points="246.29,-95.67 236.04,-92.97 242.37,-101.47 246.29,-95.67"/>
</g>
<!-- Стоять на месте -->
<g id="node6" class="node">
<title>Стоять на месте</title>
<ellipse fill="lightblue" stroke="black" cx="336.75" cy="-57.98" rx="53.21" ry="53.21"/>
<text text-anchor="middle" x="336.75" y="-54.68" font-family="Times,serif" font-size="9.00">Стоять на месте</text>
</g>
<!-- Кооордината мяча X&#45;&gt;Стоять на месте -->
<g id="edge2" class="edge">
<title>Кооордината мяча X&#45;&gt;Стоять на месте</title>
<path fill="none" stroke="red" stroke-width="0.42" d="M420.91,-151.58C411.48,-141.21 394.92,-122.99 378.98,-105.45"/>
<polygon fill="red" stroke="red" stroke-width="0.42" points="381.95,-103.51 372.63,-98.47 376.77,-108.22 381.95,-103.51"/>
</g>
<!-- Движение вправо -->
<g id="node7" class="node">
<title>Движение вправо</title>
<ellipse fill="lightblue" stroke="black" cx="483.75" cy="-57.98" rx="57.98" ry="57.98"/>
<text text-anchor="middle" x="483.75" y="-54.68" font-family="Times,serif" font-size="9.00">Движение вправо</text>
</g>
<!-- Кооордината мяча X&#45;&gt;Движение вправо -->
<g id="edge3" class="edge">
<title>Кооордината мяча X&#45;&gt;Движение вправо</title>
<path fill="none" stroke="green" stroke-width="0.2" d="M433.44,-151.58C437.7,-143.74 444.4,-131.41 451.53,-118.29"/>
<polygon fill="green" stroke="green" stroke-width="0.2" points="454.41,-120.31 456.11,-109.85 448.26,-116.97 454.41,-120.31"/>
</g>
<!-- Коррдината мяча Y -->
<g id="node2" class="node">
<title>Коррдината мяча Y</title>
<polygon fill="lightgray" stroke="black" points="584.88,-170.47 494.62,-170.47 494.62,-151.97 584.88,-151.97 584.88,-170.47"/>
<text text-anchor="middle" x="539.75" y="-157.92" font-family="Times,serif" font-size="9.00">Коррдината мяча Y</text>
</g>
<!-- Коррдината мяча Y&#45;&gt;Движение влево -->
<g id="edge4" class="edge">
<title>Коррдината мяча Y&#45;&gt;Движение влево</title>
<path fill="none" stroke="red" stroke-width="0.23" d="M494.28,-153.15C421.23,-141.73 284.84,-120.07 274.75,-115.97 264.07,-111.62 253.4,-105.69 243.46,-99.28"/>
<polygon fill="red" stroke="red" stroke-width="0.23" points="245.48,-96.42 235.22,-93.75 241.58,-102.23 245.48,-96.42"/>
</g>
<!-- Коррдината мяча Y&#45;&gt;Стоять на месте -->
<g id="edge5" class="edge">
<title>Коррдината мяча Y&#45;&gt;Стоять на месте</title>
<path fill="none" stroke="red" stroke-width="0.1" d="M508.18,-151.47C482.72,-143.81 446.41,-131.49 416.75,-115.97 406.48,-110.59 396.03,-104.05 386.21,-97.35"/>
<polygon fill="red" stroke="red" stroke-width="0.1" points="388.45,-94.65 378.25,-91.79 384.44,-100.39 388.45,-94.65"/>
</g>
<!-- Коррдината мяча Y&#45;&gt;Движение вправо -->
<g id="edge6" class="edge">
<title>Коррдината мяча Y&#45;&gt;Движение вправо</title>
<path fill="none" stroke="red" stroke-width="0.18" d="M534.98,-151.58C530.59,-143.66 523.68,-131.17 516.34,-117.89"/>
<polygon fill="red" stroke="red" stroke-width="0.18" points="519.5,-116.38 511.6,-109.33 513.38,-119.77 519.5,-116.38"/>
</g>
<!-- Разница между X шарика и X платформы -->
<g id="node3" class="node">
<title>Разница между X шарика и X платформы</title>
<polygon fill="lightgray" stroke="black" points="173.5,-170.47 0,-170.47 0,-151.97 173.5,-151.97 173.5,-170.47"/>
<text text-anchor="middle" x="86.75" y="-157.92" font-family="Times,serif" font-size="9.00">Разница между X шарика и X платформы</text>
</g>
<!-- Разница между X шарика и X платформы&#45;&gt;Движение влево -->
<g id="edge7" class="edge">
<title>Разница между X шарика и X платформы&#45;&gt;Движение влево</title>
<path fill="none" stroke="red" stroke-width="0.3" d="M95.79,-151.58C107.01,-140.86 127.01,-121.77 145.93,-103.7"/>
<polygon fill="red" stroke="red" stroke-width="0.3" points="148.24,-106.33 153.06,-96.89 143.41,-101.26 148.24,-106.33"/>
</g>
<!-- Разница между X шарика и X платформы&#45;&gt;Стоять на месте -->
<g id="edge8" class="edge">
<title>Разница между X шарика и X платформы&#45;&gt;Стоять на месте</title>
<path fill="none" stroke="red" stroke-width="0.24" d="M162.18,-151.49C197.84,-145.15 240.08,-134.33 274.75,-115.97 281.06,-112.62 287.21,-108.49 293.04,-103.98"/>
<polygon fill="red" stroke="red" stroke-width="0.24" points="294.98,-106.91 300.5,-97.87 290.54,-101.5 294.98,-106.91"/>
</g>
<!-- Разница между X шарика и X платформы&#45;&gt;Движение вправо -->
<g id="edge9" class="edge">
<title>Разница между X шарика и X платформы&#45;&gt;Движение вправо</title>
<path fill="none" stroke="green" stroke-width="0.28" d="M170.27,-151.49C260.59,-141.67 394.67,-125.8 416.75,-115.97 422.94,-113.21 428.99,-109.7 434.77,-105.78"/>
<polygon fill="green" stroke="green" stroke-width="0.28" points="436.65,-108.74 442.68,-100.03 432.53,-103.08 436.65,-108.74"/>
</g>
<!-- Разница между Y шарика и Y платформы -->
<g id="node4" class="node">
<title>Разница между Y шарика и Y платформы</title>
<polygon fill="lightgray" stroke="black" points="363.75,-170.47 191.75,-170.47 191.75,-151.97 363.75,-151.97 363.75,-170.47"/>
<text text-anchor="middle" x="277.75" y="-157.92" font-family="Times,serif" font-size="9.00">Разница между Y шарика и Y платформы</text>
</g>
<!-- Разница между Y шарика и Y платформы&#45;&gt;Движение влево -->
<g id="edge10" class="edge">
<title>Разница между Y шарика и Y платформы&#45;&gt;Движение влево</title>
<path fill="none" stroke="red" stroke-width="0.55" d="M270.5,-151.58C262.29,-141.8 248.23,-125.06 234.31,-108.48"/>
<polygon fill="red" stroke="red" stroke-width="0.55" points="237.16,-106.43 228.05,-101.02 231.8,-110.93 237.16,-106.43"/>
</g>
<!-- Разница между Y шарика и Y платформы&#45;&gt;Стоять на месте -->
<g id="edge11" class="edge">
<title>Разница между Y шарика и Y платформы&#45;&gt;Стоять на месте</title>
<path fill="none" stroke="green" stroke-width="0.28" d="M282.78,-151.58C287.95,-142.71 296.46,-128.1 305.22,-113.09"/>
<polygon fill="green" stroke="green" stroke-width="0.28" points="308.15,-115.01 310.16,-104.61 302.1,-111.49 308.15,-115.01"/>
</g>
<!-- Разница между Y шарика и Y платформы&#45;&gt;Движение вправо -->
<g id="edge12" class="edge">
<title>Разница между Y шарика и Y платформы&#45;&gt;Движение вправо</title>
<path fill="none" stroke="green" stroke-width="0.32" d="M319.64,-151.48C348.18,-144.45 386.19,-132.92 416.75,-115.97 422.58,-112.73 428.37,-108.94 433.97,-104.88"/>
<polygon fill="green" stroke="green" stroke-width="0.32" points="435.78,-107.9 441.63,-99.06 431.55,-102.32 435.78,-107.9"/>
</g>
<!-- Движение влево&#45;&gt;Движение влево -->
<g id="edge13" class="edge">
<title>Движение влево&#45;&gt;Движение влево</title>
<path fill="none" stroke="red" stroke-width="0.11" d="M244.44,-76.96C256.59,-75.4 265.55,-69.07 265.55,-57.98 265.55,-50.01 260.92,-44.5 253.81,-41.46"/>
<polygon fill="red" stroke="red" stroke-width="0.11" points="255.16,-38.19 244.6,-39.05 253.39,-44.97 255.16,-38.19"/>
</g>
<!-- Стоять на месте&#45;&gt;Стоять на месте -->
<g id="edge14" class="edge">
<title>Стоять на месте&#45;&gt;Стоять на месте</title>
<path fill="none" stroke="red" stroke-width="0.16" d="M386.66,-77.04C398.87,-75.63 407.96,-69.27 407.96,-57.98 407.96,-50.04 403.47,-44.55 396.56,-41.49"/>
<polygon fill="red" stroke="red" stroke-width="0.16" points="397.45,-38.11 386.89,-38.99 395.69,-44.88 397.45,-38.11"/>
</g>
<!-- Движение вправо&#45;&gt;Движение вправо -->
<g id="edge15" class="edge">
<title>Движение вправо&#45;&gt;Движение вправо</title>
<path fill="none" stroke="red" stroke-width="0.19" d="M539.07,-76.77C551.05,-74.93 559.73,-68.67 559.73,-57.98 559.73,-50.47 555.44,-45.14 548.73,-42"/>
<polygon fill="red" stroke="red" stroke-width="0.19" points="549.92,-38.71 539.34,-39.28 547.97,-45.43 549.92,-38.71"/>
</g>
</g>
</svg>
