<?xml version="1.0" encoding="UTF-8" standalone="no"?>
<!DOCTYPE svg PUBLIC "-//W3C//DTD SVG 1.1//EN"
 "http://www.w3.org/Graphics/SVG/1.1/DTD/svg11.dtd">
<!-- Generated by graphviz version 9.0.0 (20230911.1827)
 -->
<!-- Pages: 1 -->
<svg width="609pt" height="178pt"
 viewBox="0.00 0.00 608.80 178.47" xmlns="http://www.w3.org/2000/svg" xmlns:xlink="http://www.w3.org/1999/xlink">
<g id="graph0" class="graph" transform="scale(1 1) rotate(0) translate(4 174.47)">
<polygon fill="white" stroke="none" points="-4,4 -4,-174.47 604.8,-174.47 604.8,4 -4,4"/>
<!-- Кооордината мяча X -->
<g id="node1" class="node">
<title>Кооордината мяча X</title>
<polygon fill="lightgray" stroke="black" points="110.18,-170.47 15.43,-170.47 15.43,-151.97 110.18,-151.97 110.18,-170.47"/>
<text text-anchor="middle" x="62.8" y="-157.92" font-family="Times,serif" font-size="9.00">Кооордината мяча X</text>
</g>
<!-- Движение влево -->
<g id="node5" class="node">
<title>Движение влево</title>
<ellipse fill="lightblue" stroke="black" cx="54.8" cy="-57.98" rx="54.8" ry="54.8"/>
<text text-anchor="middle" x="54.8" y="-54.68" font-family="Times,serif" font-size="9.00">Движение влево</text>
</g>
<!-- Кооордината мяча X&#45;&gt;Движение влево -->
<g id="edge1" class="edge">
<title>Кооордината мяча X&#45;&gt;Движение влево</title>
<path fill="none" stroke="green" stroke-width="0.33" d="M62.12,-151.58C61.58,-144.78 60.78,-134.59 59.89,-123.43"/>
<polygon fill="green" stroke="green" stroke-width="0.33" points="63.38,-123.18 59.11,-113.49 56.41,-123.73 63.38,-123.18"/>
</g>
<!-- Стоять на месте -->
<g id="node6" class="node">
<title>Стоять на месте</title>
<ellipse fill="lightblue" stroke="black" cx="332.8" cy="-57.98" rx="53.21" ry="53.21"/>
<text text-anchor="middle" x="332.8" y="-54.68" font-family="Times,serif" font-size="9.00">Стоять на месте</text>
</g>
<!-- Кооордината мяча X&#45;&gt;Стоять на месте -->
<g id="edge2" class="edge">
<title>Кооордината мяча X&#45;&gt;Стоять на месте</title>
<path fill="none" stroke="green" stroke-width="0.14" d="M110.34,-153.09C162.76,-144.71 243.32,-130.15 270.8,-115.97 277.14,-112.69 283.32,-108.6 289.16,-104.11"/>
<polygon fill="green" stroke="green" stroke-width="0.14" points="291.21,-106.96 296.75,-97.92 286.79,-101.53 291.21,-106.96"/>
</g>
<!-- Движение вправо -->
<g id="node7" class="node">
<title>Движение вправо</title>
<ellipse fill="lightblue" stroke="black" cx="185.8" cy="-57.98" rx="57.98" ry="57.98"/>
<text text-anchor="middle" x="185.8" y="-54.68" font-family="Times,serif" font-size="9.00">Движение вправо</text>
</g>
<!-- Кооордината мяча X&#45;&gt;Движение вправо -->
<g id="edge3" class="edge">
<title>Кооордината мяча X&#45;&gt;Движение вправо</title>
<path fill="none" stroke="green" stroke-width="0.12" stroke-dasharray="1,5" d="M74.05,-151.52C85.43,-142.68 103.47,-128.54 118.8,-115.97 123.88,-111.8 129.14,-107.43 134.38,-103.04"/>
<polygon fill="green" stroke="green" stroke-width="0.12" points="136.48,-105.84 141.88,-96.73 131.98,-100.49 136.48,-105.84"/>
</g>
<!-- Коррдината мяча Y -->
<g id="node2" class="node">
<title>Коррдината мяча Y</title>
<polygon fill="lightgray" stroke="black" points="218.93,-170.47 128.68,-170.47 128.68,-151.97 218.93,-151.97 218.93,-170.47"/>
<text text-anchor="middle" x="173.8" y="-157.92" font-family="Times,serif" font-size="9.00">Коррдината мяча Y</text>
</g>
<!-- Коррдината мяча Y&#45;&gt;Движение влево -->
<g id="edge4" class="edge">
<title>Коррдината мяча Y&#45;&gt;Движение влево</title>
<path fill="none" stroke="red" stroke-width="0.27" d="M162.71,-151.56C151.51,-142.75 133.77,-128.63 118.8,-115.97 113.61,-111.57 108.24,-106.93 102.91,-102.28"/>
<polygon fill="red" stroke="red" stroke-width="0.27" points="105.29,-99.71 95.47,-95.74 100.67,-104.97 105.29,-99.71"/>
</g>
<!-- Коррдината мяча Y&#45;&gt;Стоять на месте -->
<g id="edge5" class="edge">
<title>Коррдината мяча Y&#45;&gt;Стоять на месте</title>
<path fill="none" stroke="red" stroke-width="0.23" d="M198.43,-151.48C218.73,-143.7 247.82,-131.21 270.8,-115.97 276.66,-112.08 282.51,-107.64 288.15,-102.99"/>
<polygon fill="red" stroke="red" stroke-width="0.23" points="290.09,-105.93 295.42,-96.78 285.54,-100.61 290.09,-105.93"/>
</g>
<!-- Коррдината мяча Y&#45;&gt;Движение вправо -->
<g id="edge12" class="edge">
<title>Коррдината мяча Y&#45;&gt;Движение вправо</title>
<path fill="none" stroke="green" stroke-width="0.14" d="M174.82,-151.58C175.57,-145.28 176.66,-136.08 177.87,-125.9"/>
<polygon fill="green" stroke="green" stroke-width="0.14" points="181.33,-126.45 179.03,-116.11 174.38,-125.63 181.33,-126.45"/>
</g>
<!-- Разница между X шарика и X платформы -->
<g id="node3" class="node">
<title>Разница между X шарика и X платформы</title>
<polygon fill="lightgray" stroke="black" points="410.55,-170.47 237.05,-170.47 237.05,-151.97 410.55,-151.97 410.55,-170.47"/>
<text text-anchor="middle" x="323.8" y="-157.92" font-family="Times,serif" font-size="9.00">Разница между X шарика и X платформы</text>
</g>
<!-- Разница между X шарика и X платформы&#45;&gt;Стоять на месте -->
<g id="edge6" class="edge">
<title>Разница между X шарика и X платформы&#45;&gt;Стоять на месте</title>
<path fill="none" stroke="green" stroke-width="0.17" d="M324.57,-151.58C325.22,-144.27 326.22,-133.04 327.3,-120.91"/>
<polygon fill="green" stroke="green" stroke-width="0.17" points="330.75,-121.57 328.15,-111.3 323.78,-120.95 330.75,-121.57"/>
</g>
<!-- Разница между X шарика и X платформы&#45;&gt;Движение вправо -->
<g id="edge7" class="edge">
<title>Разница между X шарика и X платформы&#45;&gt;Движение вправо</title>
<path fill="none" stroke="green" stroke-width="0.37" d="M312.03,-151.58C296.21,-139.98 267.02,-118.56 240.69,-99.25"/>
<polygon fill="green" stroke="green" stroke-width="0.37" points="242.85,-96.49 232.71,-93.4 238.71,-102.13 242.85,-96.49"/>
</g>
<!-- Разница между Y шарика и Y платформы -->
<g id="node4" class="node">
<title>Разница между Y шарика и Y платформы</title>
<polygon fill="lightgray" stroke="black" points="600.8,-170.47 428.8,-170.47 428.8,-151.97 600.8,-151.97 600.8,-170.47"/>
<text text-anchor="middle" x="514.8" y="-157.92" font-family="Times,serif" font-size="9.00">Разница между Y шарика и Y платформы</text>
</g>
<!-- Разница между Y шарика и Y платформы&#45;&gt;Стоять на месте -->
<g id="edge8" class="edge">
<title>Разница между Y шарика и Y платформы&#45;&gt;Стоять на месте</title>
<path fill="none" stroke="red" stroke-width="0.31" d="M499.28,-151.58C474.93,-138.04 426.56,-111.13 388.2,-89.8"/>
<polygon fill="red" stroke="red" stroke-width="0.31" points="390.04,-86.81 379.6,-85.01 386.64,-92.93 390.04,-86.81"/>
</g>
<!-- Разница между Y шарика и Y платформы&#45;&gt;Движение вправо -->
<g id="edge9" class="edge">
<title>Разница между Y шарика и Y платформы&#45;&gt;Движение вправо</title>
<path fill="none" stroke="red" stroke-width="0.25" d="M449.63,-151.47C388.69,-142.73 302.47,-128.8 270.8,-115.97 260.23,-111.68 249.62,-105.96 239.65,-99.8"/>
<polygon fill="red" stroke="red" stroke-width="0.25" points="241.69,-96.95 231.39,-94.5 237.91,-102.85 241.69,-96.95"/>
</g>
<!-- Стоять на месте&#45;&gt;Стоять на месте -->
<g id="edge10" class="edge">
<title>Стоять на месте&#45;&gt;Стоять на месте</title>
<path fill="none" stroke="green" stroke-width="0.32" d="M382.71,-77.04C394.92,-75.63 404.01,-69.27 404.01,-57.98 404.01,-50.04 399.52,-44.55 392.61,-41.49"/>
<polygon fill="green" stroke="green" stroke-width="0.32" points="393.75,-38.17 383.19,-39.05 391.99,-44.95 393.75,-38.17"/>
</g>
<!-- Движение вправо&#45;&gt;Движение вправо -->
<g id="edge11" class="edge">
<title>Движение вправо&#45;&gt;Движение вправо</title>
<path fill="none" stroke="green" stroke-width="0.12" d="M241.12,-76.77C253.1,-74.93 261.78,-68.67 261.78,-57.98 261.78,-50.47 257.49,-45.14 250.78,-42"/>
<polygon fill="green" stroke="green" stroke-width="0.12" points="251.87,-38.68 241.29,-39.25 249.92,-45.4 251.87,-38.68"/>
</g>
</g>
</svg>
