<?xml version="1.0" encoding="UTF-8" standalone="no"?>
<!DOCTYPE svg PUBLIC "-//W3C//DTD SVG 1.1//EN"
 "http://www.w3.org/Graphics/SVG/1.1/DTD/svg11.dtd">
<!-- Generated by graphviz version 9.0.0 (20230911.1827)
 -->
<!-- Pages: 1 -->
<svg width="601pt" height="178pt"
 viewBox="0.00 0.00 600.55 178.47" xmlns="http://www.w3.org/2000/svg" xmlns:xlink="http://www.w3.org/1999/xlink">
<g id="graph0" class="graph" transform="scale(1 1) rotate(0) translate(4 174.47)">
<polygon fill="white" stroke="none" points="-4,4 -4,-174.47 596.55,-174.47 596.55,4 -4,4"/>
<!-- Кооордината мяча X -->
<g id="node1" class="node">
<title>Кооордината мяча X</title>
<polygon fill="lightgray" stroke="black" points="102.18,-170.47 7.43,-170.47 7.43,-151.97 102.18,-151.97 102.18,-170.47"/>
<text text-anchor="middle" x="54.8" y="-157.92" font-family="Times,serif" font-size="9.00">Кооордината мяча X</text>
</g>
<!-- Движение влево -->
<g id="node5" class="node">
<title>Движение влево</title>
<ellipse fill="lightblue" stroke="black" cx="54.8" cy="-57.98" rx="54.8" ry="54.8"/>
<text text-anchor="middle" x="54.8" y="-54.68" font-family="Times,serif" font-size="9.00">Движение влево</text>
</g>
<!-- Кооордината мяча X&#45;&gt;Движение влево -->
<g id="edge1" class="edge">
<title>Кооордината мяча X&#45;&gt;Движение влево</title>
<path fill="none" stroke="green" stroke-width="0.3" d="M54.8,-151.58C54.8,-144.78 54.8,-134.59 54.8,-123.43"/>
<polygon fill="green" stroke="green" stroke-width="0.3" points="58.3,-123.44 54.8,-113.44 51.3,-123.44 58.3,-123.44"/>
</g>
<!-- Стоять на месте -->
<g id="node6" class="node">
<title>Стоять на месте</title>
<ellipse fill="lightblue" stroke="black" cx="332.8" cy="-57.98" rx="53.21" ry="53.21"/>
<text text-anchor="middle" x="332.8" y="-54.68" font-family="Times,serif" font-size="9.00">Стоять на месте</text>
</g>
<!-- Кооордината мяча X&#45;&gt;Стоять на месте -->
<g id="edge2" class="edge">
<title>Кооордината мяча X&#45;&gt;Стоять на месте</title>
<path fill="none" stroke="red" stroke-width="0.36" stroke-dasharray="1,5" d="M102.53,-151.84C161.52,-141.26 255.98,-123.55 270.8,-115.97 277.01,-112.79 283.06,-108.82 288.79,-104.46"/>
<polygon fill="red" stroke="red" stroke-width="0.36" points="290.96,-107.2 296.52,-98.18 286.55,-101.77 290.96,-107.2"/>
</g>
<!-- Движение вправо -->
<g id="node7" class="node">
<title>Движение вправо</title>
<ellipse fill="lightblue" stroke="black" cx="185.8" cy="-57.98" rx="57.98" ry="57.98"/>
<text text-anchor="middle" x="185.8" y="-54.68" font-family="Times,serif" font-size="9.00">Движение вправо</text>
</g>
<!-- Кооордината мяча X&#45;&gt;Движение вправо -->
<g id="edge3" class="edge">
<title>Кооордината мяча X&#45;&gt;Движение вправо</title>
<path fill="none" stroke="green" stroke-width="0.48" d="M68.07,-151.61C81.2,-142.95 101.77,-129.05 118.8,-115.97 123.89,-112.06 129.11,-107.9 134.28,-103.68"/>
<polygon fill="green" stroke="green" stroke-width="0.48" points="136.3,-106.55 141.79,-97.48 131.85,-101.15 136.3,-106.55"/>
</g>
<!-- Коррдината мяча Y -->
<g id="node2" class="node">
<title>Коррдината мяча Y</title>
<polygon fill="lightgray" stroke="black" points="210.93,-170.47 120.68,-170.47 120.68,-151.97 210.93,-151.97 210.93,-170.47"/>
<text text-anchor="middle" x="165.8" y="-157.92" font-family="Times,serif" font-size="9.00">Коррдината мяча Y</text>
</g>
<!-- Коррдината мяча Y&#45;&gt;Движение влево -->
<g id="edge4" class="edge">
<title>Коррдината мяча Y&#45;&gt;Движение влево</title>
<path fill="none" stroke="red" stroke-width="0.32" d="M156.34,-151.58C144.34,-140.65 122.8,-120.99 102.63,-102.6"/>
<polygon fill="red" stroke="red" stroke-width="0.32" points="105.1,-100.12 95.35,-95.96 100.38,-105.29 105.1,-100.12"/>
</g>
<!-- Коррдината мяча Y&#45;&gt;Стоять на месте -->
<g id="edge5" class="edge">
<title>Коррдината мяча Y&#45;&gt;Стоять на месте</title>
<path fill="none" stroke="red" stroke-width="0.17" d="M193.39,-151.53C215.35,-143.94 246.34,-131.68 270.8,-115.97 276.72,-112.16 282.6,-107.78 288.26,-103.16"/>
<polygon fill="red" stroke="red" stroke-width="0.17" points="290.25,-106.06 295.62,-96.92 285.73,-100.72 290.25,-106.06"/>
</g>
<!-- Коррдината мяча Y&#45;&gt;Движение вправо -->
<g id="edge13" class="edge">
<title>Коррдината мяча Y&#45;&gt;Движение вправо</title>
<path fill="none" stroke="green" stroke-width="0.27" d="M167.51,-151.58C168.79,-145.07 170.69,-135.46 172.78,-124.87"/>
<polygon fill="green" stroke="green" stroke-width="0.27" points="176.16,-125.82 174.67,-115.33 169.3,-124.46 176.16,-125.82"/>
</g>
<!-- Разница между X шарика и X платформы -->
<g id="node3" class="node">
<title>Разница между X шарика и X платформы</title>
<polygon fill="lightgray" stroke="black" points="592.55,-170.47 419.05,-170.47 419.05,-151.97 592.55,-151.97 592.55,-170.47"/>
<text text-anchor="middle" x="505.8" y="-157.92" font-family="Times,serif" font-size="9.00">Разница между X шарика и X платформы</text>
</g>
<!-- Разница между X шарика и X платформы&#45;&gt;Стоять на месте -->
<g id="edge6" class="edge">
<title>Разница между X шарика и X платформы&#45;&gt;Стоять на месте</title>
<path fill="none" stroke="green" stroke-width="0.24" d="M491.05,-151.58C468.21,-138.22 423.12,-111.84 386.9,-90.64"/>
<polygon fill="green" stroke="green" stroke-width="0.24" points="389.09,-87.86 378.69,-85.83 385.55,-93.9 389.09,-87.86"/>
</g>
<!-- Разница между X шарика и X платформы&#45;&gt;Движение вправо -->
<g id="edge7" class="edge">
<title>Разница между X шарика и X платформы&#45;&gt;Движение вправо</title>
<path fill="none" stroke="green" stroke-width="0.16" d="M418.58,-152.3C373.25,-146.09 317.68,-135.14 270.8,-115.97 260.25,-111.65 249.64,-105.91 239.67,-99.74"/>
<polygon fill="green" stroke="green" stroke-width="0.16" points="241.6,-96.82 231.3,-94.36 237.82,-102.71 241.6,-96.82"/>
</g>
<!-- Разница между Y шарика и Y платформы -->
<g id="node4" class="node">
<title>Разница между Y шарика и Y платформы</title>
<polygon fill="lightgray" stroke="black" points="400.8,-170.47 228.8,-170.47 228.8,-151.97 400.8,-151.97 400.8,-170.47"/>
<text text-anchor="middle" x="314.8" y="-157.92" font-family="Times,serif" font-size="9.00">Разница между Y шарика и Y платформы</text>
</g>
<!-- Разница между Y шарика и Y платформы&#45;&gt;Движение влево -->
<g id="edge8" class="edge">
<title>Разница между Y шарика и Y платформы&#45;&gt;Движение влево</title>
<path fill="none" stroke="red" stroke-width="0.5" d="M234.87,-151.5C198.03,-145.19 154.64,-134.38 118.8,-115.97 112.58,-112.77 106.48,-108.82 100.67,-104.51"/>
<polygon fill="red" stroke="red" stroke-width="0.5" points="103.01,-101.89 92.99,-98.45 98.67,-107.39 103.01,-101.89"/>
</g>
<!-- Разница между Y шарика и Y платформы&#45;&gt;Стоять на месте -->
<g id="edge9" class="edge">
<title>Разница между Y шарика и Y платформы&#45;&gt;Стоять на месте</title>
<path fill="none" stroke="red" stroke-width="0.72" d="M316.34,-151.58C317.62,-144.34 319.59,-133.26 321.73,-121.26"/>
<polygon fill="red" stroke="red" stroke-width="0.72" points="325.14,-122.08 323.44,-111.63 318.24,-120.86 325.14,-122.08"/>
</g>
<!-- Разница между Y шарика и Y платформы&#45;&gt;Движение вправо -->
<g id="edge10" class="edge">
<title>Разница между Y шарика и Y платформы&#45;&gt;Движение вправо</title>
<path fill="none" stroke="red" stroke-width="0.8" d="M303.8,-151.58C289.58,-140.43 263.82,-120.21 239.98,-101.5"/>
<polygon fill="red" stroke="red" stroke-width="0.8" points="242.29,-98.87 232.26,-95.44 237.97,-104.37 242.29,-98.87"/>
</g>
<!-- Стоять на месте&#45;&gt;Стоять на месте -->
<g id="edge11" class="edge">
<title>Стоять на месте&#45;&gt;Стоять на месте</title>
<path fill="none" stroke="green" stroke-width="0.18" stroke-dasharray="1,5" d="M382.71,-77.04C394.92,-75.63 404.01,-69.27 404.01,-57.98 404.01,-50.04 399.52,-44.55 392.61,-41.49"/>
<polygon fill="green" stroke="green" stroke-width="0.18" points="393.53,-38.12 382.97,-39 391.78,-44.89 393.53,-38.12"/>
</g>
<!-- Движение вправо&#45;&gt;Движение вправо -->
<g id="edge12" class="edge">
<title>Движение вправо&#45;&gt;Движение вправо</title>
<path fill="none" stroke="red" stroke-width="0.19" stroke-dasharray="1,5" d="M241.12,-76.77C253.1,-74.93 261.78,-68.67 261.78,-57.98 261.78,-50.47 257.49,-45.14 250.78,-42"/>
<polygon fill="red" stroke="red" stroke-width="0.19" points="251.97,-38.71 241.39,-39.28 250.02,-45.43 251.97,-38.71"/>
</g>
</g>
</svg>
