<?xml version="1.0" encoding="UTF-8" standalone="no"?>
<!DOCTYPE svg PUBLIC "-//W3C//DTD SVG 1.1//EN"
 "http://www.w3.org/Graphics/SVG/1.1/DTD/svg11.dtd">
<!-- Generated by graphviz version 9.0.0 (20230911.1827)
 -->
<!-- Pages: 1 -->
<svg width="510pt" height="622pt"
 viewBox="0.00 0.00 510.12 621.93" xmlns="http://www.w3.org/2000/svg" xmlns:xlink="http://www.w3.org/1999/xlink">
<g id="graph0" class="graph" transform="scale(1 1) rotate(0) translate(4 617.93)">
<polygon fill="white" stroke="none" points="-4,4 -4,-617.93 506.12,-617.93 506.12,4 -4,4"/>
<!-- Кооордината мяча X -->
<g id="node1" class="node">
<title>Кооордината мяча X</title>
<polygon fill="lightgray" stroke="black" points="202.38,-613.93 107.62,-613.93 107.62,-595.43 202.38,-595.43 202.38,-613.93"/>
<text text-anchor="middle" x="155" y="-601.38" font-family="Times,serif" font-size="9.00">Кооордината мяча X</text>
</g>
<!-- Движение влево -->
<g id="node5" class="node">
<title>Движение влево</title>
<ellipse fill="lightblue" stroke="black" cx="86" cy="-54.8" rx="54.8" ry="54.8"/>
<text text-anchor="middle" x="86" y="-51.5" font-family="Times,serif" font-size="9.00">Движение влево</text>
</g>
<!-- Кооордината мяча X&#45;&gt;Движение влево -->
<g id="edge1" class="edge">
<title>Кооордината мяча X&#45;&gt;Движение влево</title>
<path fill="none" stroke="green" stroke-width="0.28" d="M142.32,-595.02C105.3,-568.63 0,-485.01 0,-387.6 0,-387.6 0,-387.6 0,-275.53 0,-216.06 27.66,-153.38 51.6,-110.25"/>
<polygon fill="green" stroke="green" stroke-width="0.28" points="54.55,-112.14 56.44,-101.72 48.46,-108.69 54.55,-112.14"/>
</g>
<!-- Стоять на месте -->
<g id="node6" class="node">
<title>Стоять на месте</title>
<ellipse fill="lightblue" stroke="black" cx="247" cy="-276.53" rx="53.21" ry="53.21"/>
<text text-anchor="middle" x="247" y="-273.23" font-family="Times,serif" font-size="9.00">Стоять на месте</text>
</g>
<!-- Кооордината мяча X&#45;&gt;Стоять на месте -->
<g id="edge2" class="edge">
<title>Кооордината мяча X&#45;&gt;Стоять на месте</title>
<path fill="none" stroke="green" stroke-width="0.12" d="M157.46,-594.95C167.63,-558.89 206.95,-419.49 229.97,-337.91"/>
<polygon fill="green" stroke="green" stroke-width="0.12" points="233.29,-339.02 232.64,-328.44 226.56,-337.12 233.29,-339.02"/>
</g>
<!-- Движение вправо -->
<g id="node7" class="node">
<title>Движение вправо</title>
<ellipse fill="lightblue" stroke="black" cx="352" cy="-501.44" rx="57.98" ry="57.98"/>
<text text-anchor="middle" x="352" y="-498.14" font-family="Times,serif" font-size="9.00">Движение вправо</text>
</g>
<!-- Кооордината мяча X&#45;&gt;Движение вправо -->
<g id="edge3" class="edge">
<title>Кооордината мяча X&#45;&gt;Движение вправо</title>
<path fill="none" stroke="green" stroke-width="0.16" stroke-dasharray="1,5" d="M172.02,-595.06C189.58,-586.17 217.73,-571.88 242,-559.43 258.14,-551.14 275.6,-542.12 291.74,-533.76"/>
<polygon fill="green" stroke="green" stroke-width="0.16" points="293.08,-537.01 300.35,-529.3 289.86,-530.79 293.08,-537.01"/>
</g>
<!-- Коррдината мяча Y -->
<g id="node2" class="node">
<title>Коррдината мяча Y</title>
<polygon fill="lightgray" stroke="black" points="502.12,-613.93 411.88,-613.93 411.88,-595.43 502.12,-595.43 502.12,-613.93"/>
<text text-anchor="middle" x="457" y="-601.38" font-family="Times,serif" font-size="9.00">Коррдината мяча Y</text>
</g>
<!-- Коррдината мяча Y&#45;&gt;Стоять на месте -->
<g id="edge4" class="edge">
<title>Коррдината мяча Y&#45;&gt;Стоять на месте</title>
<path fill="none" stroke="red" stroke-width="0.46" stroke-dasharray="1,5" d="M458.51,-595.27C462.53,-570.77 471.75,-497.73 450,-443.46 423.83,-378.17 355.28,-331.24 305.05,-304.29"/>
<polygon fill="red" stroke="red" stroke-width="0.46" points="306.69,-301.2 296.21,-299.66 303.44,-307.4 306.69,-301.2"/>
</g>
<!-- Коррдината мяча Y&#45;&gt;Движение вправо -->
<g id="edge10" class="edge">
<title>Коррдината мяча Y&#45;&gt;Движение вправо</title>
<path fill="none" stroke="green" stroke-width="0.63" stroke-dasharray="1,5" d="M448.05,-595.04C437.46,-584.84 419,-567.04 401.08,-549.76"/>
<polygon fill="green" stroke="green" stroke-width="0.63" points="403.76,-547.49 394.13,-543.06 398.9,-552.53 403.76,-547.49"/>
</g>
<!-- 107 -->
<g id="node8" class="node">
<title>107</title>
<ellipse fill="white" stroke="black" cx="352" cy="-386.6" rx="20.86" ry="20.86"/>
<text text-anchor="middle" x="352" y="-383.3" font-family="Times,serif" font-size="9.00">107</text>
</g>
<!-- Коррдината мяча Y&#45;&gt;107 -->
<g id="edge11" class="edge">
<title>Коррдината мяча Y&#45;&gt;107</title>
<path fill="none" stroke="green" stroke-width="0.36" d="M456.82,-594.96C455.93,-569.61 450.6,-494.5 419,-443.46 408.9,-427.15 392.38,-413.3 378.28,-403.47"/>
<polygon fill="green" stroke="green" stroke-width="0.36" points="380.61,-400.82 370.35,-398.19 376.73,-406.64 380.61,-400.82"/>
</g>
<!-- Разница между X шарика и X платформы -->
<g id="node3" class="node">
<title>Разница между X шарика и X платформы</title>
<polygon fill="lightgray" stroke="black" points="393.75,-613.93 220.25,-613.93 220.25,-595.43 393.75,-595.43 393.75,-613.93"/>
<text text-anchor="middle" x="307" y="-601.38" font-family="Times,serif" font-size="9.00">Разница между X шарика и X платформы</text>
</g>
<!-- Разница между X шарика и X платформы&#45;&gt;Стоять на месте -->
<g id="edge5" class="edge">
<title>Разница между X шарика и X платформы&#45;&gt;Стоять на месте</title>
<path fill="none" stroke="red" stroke-width="0.15" d="M301.74,-595.21C296.61,-586.55 289.03,-572.55 285,-559.43 262.52,-486.16 253.33,-398.14 249.58,-340.17"/>
<polygon fill="red" stroke="red" stroke-width="0.15" points="253.08,-340.05 248.98,-330.28 246.09,-340.48 253.08,-340.05"/>
</g>
<!-- Разница между X шарика и X платформы&#45;&gt;Движение вправо -->
<g id="edge6" class="edge">
<title>Разница между X шарика и X платформы&#45;&gt;Движение вправо</title>
<path fill="none" stroke="red" stroke-width="0.36" d="M310.84,-595.04C314.09,-587.73 319.07,-576.52 324.46,-564.39"/>
<polygon fill="red" stroke="red" stroke-width="0.36" points="327.56,-566.04 328.42,-555.49 321.16,-563.2 327.56,-566.04"/>
</g>
<!-- Разница между Y шарика и Y платформы -->
<g id="node4" class="node">
<title>Разница между Y шарика и Y платформы</title>
<polygon fill="lightgray" stroke="black" points="200,-395.85 28,-395.85 28,-377.35 200,-377.35 200,-395.85"/>
<text text-anchor="middle" x="114" y="-383.3" font-family="Times,serif" font-size="9.00">Разница между Y шарика и Y платформы</text>
</g>
<!-- Разница между Y шарика и Y платформы&#45;&gt;Движение влево -->
<g id="edge7" class="edge">
<title>Разница между Y шарика и Y платформы&#45;&gt;Движение влево</title>
<path fill="none" stroke="red" stroke-width="1.34" stroke-dasharray="1,5" d="M113.28,-377.12C110.29,-341.85 98.65,-204.79 91.58,-121.49"/>
<polygon fill="red" stroke="red" stroke-width="1.34" points="95.07,-121.3 90.74,-111.63 88.1,-121.89 95.07,-121.3"/>
</g>
<!-- Разница между Y шарика и Y платформы&#45;&gt;Стоять на месте -->
<g id="edge8" class="edge">
<title>Разница между Y шарика и Y платформы&#45;&gt;Стоять на месте</title>
<path fill="none" stroke="red" stroke-width="0.14" d="M124.44,-377.12C140.27,-364.26 171.35,-339 198.25,-317.14"/>
<polygon fill="red" stroke="red" stroke-width="0.14" points="200.36,-319.94 205.92,-310.91 195.95,-314.5 200.36,-319.94"/>
</g>
<!-- 116 -->
<g id="node9" class="node">
<title>116</title>
<ellipse fill="white" stroke="black" cx="135" cy="-166.46" rx="20.86" ry="20.86"/>
<text text-anchor="middle" x="135" y="-163.16" font-family="Times,serif" font-size="9.00">116</text>
</g>
<!-- Разница между Y шарика и Y платформы&#45;&gt;116 -->
<g id="edge14" class="edge">
<title>Разница между Y шарика и Y платформы&#45;&gt;116</title>
<path fill="none" stroke="green" stroke-width="0.4" d="M114.82,-377.05C117.67,-347.47 127.19,-248.57 132.07,-197.92"/>
<polygon fill="green" stroke="green" stroke-width="0.4" points="135.53,-198.49 133,-188.2 128.56,-197.82 135.53,-198.49"/>
</g>
<!-- Стоять на месте&#45;&gt;Стоять на месте -->
<g id="edge9" class="edge">
<title>Стоять на месте&#45;&gt;Стоять на месте</title>
<path fill="none" stroke="green" stroke-width="0.49" d="M296.59,-296.89C308.96,-295.46 318.21,-288.68 318.21,-276.53 318.21,-267.99 313.64,-262.1 306.62,-258.86"/>
<polygon fill="green" stroke="green" stroke-width="0.49" points="307.87,-255.57 297.31,-256.37 306.06,-262.34 307.87,-255.57"/>
</g>
<!-- Стоять на месте&#45;&gt;116 -->
<g id="edge16" class="edge">
<title>Стоять на месте&#45;&gt;116</title>
<path fill="none" stroke="green" stroke-width="0.24" d="M209.08,-238.94C191.68,-222.15 171.67,-202.84 156.84,-188.53"/>
<polygon fill="green" stroke="green" stroke-width="0.24" points="159.48,-186.21 149.85,-181.79 154.61,-191.25 159.48,-186.21"/>
</g>
<!-- Движение вправо&#45;&gt;107 -->
<g id="edge13" class="edge">
<title>Движение вправо&#45;&gt;107</title>
<path fill="none" stroke="red" stroke-width="0.22" d="M352,-443.03C352,-434.44 352,-425.89 352,-418.16"/>
<polygon fill="red" stroke="red" stroke-width="0.22" points="355.5,-418.21 352,-408.21 348.5,-418.21 355.5,-418.21"/>
</g>
<!-- 107&#45;&gt;Стоять на месте -->
<g id="edge12" class="edge">
<title>107&#45;&gt;Стоять на месте</title>
<path fill="none" stroke="green" stroke-width="0.11" d="M337.84,-371.03C325.58,-358.41 307.2,-339.49 290.17,-321.96"/>
<polygon fill="green" stroke="green" stroke-width="0.11" points="293.07,-319.92 283.59,-315.19 288.05,-324.8 293.07,-319.92"/>
</g>
<!-- 116&#45;&gt;Движение влево -->
<g id="edge15" class="edge">
<title>116&#45;&gt;Движение влево</title>
<path fill="none" stroke="red" stroke-width="1.19" d="M126.69,-146.86C122.76,-138.06 117.82,-127.02 112.76,-115.68"/>
<polygon fill="red" stroke="red" stroke-width="1.19" points="116.1,-114.59 108.83,-106.89 109.71,-117.45 116.1,-114.59"/>
</g>
</g>
</svg>
