<?xml version="1.0" encoding="UTF-8" standalone="no"?>
<!DOCTYPE svg PUBLIC "-//W3C//DTD SVG 1.1//EN"
 "http://www.w3.org/Graphics/SVG/1.1/DTD/svg11.dtd">
<!-- Generated by graphviz version 9.0.0 (20230911.1827)
 -->
<!-- Pages: 1 -->
<svg width="601pt" height="178pt"
 viewBox="0.00 0.00 600.55 178.47" xmlns="http://www.w3.org/2000/svg" xmlns:xlink="http://www.w3.org/1999/xlink">
<g id="graph0" class="graph" transform="scale(1 1) rotate(0) translate(4 174.47)">
<polygon fill="white" stroke="none" points="-4,4 -4,-174.47 596.55,-174.47 596.55,4 -4,4"/>
<!-- Кооордината мяча X -->
<g id="node1" class="node">
<title>Кооордината мяча X</title>
<polygon fill="lightgray" stroke="black" points="102.18,-170.47 7.43,-170.47 7.43,-151.97 102.18,-151.97 102.18,-170.47"/>
<text text-anchor="middle" x="54.8" y="-157.92" font-family="Times,serif" font-size="9.00">Кооордината мяча X</text>
</g>
<!-- Движение влево -->
<g id="node5" class="node">
<title>Движение влево</title>
<ellipse fill="lightblue" stroke="black" cx="54.8" cy="-57.98" rx="54.8" ry="54.8"/>
<text text-anchor="middle" x="54.8" y="-54.68" font-family="Times,serif" font-size="9.00">Движение влево</text>
</g>
<!-- Кооордината мяча X&#45;&gt;Движение влево -->
<g id="edge1" class="edge">
<title>Кооордината мяча X&#45;&gt;Движение влево</title>
<path fill="none" stroke="green" stroke-width="0.2" d="M54.8,-151.58C54.8,-144.71 54.8,-134.38 54.8,-123.09"/>
<polygon fill="green" stroke="green" stroke-width="0.2" points="58.3,-123.28 54.8,-113.28 51.3,-123.28 58.3,-123.28"/>
</g>
<!-- Стоять на месте -->
<g id="node6" class="node">
<title>Стоять на месте</title>
<ellipse fill="lightblue" stroke="black" cx="332.8" cy="-57.98" rx="53.21" ry="53.21"/>
<text text-anchor="middle" x="332.8" y="-54.68" font-family="Times,serif" font-size="9.00">Стоять на месте</text>
</g>
<!-- Кооордината мяча X&#45;&gt;Стоять на месте -->
<g id="edge2" class="edge">
<title>Кооордината мяча X&#45;&gt;Стоять на месте</title>
<path fill="none" stroke="red" stroke-width="0.33" d="M102.53,-151.84C161.52,-141.26 255.98,-123.55 270.8,-115.97 277.01,-112.79 283.06,-108.82 288.79,-104.46"/>
<polygon fill="red" stroke="red" stroke-width="0.33" points="290.99,-107.18 296.55,-98.16 286.58,-101.75 290.99,-107.18"/>
</g>
<!-- Движение вправо -->
<g id="node7" class="node">
<title>Движение вправо</title>
<ellipse fill="lightblue" stroke="black" cx="185.8" cy="-57.98" rx="57.98" ry="57.98"/>
<text text-anchor="middle" x="185.8" y="-54.68" font-family="Times,serif" font-size="9.00">Движение вправо</text>
</g>
<!-- Кооордината мяча X&#45;&gt;Движение вправо -->
<g id="edge3" class="edge">
<title>Кооордината мяча X&#45;&gt;Движение вправо</title>
<path fill="none" stroke="red" stroke-width="0.1" stroke-dasharray="1,5" d="M68.07,-151.61C81.2,-142.95 101.77,-129.05 118.8,-115.97 124.01,-111.97 129.36,-107.7 134.65,-103.38"/>
<polygon fill="red" stroke="red" stroke-width="0.1" points="136.75,-106.18 142.23,-97.12 132.29,-100.79 136.75,-106.18"/>
</g>
<!-- Коррдината мяча Y -->
<g id="node2" class="node">
<title>Коррдината мяча Y</title>
<polygon fill="lightgray" stroke="black" points="210.93,-170.47 120.68,-170.47 120.68,-151.97 210.93,-151.97 210.93,-170.47"/>
<text text-anchor="middle" x="165.8" y="-157.92" font-family="Times,serif" font-size="9.00">Коррдината мяча Y</text>
</g>
<!-- Коррдината мяча Y&#45;&gt;Движение влево -->
<g id="edge4" class="edge">
<title>Коррдината мяча Y&#45;&gt;Движение влево</title>
<path fill="none" stroke="red" stroke-width="0.25" d="M156.34,-151.58C144.34,-140.65 122.8,-120.99 102.63,-102.6"/>
<polygon fill="red" stroke="red" stroke-width="0.25" points="105.01,-100.04 95.27,-95.89 100.3,-105.21 105.01,-100.04"/>
</g>
<!-- Коррдината мяча Y&#45;&gt;Стоять на месте -->
<g id="edge5" class="edge">
<title>Коррдината мяча Y&#45;&gt;Стоять на месте</title>
<path fill="none" stroke="red" stroke-width="0.34" d="M193.39,-151.53C215.35,-143.94 246.34,-131.68 270.8,-115.97 276.59,-112.25 282.34,-107.97 287.87,-103.47"/>
<polygon fill="red" stroke="red" stroke-width="0.34" points="290.05,-106.22 295.42,-97.09 285.52,-100.88 290.05,-106.22"/>
</g>
<!-- Коррдината мяча Y&#45;&gt;Движение вправо -->
<g id="edge12" class="edge">
<title>Коррдината мяча Y&#45;&gt;Движение вправо</title>
<path fill="none" stroke="red" stroke-width="0.12" d="M167.51,-151.58C168.79,-145.07 170.69,-135.46 172.78,-124.87"/>
<polygon fill="red" stroke="red" stroke-width="0.12" points="176.21,-125.6 174.71,-115.11 169.34,-124.24 176.21,-125.6"/>
</g>
<!-- Разница между X шарика и X платформы -->
<g id="node3" class="node">
<title>Разница между X шарика и X платформы</title>
<polygon fill="lightgray" stroke="black" points="592.55,-170.47 419.05,-170.47 419.05,-151.97 592.55,-151.97 592.55,-170.47"/>
<text text-anchor="middle" x="505.8" y="-157.92" font-family="Times,serif" font-size="9.00">Разница между X шарика и X платформы</text>
</g>
<!-- Разница между X шарика и X платформы&#45;&gt;Стоять на месте -->
<g id="edge6" class="edge">
<title>Разница между X шарика и X платформы&#45;&gt;Стоять на месте</title>
<path fill="none" stroke="green" stroke-width="0.33" d="M491.05,-151.58C468.3,-138.27 423.5,-112.06 387.36,-90.91"/>
<polygon fill="green" stroke="green" stroke-width="0.33" points="389.2,-87.93 378.8,-85.9 385.66,-93.97 389.2,-87.93"/>
</g>
<!-- Разница между X шарика и X платформы&#45;&gt;Движение вправо -->
<g id="edge7" class="edge">
<title>Разница между X шарика и X платформы&#45;&gt;Движение вправо</title>
<path fill="none" stroke="green" stroke-width="0.19" d="M418.58,-152.3C373.25,-146.09 317.68,-135.14 270.8,-115.97 260.25,-111.65 249.64,-105.91 239.67,-99.74"/>
<polygon fill="green" stroke="green" stroke-width="0.19" points="241.64,-96.85 231.33,-94.39 237.86,-102.74 241.64,-96.85"/>
</g>
<!-- Разница между Y шарика и Y платформы -->
<g id="node4" class="node">
<title>Разница между Y шарика и Y платформы</title>
<polygon fill="lightgray" stroke="black" points="400.8,-170.47 228.8,-170.47 228.8,-151.97 400.8,-151.97 400.8,-170.47"/>
<text text-anchor="middle" x="314.8" y="-157.92" font-family="Times,serif" font-size="9.00">Разница между Y шарика и Y платформы</text>
</g>
<!-- Разница между Y шарика и Y платформы&#45;&gt;Движение влево -->
<g id="edge8" class="edge">
<title>Разница между Y шарика и Y платформы&#45;&gt;Движение влево</title>
<path fill="none" stroke="red" d="M234.87,-151.5C198.03,-145.19 154.64,-134.38 118.8,-115.97 112.72,-112.84 106.76,-109 101.08,-104.81"/>
<polygon fill="red" stroke="red" points="103.6,-102.34 93.58,-98.91 99.27,-107.84 103.6,-102.34"/>
</g>
<!-- Разница между Y шарика и Y платформы&#45;&gt;Стоять на месте -->
<g id="edge9" class="edge">
<title>Разница между Y шарика и Y платформы&#45;&gt;Стоять на месте</title>
<path fill="none" stroke="red" stroke-width="0.13" d="M316.34,-151.58C317.65,-144.19 319.67,-132.81 321.86,-120.53"/>
<polygon fill="red" stroke="red" stroke-width="0.13" points="325.29,-121.21 323.6,-110.75 318.4,-119.98 325.29,-121.21"/>
</g>
<!-- Разница между Y шарика и Y платформы&#45;&gt;Движение вправо -->
<g id="edge10" class="edge">
<title>Разница между Y шарика и Y платформы&#45;&gt;Движение вправо</title>
<path fill="none" stroke="red" stroke-width="0.19" d="M303.8,-151.58C289.46,-140.33 263.36,-119.85 239.35,-101.01"/>
<polygon fill="red" stroke="red" stroke-width="0.19" points="241.57,-98.3 231.54,-94.88 237.25,-103.8 241.57,-98.3"/>
</g>
<!-- Движение вправо&#45;&gt;Движение вправо -->
<g id="edge11" class="edge">
<title>Движение вправо&#45;&gt;Движение вправо</title>
<path fill="none" stroke="red" stroke-width="0.44" d="M241.12,-76.77C253.1,-74.93 261.78,-68.67 261.78,-57.98 261.78,-50.64 257.68,-45.38 251.22,-42.22"/>
<polygon fill="red" stroke="red" stroke-width="0.44" points="252.34,-38.9 241.75,-39.39 250.33,-45.6 252.34,-38.9"/>
</g>
</g>
</svg>
