<?xml version="1.0" encoding="UTF-8" standalone="no"?>
<!DOCTYPE svg PUBLIC "-//W3C//DTD SVG 1.1//EN"
 "http://www.w3.org/Graphics/SVG/1.1/DTD/svg11.dtd">
<!-- Generated by graphviz version 9.0.0 (20230911.1827)
 -->
<!-- Pages: 1 -->
<svg width="593pt" height="178pt"
 viewBox="0.00 0.00 592.75 178.47" xmlns="http://www.w3.org/2000/svg" xmlns:xlink="http://www.w3.org/1999/xlink">
<g id="graph0" class="graph" transform="scale(1 1) rotate(0) translate(4 174.47)">
<polygon fill="white" stroke="none" points="-4,4 -4,-174.47 588.75,-174.47 588.75,4 -4,4"/>
<!-- Кооордината мяча X -->
<g id="node1" class="node">
<title>Кооордината мяча X</title>
<polygon fill="lightgray" stroke="black" points="284.38,-170.47 189.62,-170.47 189.62,-151.97 284.38,-151.97 284.38,-170.47"/>
<text text-anchor="middle" x="237" y="-157.92" font-family="Times,serif" font-size="9.00">Кооордината мяча X</text>
</g>
<!-- Движение влево -->
<g id="node5" class="node">
<title>Движение влево</title>
<ellipse fill="lightblue" stroke="black" cx="99" cy="-57.98" rx="54.8" ry="54.8"/>
<text text-anchor="middle" x="99" y="-54.68" font-family="Times,serif" font-size="9.00">Движение влево</text>
</g>
<!-- Кооордината мяча X&#45;&gt;Движение влево -->
<g id="edge1" class="edge">
<title>Кооордината мяча X&#45;&gt;Движение влево</title>
<path fill="none" stroke="green" stroke-width="0.15" d="M224.59,-151.49C212.03,-142.62 192.08,-128.46 175,-115.97 167.01,-110.12 158.6,-103.89 150.39,-97.77"/>
<polygon fill="green" stroke="green" stroke-width="0.15" points="152.56,-95.02 142.45,-91.84 148.37,-100.63 152.56,-95.02"/>
</g>
<!-- Стоять на месте -->
<g id="node6" class="node">
<title>Стоять на месте</title>
<ellipse fill="lightblue" stroke="black" cx="237" cy="-57.98" rx="53.21" ry="53.21"/>
<text text-anchor="middle" x="237" y="-54.68" font-family="Times,serif" font-size="9.00">Стоять на месте</text>
</g>
<!-- Кооордината мяча X&#45;&gt;Стоять на месте -->
<g id="edge2" class="edge">
<title>Кооордината мяча X&#45;&gt;Стоять на месте</title>
<path fill="none" stroke="red" stroke-width="0.25" d="M237,-151.58C237,-144.41 237,-133.49 237,-121.64"/>
<polygon fill="red" stroke="red" stroke-width="0.25" points="240.5,-121.91 237,-111.91 233.5,-121.91 240.5,-121.91"/>
</g>
<!-- Движение вправо -->
<g id="node7" class="node">
<title>Движение вправо</title>
<ellipse fill="lightblue" stroke="black" cx="366" cy="-57.98" rx="57.98" ry="57.98"/>
<text text-anchor="middle" x="366" y="-54.68" font-family="Times,serif" font-size="9.00">Движение вправо</text>
</g>
<!-- Кооордината мяча X&#45;&gt;Движение вправо -->
<g id="edge3" class="edge">
<title>Кооордината мяча X&#45;&gt;Движение вправо</title>
<path fill="none" stroke="red" stroke-width="0.12" stroke-dasharray="1,5" d="M249.58,-151.7C262.27,-143.01 282.31,-128.98 299,-115.97 304.18,-111.93 309.51,-107.64 314.79,-103.3"/>
<polygon fill="red" stroke="red" stroke-width="0.12" points="316.87,-106.12 322.33,-97.04 312.4,-100.73 316.87,-106.12"/>
</g>
<!-- Коррдината мяча Y -->
<g id="node2" class="node">
<title>Коррдината мяча Y</title>
<polygon fill="lightgray" stroke="black" points="393.12,-170.47 302.88,-170.47 302.88,-151.97 393.12,-151.97 393.12,-170.47"/>
<text text-anchor="middle" x="348" y="-157.92" font-family="Times,serif" font-size="9.00">Коррдината мяча Y</text>
</g>
<!-- Коррдината мяча Y&#45;&gt;Стоять на месте -->
<g id="edge4" class="edge">
<title>Коррдината мяча Y&#45;&gt;Стоять на месте</title>
<path fill="none" stroke="green" stroke-width="0.3" d="M338.58,-151.76C328.7,-142.87 312.73,-128.47 299,-115.97 293.99,-111.4 288.76,-106.62 283.56,-101.85"/>
<polygon fill="green" stroke="green" stroke-width="0.3" points="286.05,-99.39 276.31,-95.21 281.32,-104.55 286.05,-99.39"/>
</g>
<!-- Коррдината мяча Y&#45;&gt;Движение вправо -->
<g id="edge9" class="edge">
<title>Коррдината мяча Y&#45;&gt;Движение вправо</title>
<path fill="none" stroke="green" stroke-width="0.25" stroke-dasharray="1,5" d="M349.53,-151.58C350.67,-145.21 352.33,-135.87 354.16,-125.54"/>
<polygon fill="green" stroke="green" stroke-width="0.25" points="357.6,-126.24 355.9,-115.78 350.7,-125.01 357.6,-126.24"/>
</g>
<!-- Разница между X шарика и X платформы -->
<g id="node3" class="node">
<title>Разница между X шарика и X платформы</title>
<polygon fill="lightgray" stroke="black" points="584.75,-170.47 411.25,-170.47 411.25,-151.97 584.75,-151.97 584.75,-170.47"/>
<text text-anchor="middle" x="498" y="-157.92" font-family="Times,serif" font-size="9.00">Разница между X шарика и X платформы</text>
</g>
<!-- Разница между X шарика и X платформы&#45;&gt;Стоять на месте -->
<g id="edge5" class="edge">
<title>Разница между X шарика и X платформы&#45;&gt;Стоять на месте</title>
<path fill="none" stroke="red" stroke-width="0.16" d="M414.28,-151.54C377.38,-145.26 334.45,-134.47 299,-115.97 292.67,-112.66 286.51,-108.55 280.67,-104.05"/>
<polygon fill="red" stroke="red" stroke-width="0.16" points="283.06,-101.49 273.11,-97.87 278.63,-106.91 283.06,-101.49"/>
</g>
<!-- Разница между X шарика и X платформы&#45;&gt;Движение вправо -->
<g id="edge6" class="edge">
<title>Разница между X шарика и X платформы&#45;&gt;Движение вправо</title>
<path fill="none" stroke="red" stroke-width="0.52" d="M486.75,-151.58C471.9,-140.2 444.75,-119.38 419.95,-100.36"/>
<polygon fill="red" stroke="red" stroke-width="0.52" points="422.34,-97.78 412.28,-94.47 418.08,-103.34 422.34,-97.78"/>
</g>
<!-- Разница между Y шарика и Y платформы -->
<g id="node4" class="node">
<title>Разница между Y шарика и Y платформы</title>
<polygon fill="lightgray" stroke="black" points="172,-170.47 0,-170.47 0,-151.97 172,-151.97 172,-170.47"/>
<text text-anchor="middle" x="86" y="-157.92" font-family="Times,serif" font-size="9.00">Разница между Y шарика и Y платформы</text>
</g>
<!-- Разница между Y шарика и Y платформы&#45;&gt;Движение влево -->
<g id="edge7" class="edge">
<title>Разница между Y шарика и Y платформы&#45;&gt;Движение влево</title>
<path fill="none" stroke="red" stroke-width="1.28" d="M87.11,-151.58C87.97,-144.91 89.24,-135 90.64,-124.11"/>
<polygon fill="red" stroke="red" stroke-width="1.28" points="94.08,-124.79 91.88,-114.43 87.13,-123.9 94.08,-124.79"/>
</g>
<!-- Разница между Y шарика и Y платформы&#45;&gt;Стоять на месте -->
<g id="edge8" class="edge">
<title>Разница между Y шарика и Y платформы&#45;&gt;Стоять на месте</title>
<path fill="none" stroke="red" stroke-width="0.11" d="M102.61,-151.51C118.47,-143.01 142.87,-129.41 163,-115.97 171.19,-110.49 179.66,-104.41 187.82,-98.31"/>
<polygon fill="red" stroke="red" stroke-width="0.11" points="189.86,-101.16 195.72,-92.33 185.63,-95.58 189.86,-101.16"/>
</g>
</g>
</svg>
