<?xml version="1.0" encoding="UTF-8" standalone="no"?>
<!DOCTYPE svg PUBLIC "-//W3C//DTD SVG 1.1//EN"
 "http://www.w3.org/Graphics/SVG/1.1/DTD/svg11.dtd">
<!-- Generated by graphviz version 9.0.0 (20230911.1827)
 -->
<!-- Pages: 1 -->
<svg width="634pt" height="250pt"
 viewBox="0.00 0.00 633.57 249.82" xmlns="http://www.w3.org/2000/svg" xmlns:xlink="http://www.w3.org/1999/xlink">
<g id="graph0" class="graph" transform="scale(1 1) rotate(0) translate(4 245.82)">
<polygon fill="white" stroke="none" points="-4,4 -4,-245.82 629.57,-245.82 629.57,4 -4,4"/>
<!-- Кооордината мяча X -->
<g id="node1" class="node">
<title>Кооордината мяча X</title>
<polygon fill="lightgray" stroke="black" points="114.27,-178.89 19.52,-178.89 19.52,-160.39 114.27,-160.39 114.27,-178.89"/>
<text text-anchor="middle" x="66.89" y="-166.34" font-family="Times,serif" font-size="9.00">Кооордината мяча X</text>
</g>
<!-- Движение влево -->
<g id="node5" class="node">
<title>Движение влево</title>
<ellipse fill="lightblue" stroke="black" cx="66.89" cy="-57.98" rx="54.8" ry="54.8"/>
<text text-anchor="middle" x="66.89" y="-54.68" font-family="Times,serif" font-size="9.00">Движение влево</text>
</g>
<!-- Кооордината мяча X&#45;&gt;Движение влево -->
<g id="edge1" class="edge">
<title>Кооордината мяча X&#45;&gt;Движение влево</title>
<path fill="none" stroke="green" stroke-width="0.26" d="M66.89,-160.04C66.89,-151.63 66.89,-138 66.89,-123.43"/>
<polygon fill="green" stroke="green" stroke-width="0.26" points="70.39,-123.64 66.89,-113.64 63.39,-123.64 70.39,-123.64"/>
</g>
<!-- Стоять на месте -->
<g id="node6" class="node">
<title>Стоять на месте</title>
<ellipse fill="lightblue" stroke="black" cx="258.89" cy="-57.98" rx="53.21" ry="53.21"/>
<text text-anchor="middle" x="258.89" y="-54.68" font-family="Times,serif" font-size="9.00">Стоять на месте</text>
</g>
<!-- Кооордината мяча X&#45;&gt;Стоять на месте -->
<g id="edge2" class="edge">
<title>Кооордината мяча X&#45;&gt;Стоять на месте</title>
<path fill="none" stroke="green" stroke-width="0.19" d="M81.96,-160.04C107.95,-145.19 162.46,-114.06 204.15,-90.25"/>
<polygon fill="green" stroke="green" stroke-width="0.19" points="205.63,-93.43 212.58,-85.43 202.16,-87.35 205.63,-93.43"/>
</g>
<!-- Движение вправо -->
<g id="node7" class="node">
<title>Движение вправо</title>
<ellipse fill="lightblue" stroke="black" cx="446.89" cy="-57.98" rx="57.98" ry="57.98"/>
<text text-anchor="middle" x="446.89" y="-54.68" font-family="Times,serif" font-size="9.00">Движение вправо</text>
</g>
<!-- Кооордината мяча X&#45;&gt;Движение вправо -->
<g id="edge3" class="edge">
<title>Кооордината мяча X&#45;&gt;Движение вправо</title>
<path fill="none" stroke="red" stroke-width="0.25" stroke-dasharray="1,5" d="M93.77,-159.9C102.94,-157.11 113.3,-154.18 122.89,-151.97 217.71,-130.03 246.67,-147.07 338.89,-115.97 355.6,-110.33 372.85,-102.34 388.53,-94.12"/>
<polygon fill="red" stroke="red" stroke-width="0.25" points="390.07,-97.27 397.22,-89.46 386.76,-91.1 390.07,-97.27"/>
</g>
<!-- Коррдината мяча Y -->
<g id="node2" class="node">
<title>Коррдината мяча Y</title>
<polygon fill="lightgray" stroke="black" points="492.02,-241.82 401.77,-241.82 401.77,-223.32 492.02,-223.32 492.02,-241.82"/>
<text text-anchor="middle" x="446.89" y="-229.27" font-family="Times,serif" font-size="9.00">Коррдината мяча Y</text>
</g>
<!-- Коррдината мяча Y&#45;&gt;Движение влево -->
<g id="edge4" class="edge">
<title>Коррдината мяча Y&#45;&gt;Движение влево</title>
<path fill="none" stroke="red" stroke-width="0.28" d="M401.5,-230.34C295.13,-226.98 36.75,-215.93 10.89,-187.32 -9.94,-164.27 3.98,-132.26 23.15,-105.97"/>
<polygon fill="red" stroke="red" stroke-width="0.28" points="25.68,-108.42 28.97,-98.35 20.12,-104.17 25.68,-108.42"/>
</g>
<!-- Коррдината мяча Y&#45;&gt;Стоять на месте -->
<g id="edge5" class="edge">
<title>Коррдината мяча Y&#45;&gt;Стоять на месте</title>
<path fill="none" stroke="green" stroke-width="0.14" d="M418.69,-222.93C398.32,-215.72 370.98,-203.92 350.89,-187.32 326.31,-167.02 305.08,-138.68 289.22,-113.79"/>
<polygon fill="green" stroke="green" stroke-width="0.14" points="292.21,-111.97 283.95,-105.33 286.27,-115.67 292.21,-111.97"/>
</g>
<!-- Коррдината мяча Y&#45;&gt;Движение вправо -->
<g id="edge12" class="edge">
<title>Коррдината мяча Y&#45;&gt;Движение вправо</title>
<path fill="none" stroke="red" stroke-width="0.23" stroke-dasharray="1,5" d="M489.83,-222.92C509.54,-216.57 531.12,-205.71 542.89,-187.32 563.36,-155.35 534.74,-121 503.55,-95.89"/>
<polygon fill="red" stroke="red" stroke-width="0.23" points="505.91,-93.29 495.86,-89.93 501.61,-98.82 505.91,-93.29"/>
</g>
<!-- 94 -->
<g id="node8" class="node">
<title>94</title>
<ellipse fill="white" stroke="black" cx="607.89" cy="-169.64" rx="17.68" ry="17.68"/>
<text text-anchor="middle" x="607.89" y="-166.34" font-family="Times,serif" font-size="9.00">94</text>
</g>
<!-- Коррдината мяча Y&#45;&gt;94 -->
<g id="edge13" class="edge">
<title>Коррдината мяча Y&#45;&gt;94</title>
<path fill="none" stroke="green" stroke-width="0.36" d="M476.31,-222.86C502.77,-214.71 542.49,-201.66 575.89,-187.32 578.31,-186.28 580.79,-185.14 583.26,-183.95"/>
<polygon fill="green" stroke="green" stroke-width="0.36" points="584.67,-187.16 592,-179.51 581.5,-180.91 584.67,-187.16"/>
</g>
<!-- Разница между X шарика и X платформы -->
<g id="node3" class="node">
<title>Разница между X шарика и X платформы</title>
<polygon fill="lightgray" stroke="black" points="533.64,-178.89 360.14,-178.89 360.14,-160.39 533.64,-160.39 533.64,-178.89"/>
<text text-anchor="middle" x="446.89" y="-166.34" font-family="Times,serif" font-size="9.00">Разница между X шарика и X платформы</text>
</g>
<!-- Разница между X шарика и X платформы&#45;&gt;Стоять на месте -->
<g id="edge6" class="edge">
<title>Разница между X шарика и X платформы&#45;&gt;Стоять на месте</title>
<path fill="none" stroke="green" stroke-width="0.35" d="M432.14,-160.04C406.95,-145.35 354.43,-114.71 313.79,-91"/>
<polygon fill="green" stroke="green" stroke-width="0.35" points="315.64,-88.04 305.24,-86.02 312.12,-94.08 315.64,-88.04"/>
</g>
<!-- Разница между X шарика и X платформы&#45;&gt;Движение вправо -->
<g id="edge7" class="edge">
<title>Разница между X шарика и X платформы&#45;&gt;Движение вправо</title>
<path fill="none" stroke="red" stroke-width="0.18" d="M446.89,-160.04C446.89,-152.2 446.89,-139.81 446.89,-126.37"/>
<polygon fill="red" stroke="red" stroke-width="0.18" points="450.39,-126.71 446.89,-116.71 443.39,-126.71 450.39,-126.71"/>
</g>
<!-- Разница между Y шарика и Y платформы -->
<g id="node4" class="node">
<title>Разница между Y шарика и Y платформы</title>
<polygon fill="lightgray" stroke="black" points="303.89,-178.89 131.89,-178.89 131.89,-160.39 303.89,-160.39 303.89,-178.89"/>
<text text-anchor="middle" x="217.89" y="-166.34" font-family="Times,serif" font-size="9.00">Разница между Y шарика и Y платформы</text>
</g>
<!-- Разница между Y шарика и Y платформы&#45;&gt;Движение влево -->
<g id="edge8" class="edge">
<title>Разница между Y шарика и Y платформы&#45;&gt;Движение влево</title>
<path fill="none" stroke="red" stroke-width="0.99" d="M206.04,-160.04C187.63,-146.67 151.03,-120.09 119.99,-97.54"/>
<polygon fill="red" stroke="red" stroke-width="0.99" points="122.34,-94.92 112.19,-91.88 118.22,-100.59 122.34,-94.92"/>
</g>
<!-- Разница между Y шарика и Y платформы&#45;&gt;Стоять на месте -->
<g id="edge9" class="edge">
<title>Разница между Y шарика и Y платформы&#45;&gt;Стоять на месте</title>
<path fill="none" stroke="red" stroke-width="0.21" d="M221.11,-160.04C224.68,-150.5 230.76,-134.23 237.01,-117.5"/>
<polygon fill="red" stroke="red" stroke-width="0.21" points="240.16,-119.09 240.38,-108.49 233.6,-116.63 240.16,-119.09"/>
</g>
<!-- Разница между Y шарика и Y платформы&#45;&gt;Движение вправо -->
<g id="edge10" class="edge">
<title>Разница между Y шарика и Y платформы&#45;&gt;Движение вправо</title>
<path fill="none" stroke="red" stroke-width="0.18" d="M239.09,-159.98C263.42,-149.91 304.41,-132.54 338.89,-115.97 354.7,-108.37 371.58,-99.72 387.18,-91.51"/>
<polygon fill="red" stroke="red" stroke-width="0.18" points="388.76,-94.63 395.96,-86.86 385.49,-88.44 388.76,-94.63"/>
</g>
<!-- Стоять на месте&#45;&gt;Стоять на месте -->
<g id="edge11" class="edge">
<title>Стоять на месте&#45;&gt;Стоять на месте</title>
<path fill="none" stroke="green" stroke-width="0.41" d="M308.15,-78.67C320.69,-77.31 330.1,-70.41 330.1,-57.98 330.1,-49.24 325.45,-43.24 318.32,-39.97"/>
<polygon fill="green" stroke="green" stroke-width="0.41" points="319.3,-36.61 308.74,-37.45 317.52,-43.38 319.3,-36.61"/>
</g>
<!-- 94&#45;&gt;Движение вправо -->
<g id="edge14" class="edge">
<title>94&#45;&gt;Движение вправо</title>
<path fill="none" stroke="red" stroke-width="0.2" d="M593.6,-158.91C573.4,-145.15 535.34,-119.23 503.05,-97.23"/>
<polygon fill="red" stroke="red" stroke-width="0.2" points="505.03,-94.35 494.79,-91.61 501.09,-100.13 505.03,-94.35"/>
</g>
</g>
</svg>
