<?xml version="1.0" encoding="UTF-8" standalone="no"?>
<!DOCTYPE svg PUBLIC "-//W3C//DTD SVG 1.1//EN"
 "http://www.w3.org/Graphics/SVG/1.1/DTD/svg11.dtd">
<!-- Generated by graphviz version 9.0.0 (20230911.1827)
 -->
<!-- Pages: 1 -->
<svg width="593pt" height="178pt"
 viewBox="0.00 0.00 592.88 178.47" xmlns="http://www.w3.org/2000/svg" xmlns:xlink="http://www.w3.org/1999/xlink">
<g id="graph0" class="graph" transform="scale(1 1) rotate(0) translate(4 174.47)">
<polygon fill="white" stroke="none" points="-4,4 -4,-174.47 588.88,-174.47 588.88,4 -4,4"/>
<!-- Кооордината мяча X -->
<g id="node1" class="node">
<title>Кооордината мяча X</title>
<polygon fill="lightgray" stroke="black" points="476.12,-170.47 381.38,-170.47 381.38,-151.97 476.12,-151.97 476.12,-170.47"/>
<text text-anchor="middle" x="428.75" y="-157.92" font-family="Times,serif" font-size="9.00">Кооордината мяча X</text>
</g>
<!-- Движение влево -->
<g id="node5" class="node">
<title>Движение влево</title>
<ellipse fill="lightblue" stroke="black" cx="210.75" cy="-57.98" rx="54.8" ry="54.8"/>
<text text-anchor="middle" x="210.75" y="-54.68" font-family="Times,serif" font-size="9.00">Движение влево</text>
</g>
<!-- Кооордината мяча X&#45;&gt;Движение влево -->
<g id="edge1" class="edge">
<title>Кооордината мяча X&#45;&gt;Движение влево</title>
<path fill="none" stroke="green" stroke-width="0.33" d="M381.15,-152.27C349.58,-145.65 308.01,-134.29 274.75,-115.97 268.71,-112.64 262.76,-108.65 257.06,-104.34"/>
<polygon fill="green" stroke="green" stroke-width="0.33" points="259.31,-101.65 249.31,-98.16 254.94,-107.13 259.31,-101.65"/>
</g>
<!-- Стоять на месте -->
<g id="node6" class="node">
<title>Стоять на месте</title>
<ellipse fill="lightblue" stroke="black" cx="336.75" cy="-57.98" rx="53.21" ry="53.21"/>
<text text-anchor="middle" x="336.75" y="-54.68" font-family="Times,serif" font-size="9.00">Стоять на месте</text>
</g>
<!-- Кооордината мяча X&#45;&gt;Стоять на месте -->
<g id="edge2" class="edge">
<title>Кооордината мяча X&#45;&gt;Стоять на месте</title>
<path fill="none" stroke="red" stroke-width="0.15" d="M420.91,-151.58C411.48,-141.21 394.92,-122.99 378.98,-105.45"/>
<polygon fill="red" stroke="red" stroke-width="0.15" points="381.67,-103.2 372.35,-98.16 376.49,-107.91 381.67,-103.2"/>
</g>
<!-- Движение вправо -->
<g id="node7" class="node">
<title>Движение вправо</title>
<ellipse fill="lightblue" stroke="black" cx="483.75" cy="-57.98" rx="57.98" ry="57.98"/>
<text text-anchor="middle" x="483.75" y="-54.68" font-family="Times,serif" font-size="9.00">Движение вправо</text>
</g>
<!-- Кооордината мяча X&#45;&gt;Движение вправо -->
<g id="edge3" class="edge">
<title>Кооордината мяча X&#45;&gt;Движение вправо</title>
<path fill="none" stroke="green" stroke-width="0.37" d="M433.44,-151.58C437.66,-143.81 444.27,-131.65 451.33,-118.66"/>
<polygon fill="green" stroke="green" stroke-width="0.37" points="454.29,-120.53 455.99,-110.08 448.14,-117.19 454.29,-120.53"/>
</g>
<!-- Коррдината мяча Y -->
<g id="node2" class="node">
<title>Коррдината мяча Y</title>
<polygon fill="lightgray" stroke="black" points="584.88,-170.47 494.62,-170.47 494.62,-151.97 584.88,-151.97 584.88,-170.47"/>
<text text-anchor="middle" x="539.75" y="-157.92" font-family="Times,serif" font-size="9.00">Коррдината мяча Y</text>
</g>
<!-- Коррдината мяча Y&#45;&gt;Движение влево -->
<g id="edge4" class="edge">
<title>Коррдината мяча Y&#45;&gt;Движение влево</title>
<path fill="none" stroke="red" stroke-width="0.28" d="M494.22,-153.29C421.09,-142.06 284.57,-120.67 274.75,-115.97 268.29,-112.87 262,-108.93 256.04,-104.57"/>
<polygon fill="red" stroke="red" stroke-width="0.28" points="258.5,-102.05 248.47,-98.65 254.2,-107.57 258.5,-102.05"/>
</g>
<!-- Коррдината мяча Y&#45;&gt;Стоять на месте -->
<g id="edge5" class="edge">
<title>Коррдината мяча Y&#45;&gt;Стоять на месте</title>
<path fill="none" stroke="red" stroke-width="0.1" d="M508.18,-151.47C482.72,-143.81 446.41,-131.49 416.75,-115.97 406.48,-110.59 396.03,-104.05 386.21,-97.35"/>
<polygon fill="red" stroke="red" stroke-width="0.1" points="388.45,-94.65 378.25,-91.79 384.44,-100.39 388.45,-94.65"/>
</g>
<!-- Коррдината мяча Y&#45;&gt;Движение вправо -->
<g id="edge6" class="edge">
<title>Коррдината мяча Y&#45;&gt;Движение вправо</title>
<path fill="none" stroke="green" stroke-width="0.2" d="M534.98,-151.58C530.59,-143.66 523.68,-131.17 516.34,-117.89"/>
<polygon fill="green" stroke="green" stroke-width="0.2" points="519.52,-116.42 511.62,-109.37 513.4,-119.81 519.52,-116.42"/>
</g>
<!-- Разница между X шарика и X платформы -->
<g id="node3" class="node">
<title>Разница между X шарика и X платформы</title>
<polygon fill="lightgray" stroke="black" points="173.5,-170.47 0,-170.47 0,-151.97 173.5,-151.97 173.5,-170.47"/>
<text text-anchor="middle" x="86.75" y="-157.92" font-family="Times,serif" font-size="9.00">Разница между X шарика и X платформы</text>
</g>
<!-- Разница между X шарика и X платформы&#45;&gt;Движение влево -->
<g id="edge7" class="edge">
<title>Разница между X шарика и X платформы&#45;&gt;Движение влево</title>
<path fill="none" stroke="red" stroke-width="0.2" d="M97.32,-151.58C111.37,-140.11 137.15,-119.07 160.59,-99.93"/>
<polygon fill="red" stroke="red" stroke-width="0.2" points="162.66,-102.76 168.2,-93.72 158.24,-97.34 162.66,-102.76"/>
</g>
<!-- Разница между X шарика и X платформы&#45;&gt;Стоять на месте -->
<g id="edge8" class="edge">
<title>Разница между X шарика и X платформы&#45;&gt;Стоять на месте</title>
<path fill="none" stroke="green" stroke-width="0.14" d="M162.18,-151.49C197.84,-145.15 240.08,-134.33 274.75,-115.97 281.06,-112.62 287.21,-108.49 293.04,-103.98"/>
<polygon fill="green" stroke="green" stroke-width="0.14" points="295.1,-106.81 300.62,-97.77 290.66,-101.4 295.1,-106.81"/>
</g>
<!-- Разница между X шарика и X платформы&#45;&gt;Движение вправо -->
<g id="edge9" class="edge">
<title>Разница между X шарика и X платформы&#45;&gt;Движение вправо</title>
<path fill="none" stroke="green" stroke-width="0.85" d="M170.27,-151.49C260.59,-141.67 394.67,-125.8 416.75,-115.97 422.65,-113.34 428.42,-110.02 433.96,-106.32"/>
<polygon fill="green" stroke="green" stroke-width="0.85" points="435.92,-109.22 441.98,-100.53 431.82,-103.55 435.92,-109.22"/>
</g>
<!-- Разница между Y шарика и Y платформы -->
<g id="node4" class="node">
<title>Разница между Y шарика и Y платформы</title>
<polygon fill="lightgray" stroke="black" points="363.75,-170.47 191.75,-170.47 191.75,-151.97 363.75,-151.97 363.75,-170.47"/>
<text text-anchor="middle" x="277.75" y="-157.92" font-family="Times,serif" font-size="9.00">Разница между Y шарика и Y платформы</text>
</g>
<!-- Разница между Y шарика и Y платформы&#45;&gt;Движение влево -->
<g id="edge10" class="edge">
<title>Разница между Y шарика и Y платформы&#45;&gt;Движение влево</title>
<path fill="none" stroke="red" stroke-width="0.28" d="M272.04,-151.58C266.11,-142.63 256.32,-127.83 246.28,-112.67"/>
<polygon fill="red" stroke="red" stroke-width="0.28" points="249.37,-110.99 240.93,-104.58 243.53,-114.86 249.37,-110.99"/>
</g>
<!-- Разница между Y шарика и Y платформы&#45;&gt;Стоять на месте -->
<g id="edge11" class="edge">
<title>Разница между Y шарика и Y платформы&#45;&gt;Стоять на месте</title>
<path fill="none" stroke="red" stroke-width="0.41" d="M282.78,-151.58C287.95,-142.71 296.46,-128.1 305.22,-113.09"/>
<polygon fill="red" stroke="red" stroke-width="0.41" points="308.05,-115.18 310.06,-104.78 302,-111.66 308.05,-115.18"/>
</g>
<!-- Разница между Y шарика и Y платформы&#45;&gt;Движение вправо -->
<g id="edge12" class="edge">
<title>Разница между Y шарика и Y платформы&#45;&gt;Движение вправо</title>
<path fill="none" stroke="red" stroke-width="0.5" d="M319.64,-151.48C348.18,-144.45 386.19,-132.92 416.75,-115.97 422.45,-112.81 428.1,-109.12 433.58,-105.16"/>
<polygon fill="red" stroke="red" stroke-width="0.5" points="435.55,-108.06 441.41,-99.23 431.32,-102.48 435.55,-108.06"/>
</g>
<!-- Стоять на месте&#45;&gt;Стоять на месте -->
<g id="edge13" class="edge">
<title>Стоять на месте&#45;&gt;Стоять на месте</title>
<path fill="none" stroke="red" stroke-width="0.3" d="M386.66,-77.04C398.87,-75.63 407.96,-69.27 407.96,-57.98 407.96,-50.04 403.47,-44.55 396.56,-41.49"/>
<polygon fill="red" stroke="red" stroke-width="0.3" points="397.66,-38.16 387.1,-39.04 395.9,-44.94 397.66,-38.16"/>
</g>
<!-- Движение вправо&#45;&gt;Движение вправо -->
<g id="edge14" class="edge">
<title>Движение вправо&#45;&gt;Движение вправо</title>
<path fill="none" stroke="red" stroke-width="0.37" d="M539.07,-76.77C551.05,-74.93 559.73,-68.67 559.73,-57.98 559.73,-50.64 555.63,-45.38 549.17,-42.22"/>
<polygon fill="red" stroke="red" stroke-width="0.37" points="550.2,-38.87 539.61,-39.36 548.19,-45.58 550.2,-38.87"/>
</g>
</g>
</svg>
