<?xml version="1.0" encoding="UTF-8" standalone="no"?>
<!DOCTYPE svg PUBLIC "-//W3C//DTD SVG 1.1//EN"
 "http://www.w3.org/Graphics/SVG/1.1/DTD/svg11.dtd">
<!-- Generated by graphviz version 9.0.0 (20230911.1827)
 -->
<!-- Pages: 1 -->
<svg width="593pt" height="399pt"
 viewBox="0.00 0.00 592.75 398.60" xmlns="http://www.w3.org/2000/svg" xmlns:xlink="http://www.w3.org/1999/xlink">
<g id="graph0" class="graph" transform="scale(1 1) rotate(0) translate(4 394.6)">
<polygon fill="white" stroke="none" points="-4,4 -4,-394.6 588.75,-394.6 588.75,4 -4,4"/>
<!-- Кооордината мяча X -->
<g id="node1" class="node">
<title>Кооордината мяча X</title>
<polygon fill="lightgray" stroke="black" points="284.38,-390.6 189.62,-390.6 189.62,-372.1 284.38,-372.1 284.38,-390.6"/>
<text text-anchor="middle" x="237" y="-378.05" font-family="Times,serif" font-size="9.00">Кооордината мяча X</text>
</g>
<!-- Движение влево -->
<g id="node5" class="node">
<title>Движение влево</title>
<ellipse fill="lightblue" stroke="black" cx="168" cy="-278.12" rx="54.8" ry="54.8"/>
<text text-anchor="middle" x="168" y="-274.82" font-family="Times,serif" font-size="9.00">Движение влево</text>
</g>
<!-- Кооордината мяча X&#45;&gt;Движение влево -->
<g id="edge1" class="edge">
<title>Кооордината мяча X&#45;&gt;Движение влево</title>
<path fill="none" stroke="green" stroke-width="0.45" d="M231.12,-371.72C224.96,-362.69 214.74,-347.7 204.31,-332.39"/>
<polygon fill="green" stroke="green" stroke-width="0.45" points="207.43,-330.75 198.9,-324.46 201.64,-334.69 207.43,-330.75"/>
</g>
<!-- Стоять на месте -->
<g id="node6" class="node">
<title>Стоять на месте</title>
<ellipse fill="lightblue" stroke="black" cx="289" cy="-53.21" rx="53.21" ry="53.21"/>
<text text-anchor="middle" x="289" y="-49.91" font-family="Times,serif" font-size="9.00">Стоять на месте</text>
</g>
<!-- Кооордината мяча X&#45;&gt;Стоять на месте -->
<g id="edge2" class="edge">
<title>Кооордината мяча X&#45;&gt;Стоять на месте</title>
<path fill="none" stroke="red" stroke-width="0.12" d="M238.39,-371.63C244.1,-335.8 266.08,-197.96 279.12,-116.17"/>
<polygon fill="red" stroke="red" stroke-width="0.12" points="282.56,-116.84 280.68,-106.41 275.65,-115.74 282.56,-116.84"/>
</g>
<!-- Движение вправо -->
<g id="node7" class="node">
<title>Движение вправо</title>
<ellipse fill="lightblue" stroke="black" cx="413" cy="-278.12" rx="57.98" ry="57.98"/>
<text text-anchor="middle" x="413" y="-274.82" font-family="Times,serif" font-size="9.00">Движение вправо</text>
</g>
<!-- Кооордината мяча X&#45;&gt;Движение вправо -->
<g id="edge3" class="edge">
<title>Кооордината мяча X&#45;&gt;Движение вправо</title>
<path fill="none" stroke="red" stroke-width="0.26" stroke-dasharray="1,5" d="M252.01,-371.72C274.38,-358.85 317.73,-333.92 353.82,-313.16"/>
<polygon fill="red" stroke="red" stroke-width="0.26" points="355.55,-316.21 362.47,-308.19 352.06,-310.14 355.55,-316.21"/>
</g>
<!-- Коррдината мяча Y -->
<g id="node2" class="node">
<title>Коррдината мяча Y</title>
<polygon fill="lightgray" stroke="black" points="393.12,-390.6 302.88,-390.6 302.88,-372.1 393.12,-372.1 393.12,-390.6"/>
<text text-anchor="middle" x="348" y="-378.05" font-family="Times,serif" font-size="9.00">Коррдината мяча Y</text>
</g>
<!-- Коррдината мяча Y&#45;&gt;Стоять на месте -->
<g id="edge4" class="edge">
<title>Коррдината мяча Y&#45;&gt;Стоять на месте</title>
<path fill="none" stroke="green" stroke-width="0.18" stroke-dasharray="1,5" d="M345.75,-371.9C343.42,-363.02 339.75,-348.63 337,-336.1 322.26,-268.94 319.42,-251.94 308,-184.14 304.27,-162.02 300.6,-137.7 297.5,-116.15"/>
<polygon fill="green" stroke="green" stroke-width="0.18" points="300.99,-115.8 296.11,-106.4 294.06,-116.79 300.99,-115.8"/>
</g>
<!-- Коррдината мяча Y&#45;&gt;Движение вправо -->
<g id="edge10" class="edge">
<title>Коррдината мяча Y&#45;&gt;Движение вправо</title>
<path fill="none" stroke="green" stroke-width="0.35" stroke-dasharray="1,5" d="M353.54,-371.72C358.88,-363.41 367.45,-350.06 376.45,-336.05"/>
<polygon fill="green" stroke="green" stroke-width="0.35" points="379.33,-338.03 381.79,-327.73 373.44,-334.25 379.33,-338.03"/>
</g>
<!-- 107 -->
<g id="node8" class="node">
<title>107</title>
<ellipse fill="white" stroke="black" cx="338" cy="-163.28" rx="20.86" ry="20.86"/>
<text text-anchor="middle" x="338" y="-159.98" font-family="Times,serif" font-size="9.00">107</text>
</g>
<!-- Коррдината мяча Y&#45;&gt;107 -->
<g id="edge11" class="edge">
<title>Коррдината мяча Y&#45;&gt;107</title>
<path fill="none" stroke="green" stroke-width="0.14" d="M347.6,-371.62C346.22,-341.98 341.71,-244.39 339.39,-194.39"/>
<polygon fill="green" stroke="green" stroke-width="0.14" points="342.9,-194.52 338.94,-184.7 335.91,-194.85 342.9,-194.52"/>
</g>
<!-- Разница между X шарика и X платформы -->
<g id="node3" class="node">
<title>Разница между X шарика и X платформы</title>
<polygon fill="lightgray" stroke="black" points="584.75,-390.6 411.25,-390.6 411.25,-372.1 584.75,-372.1 584.75,-390.6"/>
<text text-anchor="middle" x="498" y="-378.05" font-family="Times,serif" font-size="9.00">Разница между X шарика и X платформы</text>
</g>
<!-- Разница между X шарика и X платформы&#45;&gt;Стоять на месте -->
<g id="edge5" class="edge">
<title>Разница между X шарика и X платформы&#45;&gt;Стоять на месте</title>
<path fill="none" stroke="green" stroke-width="0.51" d="M499.11,-371.73C501.94,-346.65 507.34,-272.18 480,-220.14 449.33,-161.75 388.93,-114.77 344.22,-85.9"/>
<polygon fill="green" stroke="green" stroke-width="0.51" points="346.2,-83.01 335.88,-80.61 342.45,-88.93 346.2,-83.01"/>
</g>
<!-- Разница между X шарика и X платформы&#45;&gt;Движение вправо -->
<g id="edge6" class="edge">
<title>Разница между X шарика и X платформы&#45;&gt;Движение вправо</title>
<path fill="none" stroke="red" stroke-width="0.45" d="M490.75,-371.72C482.89,-362.35 469.65,-346.59 456.31,-330.71"/>
<polygon fill="red" stroke="red" stroke-width="0.45" points="459.33,-328.85 450.21,-323.44 453.96,-333.35 459.33,-328.85"/>
</g>
<!-- Разница между Y шарика и Y платформы -->
<g id="node4" class="node">
<title>Разница между Y шарика и Y платформы</title>
<polygon fill="lightgray" stroke="black" points="172,-390.6 0,-390.6 0,-372.1 172,-372.1 172,-390.6"/>
<text text-anchor="middle" x="86" y="-378.05" font-family="Times,serif" font-size="9.00">Разница между Y шарика и Y платформы</text>
</g>
<!-- Разница между Y шарика и Y платформы&#45;&gt;Движение влево -->
<g id="edge7" class="edge">
<title>Разница между Y шарика и Y платформы&#45;&gt;Движение влево</title>
<path fill="none" stroke="red" stroke-width="1.22" d="M92.99,-371.72C100.64,-362.28 113.54,-346.35 126.51,-330.34"/>
<polygon fill="red" stroke="red" stroke-width="1.22" points="128.95,-332.89 132.53,-322.91 123.51,-328.48 128.95,-332.89"/>
</g>
<!-- Разница между Y шарика и Y платформы&#45;&gt;Стоять на месте -->
<g id="edge8" class="edge">
<title>Разница между Y шарика и Y платформы&#45;&gt;Стоять на месте</title>
<path fill="none" stroke="red" stroke-width="0.51" d="M84.93,-371.76C82.21,-346.73 77.08,-272.39 104,-220.14 133.49,-162.91 191.46,-116.02 234.68,-86.86"/>
<polygon fill="red" stroke="red" stroke-width="0.51" points="236.34,-89.96 242.75,-81.52 232.48,-84.13 236.34,-89.96"/>
</g>
<!-- Стоять на месте&#45;&gt;Стоять на месте -->
<g id="edge9" class="edge">
<title>Стоять на месте&#45;&gt;Стоять на месте</title>
<path fill="none" stroke="green" stroke-width="0.44" d="M338.59,-73.56C350.96,-72.14 360.21,-65.36 360.21,-53.21 360.21,-44.67 355.64,-38.78 348.62,-35.54"/>
<polygon fill="green" stroke="green" stroke-width="0.44" points="349.79,-32.23 339.22,-33.03 347.98,-38.99 349.79,-32.23"/>
</g>
<!-- Движение вправо&#45;&gt;107 -->
<g id="edge13" class="edge">
<title>Движение вправо&#45;&gt;107</title>
<path fill="none" stroke="green" stroke-width="0.24" d="M381.19,-229.27C372.16,-215.67 362.67,-201.4 354.9,-189.7"/>
<polygon fill="green" stroke="green" stroke-width="0.24" points="357.97,-188.01 349.52,-181.62 352.14,-191.88 357.97,-188.01"/>
</g>
<!-- 107&#45;&gt;Стоять на месте -->
<g id="edge12" class="edge">
<title>107&#45;&gt;Стоять на месте</title>
<path fill="none" stroke="green" stroke-width="0.25" d="M329.69,-143.95C325.51,-134.73 320.2,-123.01 314.8,-111.11"/>
<polygon fill="green" stroke="green" stroke-width="0.25" points="318.14,-110.01 310.83,-102.35 311.77,-112.9 318.14,-110.01"/>
</g>
</g>
</svg>
