<?xml version="1.0" encoding="UTF-8" standalone="no"?>
<!DOCTYPE svg PUBLIC "-//W3C//DTD SVG 1.1//EN"
 "http://www.w3.org/Graphics/SVG/1.1/DTD/svg11.dtd">
<!-- Generated by graphviz version 9.0.0 (20230911.1827)
 -->
<!-- Pages: 1 -->
<svg width="515pt" height="250pt"
 viewBox="0.00 0.00 514.99 249.82" xmlns="http://www.w3.org/2000/svg" xmlns:xlink="http://www.w3.org/1999/xlink">
<g id="graph0" class="graph" transform="scale(1 1) rotate(0) translate(4 245.82)">
<polygon fill="white" stroke="none" points="-4,4 -4,-245.82 510.99,-245.82 510.99,4 -4,4"/>
<!-- Кооордината мяча X -->
<g id="node1" class="node">
<title>Кооордината мяча X</title>
<polygon fill="lightgray" stroke="black" points="434.96,-178.89 340.21,-178.89 340.21,-160.39 434.96,-160.39 434.96,-178.89"/>
<text text-anchor="middle" x="387.59" y="-166.34" font-family="Times,serif" font-size="9.00">Кооордината мяча X</text>
</g>
<!-- Движение влево -->
<g id="node5" class="node">
<title>Движение влево</title>
<ellipse fill="lightblue" stroke="black" cx="387.59" cy="-57.98" rx="54.8" ry="54.8"/>
<text text-anchor="middle" x="387.59" y="-54.68" font-family="Times,serif" font-size="9.00">Движение влево</text>
</g>
<!-- Кооордината мяча X&#45;&gt;Движение влево -->
<g id="edge1" class="edge">
<title>Кооордината мяча X&#45;&gt;Движение влево</title>
<path fill="none" stroke="green" stroke-width="0.2" d="M387.59,-160.04C387.59,-151.63 387.59,-138 387.59,-123.43"/>
<polygon fill="green" stroke="green" stroke-width="0.2" points="391.09,-123.55 387.59,-113.55 384.09,-123.55 391.09,-123.55"/>
</g>
<!-- Стоять на месте -->
<g id="node6" class="node">
<title>Стоять на месте</title>
<ellipse fill="lightblue" stroke="black" cx="235.59" cy="-57.98" rx="53.21" ry="53.21"/>
<text text-anchor="middle" x="235.59" y="-54.68" font-family="Times,serif" font-size="9.00">Стоять на месте</text>
</g>
<!-- Кооордината мяча X&#45;&gt;Стоять на месте -->
<g id="edge2" class="edge">
<title>Кооордината мяча X&#45;&gt;Стоять на месте</title>
<path fill="none" stroke="red" stroke-width="0.19" d="M375.66,-160.04C356.71,-146.37 318.62,-118.89 286.94,-96.03"/>
<polygon fill="red" stroke="red" stroke-width="0.19" points="289,-93.2 278.85,-90.19 284.91,-98.88 289,-93.2"/>
</g>
<!-- Движение вправо -->
<g id="node7" class="node">
<title>Движение вправо</title>
<ellipse fill="lightblue" stroke="black" cx="88.59" cy="-57.98" rx="57.98" ry="57.98"/>
<text text-anchor="middle" x="88.59" y="-54.68" font-family="Times,serif" font-size="9.00">Движение вправо</text>
</g>
<!-- Кооордината мяча X&#45;&gt;Движение вправо -->
<g id="edge3" class="edge">
<title>Кооордината мяча X&#45;&gt;Движение вправо</title>
<path fill="none" stroke="red" stroke-width="0.1" d="M359.77,-159.97C350.81,-157.28 340.81,-154.39 331.59,-151.97 261.93,-133.68 239.72,-144.5 173.59,-115.97 163.24,-111.5 152.81,-105.75 142.96,-99.63"/>
<polygon fill="red" stroke="red" stroke-width="0.1" points="144.91,-96.72 134.6,-94.26 141.12,-102.61 144.91,-96.72"/>
</g>
<!-- Коррдината мяча Y -->
<g id="node2" class="node">
<title>Коррдината мяча Y</title>
<polygon fill="lightgray" stroke="black" points="132.71,-178.89 42.46,-178.89 42.46,-160.39 132.71,-160.39 132.71,-178.89"/>
<text text-anchor="middle" x="87.59" y="-166.34" font-family="Times,serif" font-size="9.00">Коррдината мяча Y</text>
</g>
<!-- Коррдината мяча Y&#45;&gt;Движение влево -->
<g id="edge4" class="edge">
<title>Коррдината мяча Y&#45;&gt;Движение влево</title>
<path fill="none" stroke="red" stroke-width="0.12" d="M114.09,-159.91C122.8,-157.18 132.56,-154.29 141.59,-151.97 218.07,-132.29 244.03,-149.37 315.59,-115.97 323.76,-112.15 331.83,-107.24 339.45,-101.91"/>
<polygon fill="red" stroke="red" stroke-width="0.12" points="341.38,-104.83 347.38,-96.09 337.24,-99.19 341.38,-104.83"/>
</g>
<!-- Коррдината мяча Y&#45;&gt;Стоять на месте -->
<g id="edge5" class="edge">
<title>Коррдината мяча Y&#45;&gt;Стоять на месте</title>
<path fill="none" stroke="red" stroke-width="0.22" d="M103.72,-160C121.47,-150.22 150.53,-133.37 173.59,-115.97 179.2,-111.73 184.9,-107.07 190.45,-102.3"/>
<polygon fill="red" stroke="red" stroke-width="0.22" points="192.45,-105.2 197.65,-95.97 187.83,-99.94 192.45,-105.2"/>
</g>
<!-- Коррдината мяча Y&#45;&gt;Движение вправо -->
<g id="edge6" class="edge">
<title>Коррдината мяча Y&#45;&gt;Движение вправо</title>
<path fill="none" stroke="green" stroke-width="0.14" d="M87.67,-160.04C87.74,-152.2 87.85,-139.81 87.97,-126.37"/>
<polygon fill="green" stroke="green" stroke-width="0.14" points="91.47,-126.68 88.06,-116.65 84.47,-126.62 91.47,-126.68"/>
</g>
<!-- Разница между X шарика и X платформы -->
<g id="node3" class="node">
<title>Разница между X шарика и X платформы</title>
<polygon fill="lightgray" stroke="black" points="329.34,-241.82 155.84,-241.82 155.84,-223.32 329.34,-223.32 329.34,-241.82"/>
<text text-anchor="middle" x="242.59" y="-229.27" font-family="Times,serif" font-size="9.00">Разница между X шарика и X платформы</text>
</g>
<!-- Разница между X шарика и X платформы&#45;&gt;Движение влево -->
<g id="edge7" class="edge">
<title>Разница между X шарика и X платформы&#45;&gt;Движение влево</title>
<path fill="none" stroke="red" stroke-width="0.33" stroke-dasharray="1,5" d="M329.68,-228.13C394.85,-223.5 476.25,-212.68 497.59,-187.32 525.66,-153.95 484.08,-116.08 444.25,-90.18"/>
<polygon fill="red" stroke="red" stroke-width="0.33" points="446.28,-87.32 435.96,-84.94 442.55,-93.24 446.28,-87.32"/>
</g>
<!-- Разница между X шарика и X платформы&#45;&gt;Стоять на месте -->
<g id="edge8" class="edge">
<title>Разница между X шарика и X платформы&#45;&gt;Стоять на месте</title>
<path fill="none" stroke="red" stroke-width="0.12" d="M155.53,-224.08C105.34,-217.76 49.18,-206.55 33.59,-187.32 -37.04,-100.17 86.7,-163.15 173.59,-115.97 179.86,-112.56 185.99,-108.38 191.81,-103.85"/>
<polygon fill="red" stroke="red" stroke-width="0.12" points="193.9,-106.66 199.4,-97.6 189.46,-101.26 193.9,-106.66"/>
</g>
<!-- Разница между X шарика и X платформы&#45;&gt;Движение вправо -->
<g id="edge9" class="edge">
<title>Разница между X шарика и X платформы&#45;&gt;Движение вправо</title>
<path fill="none" stroke="green" stroke-width="0.31" d="M155.6,-226.4C97.39,-220.91 28.17,-209.76 9.59,-187.32 -12.45,-160.7 9.28,-127.39 35.49,-101.37"/>
<polygon fill="green" stroke="green" stroke-width="0.31" points="37.81,-104 42.63,-94.56 32.97,-98.93 37.81,-104"/>
</g>
<!-- 26 -->
<g id="node8" class="node">
<title>26</title>
<ellipse fill="white" stroke="black" cx="470.59" cy="-169.64" rx="17.68" ry="17.68"/>
<text text-anchor="middle" x="470.59" y="-166.34" font-family="Times,serif" font-size="9.00">26</text>
</g>
<!-- Разница между X шарика и X платформы&#45;&gt;26 -->
<g id="edge15" class="edge">
<title>Разница между X шарика и X платформы&#45;&gt;26</title>
<path fill="none" stroke="red" stroke-width="0.19" d="M308.07,-222.87C348.2,-216.16 400.04,-204.97 443.59,-187.32 444.79,-186.83 446.01,-186.29 447.22,-185.71"/>
<polygon fill="red" stroke="red" stroke-width="0.19" points="448.89,-188.79 455.96,-180.89 445.52,-182.65 448.89,-188.79"/>
</g>
<!-- Разница между Y шарика и Y платформы -->
<g id="node4" class="node">
<title>Разница между Y шарика и Y платформы</title>
<polygon fill="lightgray" stroke="black" points="322.59,-178.89 150.59,-178.89 150.59,-160.39 322.59,-160.39 322.59,-178.89"/>
<text text-anchor="middle" x="236.59" y="-166.34" font-family="Times,serif" font-size="9.00">Разница между Y шарика и Y платформы</text>
</g>
<!-- Разница между Y шарика и Y платформы&#45;&gt;Движение влево -->
<g id="edge10" class="edge">
<title>Разница между Y шарика и Y платформы&#45;&gt;Движение влево</title>
<path fill="none" stroke="red" stroke-width="0.52" d="M250.24,-160.02C266.17,-149.85 293.19,-132.25 315.59,-115.97 322.63,-110.84 329.95,-105.31 337.1,-99.78"/>
<polygon fill="red" stroke="red" stroke-width="0.52" points="339.04,-102.7 344.77,-93.79 334.74,-97.18 339.04,-102.7"/>
</g>
<!-- Разница между Y шарика и Y платформы&#45;&gt;Стоять на месте -->
<g id="edge11" class="edge">
<title>Разница между Y шарика и Y платформы&#45;&gt;Стоять на месте</title>
<path fill="none" stroke="red" stroke-width="0.29" d="M236.51,-160.04C236.43,-151.3 236.3,-136.92 236.16,-121.71"/>
<polygon fill="red" stroke="red" stroke-width="0.29" points="239.66,-122.05 236.07,-112.09 232.66,-122.12 239.66,-122.05"/>
</g>
<!-- Разница между Y шарика и Y платформы&#45;&gt;Движение вправо -->
<g id="edge12" class="edge">
<title>Разница между Y шарика и Y платформы&#45;&gt;Движение вправо</title>
<path fill="none" stroke="green" stroke-width="0.44" d="M224.98,-160.04C207.41,-147.02 172.96,-121.5 143.08,-99.36"/>
<polygon fill="green" stroke="green" stroke-width="0.44" points="145.45,-96.76 135.33,-93.62 141.28,-102.38 145.45,-96.76"/>
</g>
<!-- Стоять на месте&#45;&gt;Стоять на месте -->
<g id="edge13" class="edge">
<title>Стоять на месте&#45;&gt;Стоять на месте</title>
<path fill="none" stroke="red" stroke-width="0.37" d="M284.84,-78.67C297.38,-77.31 306.8,-70.41 306.8,-57.98 306.8,-49.24 302.14,-43.24 295.02,-39.97"/>
<polygon fill="red" stroke="red" stroke-width="0.37" points="295.95,-36.6 285.39,-37.44 294.17,-43.37 295.95,-36.6"/>
</g>
<!-- Движение вправо&#45;&gt;Движение вправо -->
<g id="edge14" class="edge">
<title>Движение вправо&#45;&gt;Движение вправо</title>
<path fill="none" stroke="red" stroke-width="0.15" d="M143.23,-78.41C155.56,-76.57 164.57,-69.76 164.57,-57.98 164.57,-49.52 159.91,-43.62 152.72,-40.29"/>
<polygon fill="red" stroke="red" stroke-width="0.15" points="154.03,-37.02 143.45,-37.62 152.09,-43.75 154.03,-37.02"/>
</g>
<!-- 26&#45;&gt;Движение влево -->
<g id="edge16" class="edge">
<title>26&#45;&gt;Движение влево</title>
<path fill="none" stroke="red" stroke-width="0.12" d="M460.41,-155.2C451.85,-143.89 439.05,-126.98 426.56,-110.47"/>
<polygon fill="red" stroke="red" stroke-width="0.12" points="429.4,-108.43 420.58,-102.57 423.82,-112.66 429.4,-108.43"/>
</g>
</g>
</svg>
