<?xml version="1.0" encoding="UTF-8" standalone="no"?>
<!DOCTYPE svg PUBLIC "-//W3C//DTD SVG 1.1//EN"
 "http://www.w3.org/Graphics/SVG/1.1/DTD/svg11.dtd">
<!-- Generated by graphviz version 9.0.0 (20230911.1827)
 -->
<!-- Pages: 1 -->
<svg width="601pt" height="178pt"
 viewBox="0.00 0.00 600.55 178.47" xmlns="http://www.w3.org/2000/svg" xmlns:xlink="http://www.w3.org/1999/xlink">
<g id="graph0" class="graph" transform="scale(1 1) rotate(0) translate(4 174.47)">
<polygon fill="white" stroke="none" points="-4,4 -4,-174.47 596.55,-174.47 596.55,4 -4,4"/>
<!-- Кооордината мяча X -->
<g id="node1" class="node">
<title>Кооордината мяча X</title>
<polygon fill="lightgray" stroke="black" points="102.18,-170.47 7.43,-170.47 7.43,-151.97 102.18,-151.97 102.18,-170.47"/>
<text text-anchor="middle" x="54.8" y="-157.92" font-family="Times,serif" font-size="9.00">Кооордината мяча X</text>
</g>
<!-- Движение влево -->
<g id="node5" class="node">
<title>Движение влево</title>
<ellipse fill="lightblue" stroke="black" cx="54.8" cy="-57.98" rx="54.8" ry="54.8"/>
<text text-anchor="middle" x="54.8" y="-54.68" font-family="Times,serif" font-size="9.00">Движение влево</text>
</g>
<!-- Кооордината мяча X&#45;&gt;Движение влево -->
<g id="edge1" class="edge">
<title>Кооордината мяча X&#45;&gt;Движение влево</title>
<path fill="none" stroke="green" stroke-width="0.27" d="M54.8,-151.58C54.8,-144.71 54.8,-134.38 54.8,-123.09"/>
<polygon fill="green" stroke="green" stroke-width="0.27" points="58.3,-123.39 54.8,-113.39 51.3,-123.39 58.3,-123.39"/>
</g>
<!-- Стоять на месте -->
<g id="node6" class="node">
<title>Стоять на месте</title>
<ellipse fill="lightblue" stroke="black" cx="332.8" cy="-57.98" rx="53.21" ry="53.21"/>
<text text-anchor="middle" x="332.8" y="-54.68" font-family="Times,serif" font-size="9.00">Стоять на месте</text>
</g>
<!-- Кооордината мяча X&#45;&gt;Стоять на месте -->
<g id="edge2" class="edge">
<title>Кооордината мяча X&#45;&gt;Стоять на месте</title>
<path fill="none" stroke="red" stroke-width="0.16" d="M102.53,-151.84C161.52,-141.26 255.98,-123.55 270.8,-115.97 277.15,-112.72 283.34,-108.64 289.19,-104.16"/>
<polygon fill="red" stroke="red" stroke-width="0.16" points="291.21,-107.02 296.75,-98 286.79,-101.6 291.21,-107.02"/>
</g>
<!-- Движение вправо -->
<g id="node7" class="node">
<title>Движение вправо</title>
<ellipse fill="lightblue" stroke="black" cx="185.8" cy="-57.98" rx="57.98" ry="57.98"/>
<text text-anchor="middle" x="185.8" y="-54.68" font-family="Times,serif" font-size="9.00">Движение вправо</text>
</g>
<!-- Кооордината мяча X&#45;&gt;Движение вправо -->
<g id="edge3" class="edge">
<title>Кооордината мяча X&#45;&gt;Движение вправо</title>
<path fill="none" stroke="red" stroke-width="0.18" stroke-dasharray="1,5" d="M68.07,-151.61C81.2,-142.95 101.77,-129.05 118.8,-115.97 124.01,-111.97 129.36,-107.7 134.65,-103.38"/>
<polygon fill="red" stroke="red" stroke-width="0.18" points="136.66,-106.25 142.14,-97.19 132.21,-100.86 136.66,-106.25"/>
</g>
<!-- Коррдината мяча Y -->
<g id="node2" class="node">
<title>Коррдината мяча Y</title>
<polygon fill="lightgray" stroke="black" points="210.93,-170.47 120.68,-170.47 120.68,-151.97 210.93,-151.97 210.93,-170.47"/>
<text text-anchor="middle" x="165.8" y="-157.92" font-family="Times,serif" font-size="9.00">Коррдината мяча Y</text>
</g>
<!-- Коррдината мяча Y&#45;&gt;Движение влево -->
<g id="edge4" class="edge">
<title>Коррдината мяча Y&#45;&gt;Движение влево</title>
<path fill="none" stroke="red" stroke-width="0.32" d="M156.34,-151.58C144.34,-140.65 122.8,-120.99 102.63,-102.6"/>
<polygon fill="red" stroke="red" stroke-width="0.32" points="105.09,-100.11 95.34,-95.96 100.37,-105.28 105.09,-100.11"/>
</g>
<!-- Коррдината мяча Y&#45;&gt;Стоять на месте -->
<g id="edge5" class="edge">
<title>Коррдината мяча Y&#45;&gt;Стоять на месте</title>
<path fill="none" stroke="red" stroke-width="0.41" d="M193.39,-151.53C215.35,-143.94 246.34,-131.68 270.8,-115.97 276.59,-112.25 282.34,-107.97 287.87,-103.47"/>
<polygon fill="red" stroke="red" stroke-width="0.41" points="289.97,-106.28 295.34,-97.15 285.45,-100.94 289.97,-106.28"/>
</g>
<!-- Коррдината мяча Y&#45;&gt;Движение вправо -->
<g id="edge13" class="edge">
<title>Коррдината мяча Y&#45;&gt;Движение вправо</title>
<path fill="none" stroke="red" stroke-width="0.33" d="M167.51,-151.58C168.78,-145.13 170.65,-135.66 172.72,-125.19"/>
<polygon fill="red" stroke="red" stroke-width="0.33" points="176.15,-125.9 174.65,-115.41 169.28,-124.54 176.15,-125.9"/>
</g>
<!-- Разница между X шарика и X платформы -->
<g id="node3" class="node">
<title>Разница между X шарика и X платформы</title>
<polygon fill="lightgray" stroke="black" points="592.55,-170.47 419.05,-170.47 419.05,-151.97 592.55,-151.97 592.55,-170.47"/>
<text text-anchor="middle" x="505.8" y="-157.92" font-family="Times,serif" font-size="9.00">Разница между X шарика и X платформы</text>
</g>
<!-- Разница между X шарика и X платформы&#45;&gt;Стоять на месте -->
<g id="edge6" class="edge">
<title>Разница между X шарика и X платформы&#45;&gt;Стоять на месте</title>
<path fill="none" stroke="green" stroke-width="0.43" d="M491.05,-151.58C468.3,-138.27 423.5,-112.06 387.36,-90.91"/>
<polygon fill="green" stroke="green" stroke-width="0.43" points="389.34,-88.01 378.94,-85.98 385.8,-94.05 389.34,-88.01"/>
</g>
<!-- Разница между X шарика и X платформы&#45;&gt;Движение вправо -->
<g id="edge7" class="edge">
<title>Разница между X шарика и X платформы&#45;&gt;Движение вправо</title>
<path fill="none" stroke="green" stroke-width="0.27" d="M418.58,-152.3C373.25,-146.09 317.68,-135.14 270.8,-115.97 260.25,-111.65 249.64,-105.91 239.67,-99.74"/>
<polygon fill="green" stroke="green" stroke-width="0.27" points="241.74,-96.91 231.43,-94.45 237.95,-102.8 241.74,-96.91"/>
</g>
<!-- Разница между Y шарика и Y платформы -->
<g id="node4" class="node">
<title>Разница между Y шарика и Y платформы</title>
<polygon fill="lightgray" stroke="black" points="400.8,-170.47 228.8,-170.47 228.8,-151.97 400.8,-151.97 400.8,-170.47"/>
<text text-anchor="middle" x="314.8" y="-157.92" font-family="Times,serif" font-size="9.00">Разница между Y шарика и Y платформы</text>
</g>
<!-- Разница между Y шарика и Y платформы&#45;&gt;Движение влево -->
<g id="edge8" class="edge">
<title>Разница между Y шарика и Y платформы&#45;&gt;Движение влево</title>
<path fill="none" stroke="red" stroke-width="0.97" d="M234.87,-151.5C198.03,-145.19 154.64,-134.38 118.8,-115.97 112.72,-112.84 106.76,-109 101.08,-104.81"/>
<polygon fill="red" stroke="red" stroke-width="0.97" points="103.57,-102.31 93.55,-98.88 99.24,-107.81 103.57,-102.31"/>
</g>
<!-- Разница между Y шарика и Y платформы&#45;&gt;Стоять на месте -->
<g id="edge9" class="edge">
<title>Разница между Y шарика и Y платформы&#45;&gt;Стоять на месте</title>
<path fill="none" stroke="red" stroke-width="0.21" d="M316.34,-151.58C317.65,-144.19 319.67,-132.81 321.86,-120.53"/>
<polygon fill="red" stroke="red" stroke-width="0.21" points="325.27,-121.32 323.58,-110.86 318.38,-120.1 325.27,-121.32"/>
</g>
<!-- Разница между Y шарика и Y платформы&#45;&gt;Движение вправо -->
<g id="edge10" class="edge">
<title>Разница между Y шарика и Y платформы&#45;&gt;Движение вправо</title>
<path fill="none" stroke="red" stroke-width="0.21" d="M303.8,-151.58C289.46,-140.33 263.36,-119.85 239.35,-101.01"/>
<polygon fill="red" stroke="red" stroke-width="0.21" points="241.59,-98.31 231.56,-94.89 237.26,-103.82 241.59,-98.31"/>
</g>
<!-- Стоять на месте&#45;&gt;Стоять на месте -->
<g id="edge11" class="edge">
<title>Стоять на месте&#45;&gt;Стоять на месте</title>
<path fill="none" stroke="green" stroke-width="0.38" d="M382.71,-77.04C394.92,-75.63 404.01,-69.27 404.01,-57.98 404.01,-50.04 399.52,-44.55 392.61,-41.49"/>
<polygon fill="green" stroke="green" stroke-width="0.38" points="393.84,-38.2 383.28,-39.07 392.08,-44.97 393.84,-38.2"/>
</g>
<!-- Движение вправо&#45;&gt;Движение вправо -->
<g id="edge12" class="edge">
<title>Движение вправо&#45;&gt;Движение вправо</title>
<path fill="none" stroke="red" stroke-width="0.25" d="M241.12,-76.77C253.1,-74.93 261.78,-68.67 261.78,-57.98 261.78,-50.47 257.49,-45.14 250.78,-42"/>
<polygon fill="red" stroke="red" stroke-width="0.25" points="252.07,-38.74 241.49,-39.31 250.12,-45.46 252.07,-38.74"/>
</g>
</g>
</svg>
