<?xml version="1.0" encoding="UTF-8" standalone="no"?>
<!DOCTYPE svg PUBLIC "-//W3C//DTD SVG 1.1//EN"
 "http://www.w3.org/Graphics/SVG/1.1/DTD/svg11.dtd">
<!-- Generated by graphviz version 9.0.0 (20230911.1827)
 -->
<!-- Pages: 1 -->
<svg width="593pt" height="178pt"
 viewBox="0.00 0.00 592.75 178.47" xmlns="http://www.w3.org/2000/svg" xmlns:xlink="http://www.w3.org/1999/xlink">
<g id="graph0" class="graph" transform="scale(1 1) rotate(0) translate(4 174.47)">
<polygon fill="white" stroke="none" points="-4,4 -4,-174.47 588.75,-174.47 588.75,4 -4,4"/>
<!-- Кооордината мяча X -->
<g id="node1" class="node">
<title>Кооордината мяча X</title>
<polygon fill="lightgray" stroke="black" points="284.38,-170.47 189.62,-170.47 189.62,-151.97 284.38,-151.97 284.38,-170.47"/>
<text text-anchor="middle" x="237" y="-157.92" font-family="Times,serif" font-size="9.00">Кооордината мяча X</text>
</g>
<!-- Движение влево -->
<g id="node5" class="node">
<title>Движение влево</title>
<ellipse fill="lightblue" stroke="black" cx="99" cy="-57.98" rx="54.8" ry="54.8"/>
<text text-anchor="middle" x="99" y="-54.68" font-family="Times,serif" font-size="9.00">Движение влево</text>
</g>
<!-- Кооордината мяча X&#45;&gt;Движение влево -->
<g id="edge1" class="edge">
<title>Кооордината мяча X&#45;&gt;Движение влево</title>
<path fill="none" stroke="green" stroke-width="0.23" d="M224.59,-151.49C212.03,-142.62 192.08,-128.46 175,-115.97 167.01,-110.12 158.6,-103.89 150.39,-97.77"/>
<polygon fill="green" stroke="green" stroke-width="0.23" points="152.66,-95.1 142.56,-91.92 148.47,-100.71 152.66,-95.1"/>
</g>
<!-- Стоять на месте -->
<g id="node6" class="node">
<title>Стоять на месте</title>
<ellipse fill="lightblue" stroke="black" cx="237" cy="-57.98" rx="53.21" ry="53.21"/>
<text text-anchor="middle" x="237" y="-54.68" font-family="Times,serif" font-size="9.00">Стоять на месте</text>
</g>
<!-- Кооордината мяча X&#45;&gt;Стоять на месте -->
<g id="edge2" class="edge">
<title>Кооордината мяча X&#45;&gt;Стоять на месте</title>
<path fill="none" stroke="red" stroke-width="0.12" d="M237,-151.58C237,-144.41 237,-133.49 237,-121.64"/>
<polygon fill="red" stroke="red" stroke-width="0.12" points="240.5,-121.71 237,-111.71 233.5,-121.71 240.5,-121.71"/>
</g>
<!-- Движение вправо -->
<g id="node7" class="node">
<title>Движение вправо</title>
<ellipse fill="lightblue" stroke="black" cx="384" cy="-57.98" rx="57.98" ry="57.98"/>
<text text-anchor="middle" x="384" y="-54.68" font-family="Times,serif" font-size="9.00">Движение вправо</text>
</g>
<!-- Кооордината мяча X&#45;&gt;Движение вправо -->
<g id="edge3" class="edge">
<title>Кооордината мяча X&#45;&gt;Движение вправо</title>
<path fill="none" stroke="red" stroke-width="0.23" stroke-dasharray="1,5" d="M255.08,-151.52C271.71,-143.23 296.77,-129.96 317,-115.97 322.48,-112.17 328.05,-108.02 333.5,-103.73"/>
<polygon fill="red" stroke="red" stroke-width="0.23" points="335.53,-106.59 341.13,-97.6 331.14,-101.14 335.53,-106.59"/>
</g>
<!-- Коррдината мяча Y -->
<g id="node2" class="node">
<title>Коррдината мяча Y</title>
<polygon fill="lightgray" stroke="black" points="393.12,-170.47 302.88,-170.47 302.88,-151.97 393.12,-151.97 393.12,-170.47"/>
<text text-anchor="middle" x="348" y="-157.92" font-family="Times,serif" font-size="9.00">Коррдината мяча Y</text>
</g>
<!-- Коррдината мяча Y&#45;&gt;Стоять на месте -->
<g id="edge4" class="edge">
<title>Коррдината мяча Y&#45;&gt;Стоять на месте</title>
<path fill="none" stroke="red" stroke-width="0.29" d="M338.54,-151.58C326.3,-140.43 304.13,-120.21 283.62,-101.5"/>
<polygon fill="red" stroke="red" stroke-width="0.29" points="286.23,-99.14 276.48,-94.99 281.51,-104.32 286.23,-99.14"/>
</g>
<!-- Коррдината мяча Y&#45;&gt;Движение вправо -->
<g id="edge10" class="edge">
<title>Коррдината мяча Y&#45;&gt;Движение вправо</title>
<path fill="none" stroke="red" stroke-width="0.65" stroke-dasharray="1,5" d="M351.07,-151.58C353.52,-144.71 357.19,-134.38 361.2,-123.09"/>
<polygon fill="red" stroke="red" stroke-width="0.65" points="364.41,-124.5 364.47,-113.91 357.82,-122.16 364.41,-124.5"/>
</g>
<!-- Разница между X шарика и X платформы -->
<g id="node3" class="node">
<title>Разница между X шарика и X платформы</title>
<polygon fill="lightgray" stroke="black" points="584.75,-170.47 411.25,-170.47 411.25,-151.97 584.75,-151.97 584.75,-170.47"/>
<text text-anchor="middle" x="498" y="-157.92" font-family="Times,serif" font-size="9.00">Разница между X шарика и X платформы</text>
</g>
<!-- Разница между X шарика и X платформы&#45;&gt;Стоять на месте -->
<g id="edge5" class="edge">
<title>Разница между X шарика и X платформы&#45;&gt;Стоять на месте</title>
<path fill="none" stroke="green" stroke-width="0.12" d="M438.24,-151.49C402.02,-144.78 355.53,-133.61 317,-115.97 306.46,-111.14 295.88,-104.86 286.02,-98.24"/>
<polygon fill="green" stroke="green" stroke-width="0.12" points="288.29,-95.55 278.08,-92.72 284.29,-101.3 288.29,-95.55"/>
</g>
<!-- Разница между X шарика и X платформы&#45;&gt;Движение вправо -->
<g id="edge6" class="edge">
<title>Разница между X шарика и X платформы&#45;&gt;Движение вправо</title>
<path fill="none" stroke="red" stroke-width="0.41" d="M488.28,-151.58C476.3,-140.94 455.03,-122.05 434.81,-104.1"/>
<polygon fill="red" stroke="red" stroke-width="0.41" points="437.4,-101.72 427.59,-97.69 432.75,-106.95 437.4,-101.72"/>
</g>
<!-- Разница между Y шарика и Y платформы -->
<g id="node4" class="node">
<title>Разница между Y шарика и Y платформы</title>
<polygon fill="lightgray" stroke="black" points="172,-170.47 0,-170.47 0,-151.97 172,-151.97 172,-170.47"/>
<text text-anchor="middle" x="86" y="-157.92" font-family="Times,serif" font-size="9.00">Разница между Y шарика и Y платформы</text>
</g>
<!-- Разница между Y шарика и Y платформы&#45;&gt;Движение влево -->
<g id="edge7" class="edge">
<title>Разница между Y шарика и Y платформы&#45;&gt;Движение влево</title>
<path fill="none" stroke="red" stroke-width="0.93" d="M87.11,-151.58C87.97,-144.84 89.26,-134.79 90.68,-123.76"/>
<polygon fill="red" stroke="red" stroke-width="0.93" points="94.15,-124.26 91.95,-113.89 87.2,-123.37 94.15,-124.26"/>
</g>
<!-- Разница между Y шарика и Y платформы&#45;&gt;Стоять на месте -->
<g id="edge8" class="edge">
<title>Разница между Y шарика и Y платформы&#45;&gt;Стоять на месте</title>
<path fill="none" stroke="green" stroke-width="0.25" d="M102.61,-151.51C118.47,-143.01 142.87,-129.41 163,-115.97 171.19,-110.49 179.66,-104.41 187.82,-98.31"/>
<polygon fill="green" stroke="green" stroke-width="0.25" points="189.69,-101.29 195.55,-92.46 185.46,-95.71 189.69,-101.29"/>
</g>
<!-- Стоять на месте&#45;&gt;Стоять на месте -->
<g id="edge9" class="edge">
<title>Стоять на месте&#45;&gt;Стоять на месте</title>
<path fill="none" stroke="green" stroke-width="0.41" d="M286.91,-77.04C299.12,-75.63 308.21,-69.27 308.21,-57.98 308.21,-50.04 303.72,-44.55 296.81,-41.49"/>
<polygon fill="green" stroke="green" stroke-width="0.41" points="298.07,-38.21 287.51,-39.09 296.32,-44.98 298.07,-38.21"/>
</g>
</g>
</svg>
