<?xml version="1.0" encoding="UTF-8" standalone="no"?>
<!DOCTYPE svg PUBLIC "-//W3C//DTD SVG 1.1//EN"
 "http://www.w3.org/Graphics/SVG/1.1/DTD/svg11.dtd">
<!-- Generated by graphviz version 9.0.0 (20230911.1827)
 -->
<!-- Pages: 1 -->
<svg width="592pt" height="178pt"
 viewBox="0.00 0.00 591.88 178.47" xmlns="http://www.w3.org/2000/svg" xmlns:xlink="http://www.w3.org/1999/xlink">
<g id="graph0" class="graph" transform="scale(1 1) rotate(0) translate(4 174.47)">
<polygon fill="white" stroke="none" points="-4,4 -4,-174.47 587.88,-174.47 587.88,4 -4,4"/>
<!-- Кооордината мяча X -->
<g id="node1" class="node">
<title>Кооордината мяча X</title>
<polygon fill="lightgray" stroke="black" points="392.5,-170.47 297.75,-170.47 297.75,-151.97 392.5,-151.97 392.5,-170.47"/>
<text text-anchor="middle" x="345.12" y="-157.92" font-family="Times,serif" font-size="9.00">Кооордината мяча X</text>
</g>
<!-- Движение влево -->
<g id="node5" class="node">
<title>Движение влево</title>
<ellipse fill="lightblue" stroke="black" cx="343.12" cy="-57.98" rx="54.8" ry="54.8"/>
<text text-anchor="middle" x="343.12" y="-54.68" font-family="Times,serif" font-size="9.00">Движение влево</text>
</g>
<!-- Кооордината мяча X&#45;&gt;Движение влево -->
<g id="edge1" class="edge">
<title>Кооордината мяча X&#45;&gt;Движение влево</title>
<path fill="none" stroke="green" stroke-width="0.2" d="M344.95,-151.58C344.82,-144.71 344.61,-134.38 344.39,-123.09"/>
<polygon fill="green" stroke="green" stroke-width="0.2" points="347.89,-123.22 344.2,-113.29 340.9,-123.36 347.89,-123.22"/>
</g>
<!-- Стоять на месте -->
<g id="node6" class="node">
<title>Стоять на месте</title>
<ellipse fill="lightblue" stroke="black" cx="197.12" cy="-57.98" rx="53.21" ry="53.21"/>
<text text-anchor="middle" x="197.12" y="-54.68" font-family="Times,serif" font-size="9.00">Стоять на месте</text>
</g>
<!-- Кооордината мяча X&#45;&gt;Стоять на месте -->
<g id="edge2" class="edge">
<title>Кооордината мяча X&#45;&gt;Стоять на месте</title>
<path fill="none" stroke="red" stroke-width="0.22" d="M332.43,-151.79C319.11,-142.94 297.58,-128.57 279.12,-115.97 269.28,-109.25 258.81,-102.03 248.76,-95.06"/>
<polygon fill="red" stroke="red" stroke-width="0.22" points="250.92,-92.3 240.71,-89.47 246.93,-98.05 250.92,-92.3"/>
</g>
<!-- Движение вправо -->
<g id="node7" class="node">
<title>Движение вправо</title>
<ellipse fill="lightblue" stroke="black" cx="485.12" cy="-57.98" rx="57.98" ry="57.98"/>
<text text-anchor="middle" x="485.12" y="-54.68" font-family="Times,serif" font-size="9.00">Движение вправо</text>
</g>
<!-- Кооордината мяча X&#45;&gt;Движение вправо -->
<g id="edge3" class="edge">
<title>Кооордината мяча X&#45;&gt;Движение вправо</title>
<path fill="none" stroke="green" stroke-width="0.25" d="M357.04,-151.77C369.54,-142.9 389.76,-128.51 407.12,-115.97 414.61,-110.56 422.49,-104.84 430.24,-99.19"/>
<polygon fill="green" stroke="green" stroke-width="0.25" points="432.25,-102.06 438.27,-93.34 428.13,-96.4 432.25,-102.06"/>
</g>
<!-- Коррдината мяча Y -->
<g id="node2" class="node">
<title>Коррдината мяча Y</title>
<polygon fill="lightgray" stroke="black" points="90.25,-170.47 0,-170.47 0,-151.97 90.25,-151.97 90.25,-170.47"/>
<text text-anchor="middle" x="45.12" y="-157.92" font-family="Times,serif" font-size="9.00">Коррдината мяча Y</text>
</g>
<!-- Коррдината мяча Y&#45;&gt;Движение влево -->
<g id="edge4" class="edge">
<title>Коррдината мяча Y&#45;&gt;Движение влево</title>
<path fill="none" stroke="red" stroke-width="0.26" d="M90.72,-152.83C153.46,-142.46 260.58,-123.96 277.12,-115.97 284.02,-112.63 290.78,-108.38 297.17,-103.72"/>
<polygon fill="red" stroke="red" stroke-width="0.26" points="298.98,-106.75 304.75,-97.86 294.7,-101.21 298.98,-106.75"/>
</g>
<!-- Коррдината мяча Y&#45;&gt;Стоять на месте -->
<g id="edge5" class="edge">
<title>Коррдината мяча Y&#45;&gt;Стоять на месте</title>
<path fill="none" stroke="green" stroke-width="0.34" d="M58.08,-151.58C77.12,-138.91 113.71,-114.54 144.58,-93.98"/>
<polygon fill="green" stroke="green" stroke-width="0.34" points="146.31,-97.03 152.69,-88.58 142.43,-91.21 146.31,-97.03"/>
</g>
<!-- Разница между X шарика и X платформы -->
<g id="node3" class="node">
<title>Разница между X шарика и X платформы</title>
<polygon fill="lightgray" stroke="black" points="583.88,-170.47 410.38,-170.47 410.38,-151.97 583.88,-151.97 583.88,-170.47"/>
<text text-anchor="middle" x="497.12" y="-157.92" font-family="Times,serif" font-size="9.00">Разница между X шарика и X платформы</text>
</g>
<!-- Разница между X шарика и X платформы&#45;&gt;Движение влево -->
<g id="edge6" class="edge">
<title>Разница между X шарика и X платформы&#45;&gt;Движение влево</title>
<path fill="none" stroke="red" stroke-width="0.2" d="M480.08,-151.55C463.8,-143.07 438.77,-129.49 418.12,-115.97 410.11,-110.71 401.83,-104.87 393.82,-99"/>
<polygon fill="red" stroke="red" stroke-width="0.2" points="395.97,-96.23 385.86,-93.06 391.79,-101.84 395.97,-96.23"/>
</g>
<!-- Разница между X шарика и X платформы&#45;&gt;Стоять на месте -->
<g id="edge7" class="edge">
<title>Разница между X шарика и X платформы&#45;&gt;Стоять на месте</title>
<path fill="none" stroke="red" stroke-width="0.5" d="M414.26,-151.48C372.52,-145.08 321.83,-134.21 279.12,-115.97 268.15,-111.28 257.15,-104.99 246.93,-98.3"/>
<polygon fill="red" stroke="red" stroke-width="0.5" points="249.04,-95.5 238.8,-92.78 245.1,-101.29 249.04,-95.5"/>
</g>
<!-- Разница между X шарика и X платформы&#45;&gt;Движение вправо -->
<g id="edge8" class="edge">
<title>Разница между X шарика и X платформы&#45;&gt;Движение вправо</title>
<path fill="none" stroke="green" stroke-width="0.67" d="M496.1,-151.58C495.37,-145.41 494.31,-136.46 493.13,-126.52"/>
<polygon fill="green" stroke="green" stroke-width="0.67" points="496.64,-126.42 491.99,-116.9 489.69,-127.24 496.64,-126.42"/>
</g>
<!-- Разница между Y шарика и Y платформы -->
<g id="node4" class="node">
<title>Разница между Y шарика и Y платформы</title>
<polygon fill="lightgray" stroke="black" points="280.12,-170.47 108.12,-170.47 108.12,-151.97 280.12,-151.97 280.12,-170.47"/>
<text text-anchor="middle" x="194.12" y="-157.92" font-family="Times,serif" font-size="9.00">Разница между Y шарика и Y платформы</text>
</g>
<!-- Разница между Y шарика и Y платформы&#45;&gt;Движение влево -->
<g id="edge9" class="edge">
<title>Разница между Y шарика и Y платформы&#45;&gt;Движение влево</title>
<path fill="none" stroke="red" stroke-width="0.58" d="M213.28,-151.51C230.56,-143.31 256.38,-130.19 277.12,-115.97 283,-111.94 288.94,-107.47 294.73,-102.85"/>
<polygon fill="red" stroke="red" stroke-width="0.58" points="296.87,-105.62 302.39,-96.58 292.44,-100.2 296.87,-105.62"/>
</g>
<!-- Разница между Y шарика и Y платформы&#45;&gt;Стоять на месте -->
<g id="edge10" class="edge">
<title>Разница между Y шарика и Y платформы&#45;&gt;Стоять на месте</title>
<path fill="none" stroke="green" stroke-width="0.42" d="M194.38,-151.58C194.59,-144.48 194.91,-133.71 195.26,-122"/>
<polygon fill="green" stroke="green" stroke-width="0.42" points="198.75,-122.27 195.55,-112.17 191.75,-122.06 198.75,-122.27"/>
</g>
<!-- Стоять на месте&#45;&gt;Стоять на месте -->
<g id="edge11" class="edge">
<title>Стоять на месте&#45;&gt;Стоять на месте</title>
<path fill="none" stroke="red" stroke-width="0.12" d="M247.04,-77.04C259.25,-75.63 268.33,-69.27 268.33,-57.98 268.33,-49.87 263.64,-44.3 256.47,-41.29"/>
<polygon fill="red" stroke="red" stroke-width="0.12" points="257.77,-38.01 247.22,-38.97 256.07,-44.8 257.77,-38.01"/>
</g>
<!-- Движение вправо&#45;&gt;Движение вправо -->
<g id="edge12" class="edge">
<title>Движение вправо&#45;&gt;Движение вправо</title>
<path fill="none" stroke="red" stroke-width="0.24" d="M540.45,-76.77C552.42,-74.93 561.11,-68.67 561.11,-57.98 561.11,-50.47 556.81,-45.14 550.1,-42"/>
<polygon fill="red" stroke="red" stroke-width="0.24" points="551.38,-38.73 540.8,-39.3 549.43,-45.45 551.38,-38.73"/>
</g>
</g>
</svg>
