<?xml version="1.0" encoding="UTF-8" standalone="no"?>
<!DOCTYPE svg PUBLIC "-//W3C//DTD SVG 1.1//EN"
 "http://www.w3.org/Graphics/SVG/1.1/DTD/svg11.dtd">
<!-- Generated by graphviz version 9.0.0 (20230911.1827)
 -->
<!-- Pages: 1 -->
<svg width="593pt" height="178pt"
 viewBox="0.00 0.00 593.12 178.47" xmlns="http://www.w3.org/2000/svg" xmlns:xlink="http://www.w3.org/1999/xlink">
<g id="graph0" class="graph" transform="scale(1 1) rotate(0) translate(4 174.47)">
<polygon fill="white" stroke="none" points="-4,4 -4,-174.47 589.12,-174.47 589.12,4 -4,4"/>
<!-- Кооордината мяча X -->
<g id="node1" class="node">
<title>Кооордината мяча X</title>
<polygon fill="lightgray" stroke="black" points="94.75,-170.47 0,-170.47 0,-151.97 94.75,-151.97 94.75,-170.47"/>
<text text-anchor="middle" x="47.38" y="-157.92" font-family="Times,serif" font-size="9.00">Кооордината мяча X</text>
</g>
<!-- Движение влево -->
<g id="node5" class="node">
<title>Движение влево</title>
<ellipse fill="lightblue" stroke="black" cx="102.38" cy="-57.98" rx="54.8" ry="54.8"/>
<text text-anchor="middle" x="102.38" y="-54.68" font-family="Times,serif" font-size="9.00">Движение влево</text>
</g>
<!-- Кооордината мяча X&#45;&gt;Движение влево -->
<g id="edge1" class="edge">
<title>Кооордината мяча X&#45;&gt;Движение влево</title>
<path fill="none" stroke="green" stroke-width="0.37" d="M52.06,-151.58C56.58,-143.27 63.83,-129.92 71.44,-115.91"/>
<polygon fill="green" stroke="green" stroke-width="0.37" points="74.51,-117.61 76.21,-107.15 68.36,-114.26 74.51,-117.61"/>
</g>
<!-- Движение вправо -->
<g id="node7" class="node">
<title>Движение вправо</title>
<ellipse fill="lightblue" stroke="black" cx="233.38" cy="-57.98" rx="57.98" ry="57.98"/>
<text text-anchor="middle" x="233.38" y="-54.68" font-family="Times,serif" font-size="9.00">Движение вправо</text>
</g>
<!-- Кооордината мяча X&#45;&gt;Движение вправо -->
<g id="edge2" class="edge">
<title>Кооордината мяча X&#45;&gt;Движение вправо</title>
<path fill="none" stroke="red" stroke-width="0.38" stroke-dasharray="1,5" d="M79.8,-151.51C104.53,-144.1 138.9,-132.08 166.38,-115.97 172.13,-112.59 177.87,-108.71 183.43,-104.59"/>
<polygon fill="red" stroke="red" stroke-width="0.38" points="185.19,-107.66 190.98,-98.78 180.92,-102.11 185.19,-107.66"/>
</g>
<!-- Коррдината мяча Y -->
<g id="node2" class="node">
<title>Коррдината мяча Y</title>
<polygon fill="lightgray" stroke="black" points="203.5,-170.47 113.25,-170.47 113.25,-151.97 203.5,-151.97 203.5,-170.47"/>
<text text-anchor="middle" x="158.38" y="-157.92" font-family="Times,serif" font-size="9.00">Коррдината мяча Y</text>
</g>
<!-- Коррдината мяча Y&#45;&gt;Движение влево -->
<g id="edge3" class="edge">
<title>Коррдината мяча Y&#45;&gt;Движение влево</title>
<path fill="none" stroke="red" stroke-width="0.24" d="M153.6,-151.58C148.91,-143.11 141.33,-129.41 133.43,-115.11"/>
<polygon fill="red" stroke="red" stroke-width="0.24" points="136.56,-113.56 128.66,-106.5 130.44,-116.95 136.56,-113.56"/>
</g>
<!-- Стоять на месте -->
<g id="node6" class="node">
<title>Стоять на месте</title>
<ellipse fill="lightblue" stroke="black" cx="380.38" cy="-57.98" rx="53.21" ry="53.21"/>
<text text-anchor="middle" x="380.38" y="-54.68" font-family="Times,serif" font-size="9.00">Стоять на месте</text>
</g>
<!-- Коррдината мяча Y&#45;&gt;Стоять на месте -->
<g id="edge4" class="edge">
<title>Коррдината мяча Y&#45;&gt;Стоять на месте</title>
<path fill="none" stroke="red" stroke-width="0.43" d="M203.66,-153.58C236.96,-147.34 282.46,-135.89 318.38,-115.97 324.47,-112.58 330.45,-108.48 336.14,-104.05"/>
<polygon fill="red" stroke="red" stroke-width="0.43" points="338.26,-106.84 343.75,-97.78 333.81,-101.44 338.26,-106.84"/>
</g>
<!-- Коррдината мяча Y&#45;&gt;Движение вправо -->
<g id="edge12" class="edge">
<title>Коррдината мяча Y&#45;&gt;Движение вправо</title>
<path fill="none" stroke="red" stroke-width="0.46" d="M164.77,-151.58C171.29,-142.79 181.97,-128.36 193,-113.49"/>
<polygon fill="red" stroke="red" stroke-width="0.46" points="195.57,-115.88 198.72,-105.77 189.95,-111.72 195.57,-115.88"/>
</g>
<!-- Разница между X шарика и X платформы -->
<g id="node3" class="node">
<title>Разница между X шарика и X платформы</title>
<polygon fill="lightgray" stroke="black" points="585.12,-170.47 411.62,-170.47 411.62,-151.97 585.12,-151.97 585.12,-170.47"/>
<text text-anchor="middle" x="498.38" y="-157.92" font-family="Times,serif" font-size="9.00">Разница между X шарика и X платформы</text>
</g>
<!-- Разница между X шарика и X платформы&#45;&gt;Стоять на месте -->
<g id="edge5" class="edge">
<title>Разница между X шарика и X платформы&#45;&gt;Стоять на месте</title>
<path fill="none" stroke="green" stroke-width="0.33" d="M488.31,-151.58C474.95,-140.12 450.44,-119.09 428.15,-99.97"/>
<polygon fill="green" stroke="green" stroke-width="0.33" points="430.63,-97.48 420.76,-93.63 426.07,-102.79 430.63,-97.48"/>
</g>
<!-- Разница между X шарика и X платформы&#45;&gt;Движение вправо -->
<g id="edge6" class="edge">
<title>Разница между X шарика и X платформы&#45;&gt;Движение вправо</title>
<path fill="none" stroke="green" stroke-width="0.51" d="M441.58,-151.51C405.29,-144.69 357.82,-133.38 318.38,-115.97 308.17,-111.46 297.86,-105.74 288.11,-99.67"/>
<polygon fill="green" stroke="green" stroke-width="0.51" points="290.28,-96.9 279.98,-94.43 286.49,-102.79 290.28,-96.9"/>
</g>
<!-- Разница между Y шарика и Y платформы -->
<g id="node4" class="node">
<title>Разница между Y шарика и Y платформы</title>
<polygon fill="lightgray" stroke="black" points="393.38,-170.47 221.38,-170.47 221.38,-151.97 393.38,-151.97 393.38,-170.47"/>
<text text-anchor="middle" x="307.38" y="-157.92" font-family="Times,serif" font-size="9.00">Разница между Y шарика и Y платформы</text>
</g>
<!-- Разница между Y шарика и Y платформы&#45;&gt;Движение влево -->
<g id="edge7" class="edge">
<title>Разница между Y шарика и Y платформы&#45;&gt;Движение влево</title>
<path fill="none" stroke="red" stroke-width="1.03" d="M263.48,-151.51C234.63,-144.59 196.73,-133.17 166.38,-115.97 160.65,-112.72 155,-108.9 149.56,-104.8"/>
<polygon fill="red" stroke="red" stroke-width="1.03" points="151.86,-102.15 141.86,-98.65 147.49,-107.62 151.86,-102.15"/>
</g>
<!-- Разница между Y шарика и Y платформы&#45;&gt;Стоять на месте -->
<g id="edge8" class="edge">
<title>Разница между Y шарика и Y платформы&#45;&gt;Стоять на месте</title>
<path fill="none" stroke="red" stroke-width="0.1" d="M313.6,-151.58C320.47,-142.05 332.12,-125.9 343.78,-109.73"/>
<polygon fill="red" stroke="red" stroke-width="0.1" points="346.38,-112.11 349.39,-101.95 340.71,-108.01 346.38,-112.11"/>
</g>
<!-- Разница между Y шарика и Y платформы&#45;&gt;Движение вправо -->
<g id="edge9" class="edge">
<title>Разница между Y шарика и Y платформы&#45;&gt;Движение вправо</title>
<path fill="none" stroke="red" stroke-width="0.11" d="M301.07,-151.58C294.58,-142.71 283.9,-128.09 272.91,-113.07"/>
<polygon fill="red" stroke="red" stroke-width="0.11" points="275.99,-111.34 267.26,-105.34 270.34,-115.48 275.99,-111.34"/>
</g>
<!-- Стоять на месте&#45;&gt;Стоять на месте -->
<g id="edge10" class="edge">
<title>Стоять на месте&#45;&gt;Стоять на месте</title>
<path fill="none" stroke="green" stroke-width="0.42" d="M430.29,-77.04C442.5,-75.63 451.58,-69.27 451.58,-57.98 451.58,-50.04 447.09,-44.55 440.18,-41.49"/>
<polygon fill="green" stroke="green" stroke-width="0.42" points="441.46,-38.21 430.9,-39.09 439.7,-44.98 441.46,-38.21"/>
</g>
<!-- Движение вправо&#45;&gt;Движение вправо -->
<g id="edge11" class="edge">
<title>Движение вправо&#45;&gt;Движение вправо</title>
<path fill="none" stroke="red" stroke-width="0.18" d="M288.7,-76.77C300.67,-74.93 309.36,-68.67 309.36,-57.98 309.36,-50.47 305.06,-45.14 298.35,-42"/>
<polygon fill="red" stroke="red" stroke-width="0.18" points="299.54,-38.7 288.96,-39.28 297.59,-45.43 299.54,-38.7"/>
</g>
</g>
</svg>
