<?xml version="1.0" encoding="UTF-8" standalone="no"?>
<!DOCTYPE svg PUBLIC "-//W3C//DTD SVG 1.1//EN"
 "http://www.w3.org/Graphics/SVG/1.1/DTD/svg11.dtd">
<!-- Generated by graphviz version 9.0.0 (20230911.1827)
 -->
<!-- Pages: 1 -->
<svg width="593pt" height="178pt"
 viewBox="0.00 0.00 592.88 178.47" xmlns="http://www.w3.org/2000/svg" xmlns:xlink="http://www.w3.org/1999/xlink">
<g id="graph0" class="graph" transform="scale(1 1) rotate(0) translate(4 174.47)">
<polygon fill="white" stroke="none" points="-4,4 -4,-174.47 588.88,-174.47 588.88,4 -4,4"/>
<!-- Кооордината мяча X -->
<g id="node1" class="node">
<title>Кооордината мяча X</title>
<polygon fill="lightgray" stroke="black" points="476.12,-170.47 381.38,-170.47 381.38,-151.97 476.12,-151.97 476.12,-170.47"/>
<text text-anchor="middle" x="428.75" y="-157.92" font-family="Times,serif" font-size="9.00">Кооордината мяча X</text>
</g>
<!-- Движение влево -->
<g id="node5" class="node">
<title>Движение влево</title>
<ellipse fill="lightblue" stroke="black" cx="210.75" cy="-57.98" rx="54.8" ry="54.8"/>
<text text-anchor="middle" x="210.75" y="-54.68" font-family="Times,serif" font-size="9.00">Движение влево</text>
</g>
<!-- Кооордината мяча X&#45;&gt;Движение влево -->
<g id="edge1" class="edge">
<title>Кооордината мяча X&#45;&gt;Движение влево</title>
<path fill="none" stroke="green" stroke-width="0.13" d="M381.15,-152.27C349.58,-145.65 308.01,-134.29 274.75,-115.97 268.57,-112.56 262.48,-108.46 256.66,-104.04"/>
<polygon fill="green" stroke="green" stroke-width="0.13" points="259.07,-101.48 249.07,-97.97 254.7,-106.95 259.07,-101.48"/>
</g>
<!-- Стоять на месте -->
<g id="node6" class="node">
<title>Стоять на месте</title>
<ellipse fill="lightblue" stroke="black" cx="336.75" cy="-57.98" rx="53.21" ry="53.21"/>
<text text-anchor="middle" x="336.75" y="-54.68" font-family="Times,serif" font-size="9.00">Стоять на месте</text>
</g>
<!-- Кооордината мяча X&#45;&gt;Стоять на месте -->
<g id="edge2" class="edge">
<title>Кооордината мяча X&#45;&gt;Стоять на месте</title>
<path fill="none" stroke="red" stroke-width="0.26" d="M420.91,-151.58C411.48,-141.21 394.92,-122.99 378.98,-105.45"/>
<polygon fill="red" stroke="red" stroke-width="0.26" points="381.79,-103.34 372.47,-98.29 376.61,-108.05 381.79,-103.34"/>
</g>
<!-- Движение вправо -->
<g id="node7" class="node">
<title>Движение вправо</title>
<ellipse fill="lightblue" stroke="black" cx="483.75" cy="-57.98" rx="57.98" ry="57.98"/>
<text text-anchor="middle" x="483.75" y="-54.68" font-family="Times,serif" font-size="9.00">Движение вправо</text>
</g>
<!-- Кооордината мяча X&#45;&gt;Движение вправо -->
<g id="edge3" class="edge">
<title>Кооордината мяча X&#45;&gt;Движение вправо</title>
<path fill="none" stroke="green" stroke-width="0.19" d="M433.44,-151.58C437.7,-143.74 444.4,-131.41 451.53,-118.29"/>
<polygon fill="green" stroke="green" stroke-width="0.19" points="454.43,-120.29 456.13,-109.83 448.28,-116.94 454.43,-120.29"/>
</g>
<!-- Коррдината мяча Y -->
<g id="node2" class="node">
<title>Коррдината мяча Y</title>
<polygon fill="lightgray" stroke="black" points="584.88,-170.47 494.62,-170.47 494.62,-151.97 584.88,-151.97 584.88,-170.47"/>
<text text-anchor="middle" x="539.75" y="-157.92" font-family="Times,serif" font-size="9.00">Коррдината мяча Y</text>
</g>
<!-- Коррдината мяча Y&#45;&gt;Движение влево -->
<g id="edge4" class="edge">
<title>Коррдината мяча Y&#45;&gt;Движение влево</title>
<path fill="none" stroke="green" stroke-width="0.18" d="M494.22,-153.29C421.09,-142.06 284.57,-120.67 274.75,-115.97 268.29,-112.87 262,-108.93 256.04,-104.57"/>
<polygon fill="green" stroke="green" stroke-width="0.18" points="258.38,-101.96 248.35,-98.56 254.08,-107.47 258.38,-101.96"/>
</g>
<!-- Коррдината мяча Y&#45;&gt;Стоять на месте -->
<g id="edge5" class="edge">
<title>Коррдината мяча Y&#45;&gt;Стоять на месте</title>
<path fill="none" stroke="green" stroke-width="0.16" d="M508.18,-151.47C482.72,-143.81 446.41,-131.49 416.75,-115.97 406.58,-110.65 396.23,-104.19 386.5,-97.55"/>
<polygon fill="green" stroke="green" stroke-width="0.16" points="388.52,-94.7 378.32,-91.84 384.52,-100.43 388.52,-94.7"/>
</g>
<!-- Коррдината мяча Y&#45;&gt;Движение вправо -->
<g id="edge6" class="edge">
<title>Коррдината мяча Y&#45;&gt;Движение вправо</title>
<path fill="none" stroke="green" stroke-width="0.16" d="M534.98,-151.58C530.59,-143.66 523.68,-131.17 516.34,-117.89"/>
<polygon fill="green" stroke="green" stroke-width="0.16" points="519.49,-116.36 511.59,-109.3 513.36,-119.75 519.49,-116.36"/>
</g>
<!-- Разница между X шарика и X платформы -->
<g id="node3" class="node">
<title>Разница между X шарика и X платформы</title>
<polygon fill="lightgray" stroke="black" points="173.5,-170.47 0,-170.47 0,-151.97 173.5,-151.97 173.5,-170.47"/>
<text text-anchor="middle" x="86.75" y="-157.92" font-family="Times,serif" font-size="9.00">Разница между X шарика и X платформы</text>
</g>
<!-- Разница между X шарика и X платформы&#45;&gt;Движение влево -->
<g id="edge7" class="edge">
<title>Разница между X шарика и X платформы&#45;&gt;Движение влево</title>
<path fill="none" stroke="red" stroke-width="0.21" d="M97.32,-151.58C111.37,-140.11 137.15,-119.07 160.59,-99.93"/>
<polygon fill="red" stroke="red" stroke-width="0.21" points="162.66,-102.76 168.19,-93.73 158.23,-97.34 162.66,-102.76"/>
</g>
<!-- Разница между X шарика и X платформы&#45;&gt;Стоять на месте -->
<g id="edge8" class="edge">
<title>Разница между X шарика и X платформы&#45;&gt;Стоять на месте</title>
<path fill="none" stroke="green" stroke-width="0.11" d="M162.18,-151.49C197.84,-145.15 240.08,-134.33 274.75,-115.97 281.06,-112.62 287.21,-108.49 293.04,-103.98"/>
<polygon fill="green" stroke="green" stroke-width="0.11" points="295.14,-106.78 300.66,-97.74 290.71,-101.37 295.14,-106.78"/>
</g>
<!-- Разница между X шарика и X платформы&#45;&gt;Движение вправо -->
<g id="edge9" class="edge">
<title>Разница между X шарика и X платформы&#45;&gt;Движение вправо</title>
<path fill="none" stroke="green" stroke-width="0.28" d="M170.27,-151.49C260.59,-141.67 394.67,-125.8 416.75,-115.97 422.94,-113.21 428.99,-109.7 434.77,-105.78"/>
<polygon fill="green" stroke="green" stroke-width="0.28" points="436.65,-108.74 442.68,-100.03 432.53,-103.08 436.65,-108.74"/>
</g>
<!-- Разница между Y шарика и Y платформы -->
<g id="node4" class="node">
<title>Разница между Y шарика и Y платформы</title>
<polygon fill="lightgray" stroke="black" points="363.75,-170.47 191.75,-170.47 191.75,-151.97 363.75,-151.97 363.75,-170.47"/>
<text text-anchor="middle" x="277.75" y="-157.92" font-family="Times,serif" font-size="9.00">Разница между Y шарика и Y платформы</text>
</g>
<!-- Разница между Y шарика и Y платформы&#45;&gt;Движение влево -->
<g id="edge10" class="edge">
<title>Разница между Y шарика и Y платформы&#45;&gt;Движение влево</title>
<path fill="none" stroke="red" stroke-width="0.54" d="M272.04,-151.58C266.16,-142.71 256.5,-128.1 246.56,-113.09"/>
<polygon fill="red" stroke="red" stroke-width="0.54" points="249.59,-111.33 241.15,-104.92 243.76,-115.19 249.59,-111.33"/>
</g>
<!-- Разница между Y шарика и Y платформы&#45;&gt;Стоять на месте -->
<g id="edge11" class="edge">
<title>Разница между Y шарика и Y платформы&#45;&gt;Стоять на месте</title>
<path fill="none" stroke="red" stroke-width="0.32" d="M282.78,-151.58C287.95,-142.71 296.46,-128.1 305.22,-113.09"/>
<polygon fill="red" stroke="red" stroke-width="0.32" points="308.12,-115.06 310.13,-104.66 302.07,-111.54 308.12,-115.06"/>
</g>
<!-- Разница между Y шарика и Y платформы&#45;&gt;Движение вправо -->
<g id="edge12" class="edge">
<title>Разница между Y шарика и Y платформы&#45;&gt;Движение вправо</title>
<path fill="none" stroke="green" stroke-width="0.36" d="M319.64,-151.48C348.18,-144.45 386.19,-132.92 416.75,-115.97 422.58,-112.73 428.37,-108.94 433.97,-104.88"/>
<polygon fill="green" stroke="green" stroke-width="0.36" points="435.73,-107.94 441.58,-99.1 431.5,-102.36 435.73,-107.94"/>
</g>
<!-- Стоять на месте&#45;&gt;Стоять на месте -->
<g id="edge13" class="edge">
<title>Стоять на месте&#45;&gt;Стоять на месте</title>
<path fill="none" stroke="red" stroke-width="0.18" d="M386.66,-77.04C398.87,-75.63 407.96,-69.27 407.96,-57.98 407.96,-50.04 403.47,-44.55 396.56,-41.49"/>
<polygon fill="red" stroke="red" stroke-width="0.18" points="397.49,-38.12 386.93,-39 395.73,-44.89 397.49,-38.12"/>
</g>
<!-- Движение вправо&#45;&gt;Движение вправо -->
<g id="edge14" class="edge">
<title>Движение вправо&#45;&gt;Движение вправо</title>
<path fill="none" stroke="red" stroke-width="0.19" d="M539.07,-76.77C551.05,-74.93 559.73,-68.67 559.73,-57.98 559.73,-50.47 555.44,-45.14 548.73,-42"/>
<polygon fill="red" stroke="red" stroke-width="0.19" points="549.93,-38.71 539.35,-39.28 547.97,-45.43 549.93,-38.71"/>
</g>
</g>
</svg>
