<?xml version="1.0" encoding="UTF-8" standalone="no"?>
<!DOCTYPE svg PUBLIC "-//W3C//DTD SVG 1.1//EN"
 "http://www.w3.org/Graphics/SVG/1.1/DTD/svg11.dtd">
<!-- Generated by graphviz version 9.0.0 (20230911.1827)
 -->
<!-- Pages: 1 -->
<svg width="601pt" height="178pt"
 viewBox="0.00 0.00 600.55 178.47" xmlns="http://www.w3.org/2000/svg" xmlns:xlink="http://www.w3.org/1999/xlink">
<g id="graph0" class="graph" transform="scale(1 1) rotate(0) translate(4 174.47)">
<polygon fill="white" stroke="none" points="-4,4 -4,-174.47 596.55,-174.47 596.55,4 -4,4"/>
<!-- Кооордината мяча X -->
<g id="node1" class="node">
<title>Кооордината мяча X</title>
<polygon fill="lightgray" stroke="black" points="102.18,-170.47 7.43,-170.47 7.43,-151.97 102.18,-151.97 102.18,-170.47"/>
<text text-anchor="middle" x="54.8" y="-157.92" font-family="Times,serif" font-size="9.00">Кооордината мяча X</text>
</g>
<!-- Движение влево -->
<g id="node5" class="node">
<title>Движение влево</title>
<ellipse fill="lightblue" stroke="black" cx="54.8" cy="-57.98" rx="54.8" ry="54.8"/>
<text text-anchor="middle" x="54.8" y="-54.68" font-family="Times,serif" font-size="9.00">Движение влево</text>
</g>
<!-- Кооордината мяча X&#45;&gt;Движение влево -->
<g id="edge1" class="edge">
<title>Кооордината мяча X&#45;&gt;Движение влево</title>
<path fill="none" stroke="green" stroke-width="0.24" d="M54.8,-151.58C54.8,-144.71 54.8,-134.38 54.8,-123.09"/>
<polygon fill="green" stroke="green" stroke-width="0.24" points="58.3,-123.34 54.8,-113.34 51.3,-123.34 58.3,-123.34"/>
</g>
<!-- Стоять на месте -->
<g id="node6" class="node">
<title>Стоять на месте</title>
<ellipse fill="lightblue" stroke="black" cx="332.8" cy="-57.98" rx="53.21" ry="53.21"/>
<text text-anchor="middle" x="332.8" y="-54.68" font-family="Times,serif" font-size="9.00">Стоять на месте</text>
</g>
<!-- Кооордината мяча X&#45;&gt;Стоять на месте -->
<g id="edge2" class="edge">
<title>Кооордината мяча X&#45;&gt;Стоять на месте</title>
<path fill="none" stroke="green" stroke-width="0.15" d="M102.53,-151.84C161.52,-141.26 255.98,-123.55 270.8,-115.97 277.15,-112.72 283.34,-108.64 289.19,-104.16"/>
<polygon fill="green" stroke="green" stroke-width="0.15" points="291.22,-107.02 296.76,-97.99 286.8,-101.59 291.22,-107.02"/>
</g>
<!-- Движение вправо -->
<g id="node7" class="node">
<title>Движение вправо</title>
<ellipse fill="lightblue" stroke="black" cx="185.8" cy="-57.98" rx="57.98" ry="57.98"/>
<text text-anchor="middle" x="185.8" y="-54.68" font-family="Times,serif" font-size="9.00">Движение вправо</text>
</g>
<!-- Кооордината мяча X&#45;&gt;Движение вправо -->
<g id="edge3" class="edge">
<title>Кооордината мяча X&#45;&gt;Движение вправо</title>
<path fill="none" stroke="red" stroke-width="0.12" d="M68.07,-151.61C81.2,-142.95 101.77,-129.05 118.8,-115.97 124.01,-111.97 129.36,-107.7 134.65,-103.38"/>
<polygon fill="red" stroke="red" stroke-width="0.12" points="136.73,-106.2 142.21,-97.13 132.27,-100.8 136.73,-106.2"/>
</g>
<!-- Коррдината мяча Y -->
<g id="node2" class="node">
<title>Коррдината мяча Y</title>
<polygon fill="lightgray" stroke="black" points="210.93,-170.47 120.68,-170.47 120.68,-151.97 210.93,-151.97 210.93,-170.47"/>
<text text-anchor="middle" x="165.8" y="-157.92" font-family="Times,serif" font-size="9.00">Коррдината мяча Y</text>
</g>
<!-- Коррдината мяча Y&#45;&gt;Движение влево -->
<g id="edge4" class="edge">
<title>Коррдината мяча Y&#45;&gt;Движение влево</title>
<path fill="none" stroke="red" stroke-width="0.21" d="M156.34,-151.58C144.29,-140.6 122.61,-120.82 102.36,-102.36"/>
<polygon fill="red" stroke="red" stroke-width="0.21" points="104.97,-100 95.23,-95.85 100.26,-105.18 104.97,-100"/>
</g>
<!-- Коррдината мяча Y&#45;&gt;Стоять на месте -->
<g id="edge5" class="edge">
<title>Коррдината мяча Y&#45;&gt;Стоять на месте</title>
<path fill="none" stroke="green" stroke-width="0.2" d="M193.39,-151.53C215.35,-143.94 246.34,-131.68 270.8,-115.97 276.72,-112.16 282.6,-107.78 288.26,-103.16"/>
<polygon fill="green" stroke="green" stroke-width="0.2" points="290.21,-106.09 295.57,-96.95 285.68,-100.75 290.21,-106.09"/>
</g>
<!-- Коррдината мяча Y&#45;&gt;Движение вправо -->
<g id="edge13" class="edge">
<title>Коррдината мяча Y&#45;&gt;Движение вправо</title>
<path fill="none" stroke="red" stroke-width="0.27" d="M167.51,-151.58C168.79,-145.07 170.69,-135.46 172.78,-124.87"/>
<polygon fill="red" stroke="red" stroke-width="0.27" points="176.16,-125.81 174.67,-115.33 169.3,-124.46 176.16,-125.81"/>
</g>
<!-- Разница между X шарика и X платформы -->
<g id="node3" class="node">
<title>Разница между X шарика и X платформы</title>
<polygon fill="lightgray" stroke="black" points="592.55,-170.47 419.05,-170.47 419.05,-151.97 592.55,-151.97 592.55,-170.47"/>
<text text-anchor="middle" x="505.8" y="-157.92" font-family="Times,serif" font-size="9.00">Разница между X шарика и X платформы</text>
</g>
<!-- Разница между X шарика и X платформы&#45;&gt;Стоять на месте -->
<g id="edge6" class="edge">
<title>Разница между X шарика и X платформы&#45;&gt;Стоять на месте</title>
<path fill="none" stroke="green" stroke-width="0.12" d="M491.05,-151.58C468.21,-138.22 423.12,-111.84 386.9,-90.64"/>
<polygon fill="green" stroke="green" stroke-width="0.12" points="388.93,-87.77 378.53,-85.74 385.4,-93.82 388.93,-87.77"/>
</g>
<!-- Разница между X шарика и X платформы&#45;&gt;Движение вправо -->
<g id="edge7" class="edge">
<title>Разница между X шарика и X платформы&#45;&gt;Движение вправо</title>
<path fill="none" stroke="green" stroke-width="0.47" d="M418.58,-152.3C373.25,-146.09 317.68,-135.14 270.8,-115.97 260.35,-111.69 249.85,-106.03 239.97,-99.93"/>
<polygon fill="green" stroke="green" stroke-width="0.47" points="241.99,-97.07 231.69,-94.61 238.21,-102.96 241.99,-97.07"/>
</g>
<!-- Разница между Y шарика и Y платформы -->
<g id="node4" class="node">
<title>Разница между Y шарика и Y платформы</title>
<polygon fill="lightgray" stroke="black" points="400.8,-170.47 228.8,-170.47 228.8,-151.97 400.8,-151.97 400.8,-170.47"/>
<text text-anchor="middle" x="314.8" y="-157.92" font-family="Times,serif" font-size="9.00">Разница между Y шарика и Y платформы</text>
</g>
<!-- Разница между Y шарика и Y платформы&#45;&gt;Движение влево -->
<g id="edge8" class="edge">
<title>Разница между Y шарика и Y платформы&#45;&gt;Движение влево</title>
<path fill="none" stroke="red" stroke-width="0.12" d="M234.87,-151.5C198.03,-145.19 154.64,-134.38 118.8,-115.97 112.43,-112.69 106.2,-108.64 100.27,-104.21"/>
<polygon fill="red" stroke="red" stroke-width="0.12" points="102.55,-101.55 92.54,-98.09 98.21,-107.04 102.55,-101.55"/>
</g>
<!-- Разница между Y шарика и Y платформы&#45;&gt;Стоять на месте -->
<g id="edge9" class="edge">
<title>Разница между Y шарика и Y платформы&#45;&gt;Стоять на месте</title>
<path fill="none" stroke="red" stroke-width="0.14" d="M316.34,-151.58C317.65,-144.19 319.67,-132.81 321.86,-120.53"/>
<polygon fill="red" stroke="red" stroke-width="0.14" points="325.29,-121.23 323.59,-110.77 318.4,-120 325.29,-121.23"/>
</g>
<!-- Разница между Y шарика и Y платформы&#45;&gt;Движение вправо -->
<g id="edge10" class="edge">
<title>Разница между Y шарика и Y платформы&#45;&gt;Движение вправо</title>
<path fill="none" stroke="red" stroke-width="0.22" d="M303.8,-151.58C289.46,-140.33 263.36,-119.85 239.35,-101.01"/>
<polygon fill="red" stroke="red" stroke-width="0.22" points="241.6,-98.32 231.58,-94.9 237.28,-103.83 241.6,-98.32"/>
</g>
<!-- Стоять на месте&#45;&gt;Стоять на месте -->
<g id="edge11" class="edge">
<title>Стоять на месте&#45;&gt;Стоять на месте</title>
<path fill="none" stroke="red" stroke-width="0.18" d="M382.71,-77.04C394.92,-75.63 404.01,-69.27 404.01,-57.98 404.01,-50.04 399.52,-44.55 392.61,-41.49"/>
<polygon fill="red" stroke="red" stroke-width="0.18" points="393.54,-38.12 382.98,-39 391.78,-44.89 393.54,-38.12"/>
</g>
<!-- Движение вправо&#45;&gt;Движение вправо -->
<g id="edge12" class="edge">
<title>Движение вправо&#45;&gt;Движение вправо</title>
<path fill="none" stroke="red" stroke-width="0.31" d="M241.12,-76.77C253.1,-74.93 261.78,-68.67 261.78,-57.98 261.78,-50.47 257.49,-45.14 250.78,-42"/>
<polygon fill="red" stroke="red" stroke-width="0.31" points="252.15,-38.76 241.57,-39.33 250.2,-45.48 252.15,-38.76"/>
</g>
</g>
</svg>
